<?xml version="1.0" encoding="utf-8"?>
<!-- Svg Vector Icons : http://www.onlinewebfonts.com/icon -->
<!DOCTYPE svg PUBLIC "-//W3C//DTD SVG 1.1//EN" "http://www.w3.org/Graphics/SVG/1.1/DTD/svg11.dtd">
<svg version="1.1" xmlns="http://www.w3.org/2000/svg" xmlns:xlink="http://www.w3.org/1999/xlink" x="0px" y="0px" viewBox="0 0 1000 1000" enable-background="new 0 0 1000 1000" xml:space="preserve">
<g><g transform="translate(0.000000,512.000000) scale(0.100000,-0.100000)"><path d="M4901,120v-4703.4h97.6h97.6V120v4703.4h-97.6H4901V120z"/><path d="M1934.5,3281.6c-37.1-37.1-39-64.4-39-464.5c0-318.1,5.8-435.2,25.4-460.6c23.4-33.2,103.4-35.1,1370-35.1l1346.6,2l35.1,42.9c31.2,41,35.1,82,29.3,472.3c-5.9,396.2-7.8,429.4-42.9,454.7c-33.2,23.4-249.8,27.3-1362.2,27.3C1998.9,3320.6,1973.5,3320.6,1934.5,3281.6z"/><path d="M5330.3,3281.6c-37.1-37.1-39-64.4-39-464.5c0-318.1,5.9-435.2,25.4-460.6c23.4-33.2,103.4-35.1,1370-35.1h1344.7l35.1,42.9c31.2,39,35.1,89.8,35.1,460.6c0,392.3-1.9,419.6-39,456.7c-39,39-64.4,39-1366.1,39C5394.7,3320.6,5369.3,3320.6,5330.3,3281.6z"/><path d="M1431,1892.1c-33.2-33.2-33.2-915.3,0-948.5c17.6-17.6,404-23.4,1617.9-23.4c1457.8,0,1596.4,2,1619.8,33.2c39,46.8,39,882.1,0,929c-23.4,31.2-162,33.2-1619.8,33.2C1835,1915.5,1448.6,1909.6,1431,1892.1z"/><path d="M5324.5,1880.4c-29.3-31.2-33.2-93.7-33.2-466.4c0-390.3,3.9-431.3,35.1-460.6c33.2-31.2,173.7-33.2,1625.7-33.2c1212,0,1596.4,5.8,1614,23.4c17.6,17.6,23.4,148.3,23.4,466.4c0,378.6-3.9,448.9-31.2,474.2c-27.3,27.3-201,31.2-1615.9,31.2C5429.8,1915.5,5353.7,1913.5,5324.5,1880.4z"/><path d="M923.6,486.9c-17.6-17.6-23.4-148.3-23.4-464.5c0-404,3.9-445,35.1-474.2c33.2-31.2,191.3-33.2,1859.9-33.2c1543.7,0,1830.6,3.9,1863.8,27.3c35.1,25.4,37.1,58.5,42.9,450.8c5.9,359.1,2,429.4-25.4,470.3l-29.3,46.8H2797.1C1384.2,510.3,941.1,504.5,923.6,486.9z"/><path d="M5322.5,479.1c-27.3-25.4-31.2-95.6-31.2-458.6c0-402,1.9-429.3,39-466.4c39-39,64.4-39,1863.8-39c1799.4,0,1824.8,0,1863.8,39c37.1,37.1,39,64.4,39,460.6c0,251.8-7.8,435.2-19.5,458.6c-19.5,37.1-62.5,37.1-1873.5,37.1C5546.9,510.3,5349.8,506.4,5322.5,479.1z"/><path d="M431.8-914.3c-37.1-37.1-39-64.4-39-464.5c0-337.6,5.8-433.3,27.3-464.5c27.3-37.1,74.2-37.1,2109.7-42.9l2080.4-3.9l48.8,48.8l48.8,48.8l-5.9,431.3c-5.9,400.1-7.8,433.3-42.9,458.6c-33.2,23.4-353.2,27.3-2113.6,27.3C496.2-875.3,470.8-875.3,431.8-914.3z"/><path d="M5330.3-914.3c-37.1-37.1-39-64.4-39-464.5c0-337.6,5.9-433.3,27.3-464.5c27.3-37.1,74.2-37.1,2094.1-41c1639.3-3.9,2074.6,0,2113.6,19.5l48.8,25.4l5.8,450.8c3.9,390.3,0,454.7-27.3,482.1c-27.3,27.3-234.2,31.2-2107.7,31.2C5394.7-875.3,5369.3-875.3,5330.3-914.3z"/><path d="M133.2-2315.6c-29.3-31.2-33.2-93.7-33.2-468.4c0-365,3.9-435.2,31.2-460.6c27.3-27.3,259.6-31.2,2269.7-31.2c2060.9,0,2244.3,1.9,2267.8,33.2c21.5,23.4,27.3,126.9,27.3,464.5s-5.8,441.1-27.3,464.5c-23.4,31.3-206.9,33.2-2265.8,33.2C260-2280.5,162.5-2282.4,133.2-2315.6z"/><path d="M5324.5-2315.6c-29.3-31.2-33.2-93.7-33.2-466.4c0-390.3,3.9-431.3,35.1-460.6c33.2-31.2,218.6-33.2,2271.7-33.2c2138.9,0,2236.5,1.9,2265.8,35.1c46.8,52.7,48.8,850.9,2,917.3l-29.3,42.9H7596.1C5451.3-2280.5,5353.7-2282.4,5324.5-2315.6z"/></g></g>
</svg>
