<?xml version="1.0" encoding="utf-8"?>
<!-- Svg Vector Icons : http://www.onlinewebfonts.com/icon -->
<!DOCTYPE svg PUBLIC "-//W3C//DTD SVG 1.1//EN" "http://www.w3.org/Graphics/SVG/1.1/DTD/svg11.dtd">
<svg version="1.1" xmlns="http://www.w3.org/2000/svg" xmlns:xlink="http://www.w3.org/1999/xlink" x="0px" y="0px" viewBox="0 0 1000 1000" enable-background="new 0 0 1000 1000" xml:space="preserve">
<g><g transform="translate(0.000000,512.000000) scale(0.100000,-0.100000)"><path d="M3663.2,4995.7c26.9-69.1,74.8-264.8,67.1-272.4c-3.8-3.8-49.9,21.1-101.7,59.5l-95.9,67.1l-21.1-63.3l-21.1-63.3l78.7-13.4c44.1-5.8,115.1-13.4,157.3-13.4l78.7-1.9l13.4-115.1c9.6-88.3,21.1-115.1,44.1-115.1c28.8,0,26.9-3.8-3.8-24.9c-21.1-15.4-28.8-36.5-19.2-49.9c9.6-19.2-9.6-23-78.7-19.2c-92.1,5.8-94,5.8-138.1-74.8l-44.1-80.6H3715h136.2l-30.7-59.5c-28.8-53.7-28.8-65.2-1.9-134.3c17.3-42.2,30.7-118.9,30.7-170.7c0-113.2,26.9-134.3,168.8-134.3c86.3,0,101.7-7.7,155.4-69.1c32.6-36.5,95.9-124.7,140.1-193.8c65.2-103.6,97.8-134.3,176.5-170.7s88.3-46,48-46c-76.7,0-170.7,74.8-285.9,228.3c-57.6,76.7-120.9,147.7-140,157.3c-17.3,11.5-109.4,21.1-205.3,24.9c-117,3.8-186.1,15.4-218.7,38.4c-26.9,17.3-51.8,30.7-57.6,30.7c-5.8,0-28.8-40.3-49.9-90.2c-34.5-76.7-40.3-117-32.6-245.6c3.8-84.4,1.9-174.6-5.8-201.4c-15.3-46-15.3-48-17.3-3.8c-3.8,72.9-53.7,149.6-120.9,182.3c-34.5,17.3-63.3,28.8-67.1,26.9c-1.9-1.9,7.7-51.8,21.1-109.4c30.7-128.5,23-153.5-42.2-153.5c-92.1,0-103.6,21.1-71,113.2c26.9,78.7,26.9,84.4-21.1,165c-26.9,46-63.3,88.3-80.6,94c-17.3,5.8-161.2,9.6-316.6,7.7h-283.9l-57.6-128.5c-32.6-69.1-74.8-166.9-95.9-216.8l-36.4-92.1l74.8-11.5c126.6-21.1,128.5-23,101.7-203.4c-24.9-174.6-143.9-619.7-176.5-658c-11.5-15.3-51.8-19.2-113.2-13.4c-84.4,7.7-97.8,3.8-124.7-40.3c-19.2-26.9-34.5-72.9-36.5-101.7c-3.8-49.9,3.8-55.6,130.5-94l134.3-42.2l-3.8-92.1c-3.8-124.7-24.9-157.3-170.7-264.7l-124.7-94l48-63.3c28.8-36.5,49.9-72.9,49.9-82.5c0-21.1-280.1-99.8-356.8-99.8c-30.7,0-76.7,13.4-101.7,30.7c-42.2,28.8-49.9,28.8-138.1-11.5c-51.8-24.9-94-51.8-94-61.4s34.5-99.8,78.7-201.4c109.4-257.1,111.3-285.8,38.4-447c-46-97.8-59.5-149.6-49.9-189.9c11.5-49.9,5.7-57.6-84.4-95.9l-95.9-40.3l59.5-86.3c67.1-95.9,76.7-182.3,26.9-237.9c-32.6-36.4-32.6-38.4,3.8-57.6c23-11.5,61.4-78.7,90.2-159.2c28.8-76.8,78.7-166.9,109.4-199.5c69.1-74.8,65.2-92.1-55.6-270.5c-71-101.7-92.1-149.6-97.8-228.3c-11.5-126.6,26.9-201.4,165-328.1l109.4-99.8l-84.4-157.3l-84.4-155.4l80.6-71c69.1-61.4,155.4-205.3,212.9-354.9c17.3-46,19.2-46,74.8-19.2c69.1,34.5,113.2,23,193.8-44.1c51.8-42.2,72.9-48,159.2-40.3c55.6,5.7,113.2,15.3,128.5,23c19.2,7.7,53.7-9.6,94-44.1c71-63.3,161.2-95.9,387.5-145.8c80.6-15.4,163.1-42.2,182.3-55.6c32.6-24.9,30.7-30.7-40.3-118.9c-42.2-51.8-120.9-143.9-176.5-203.4c-80.6-88.2-107.4-136.2-142-249.4c-23-76.7-67.1-205.3-99.8-283.9c-61.4-155.4-147.7-600.5-147.7-759.7c0-80.6,9.6-113.2,49.9-159.3c42.2-51.8,61.4-59.5,142-59.5c49.9,0,159.2,13.4,241.7,30.7c124.7,26.9,165,26.9,247.5,7.7c95.9-23,101.7-21.1,193.8,36.4l94,59.5h-119c-67.1,0-120.9,7.7-120.9,15.4c0,23,142,157.3,165,157.3c11.5,0,55.6-24.9,97.8-55.6c124.7-90.1,180.3-111.3,322.3-120.9c138.1-9.6,247.5-51.8,366.4-142c71-53.7,117-57.6,207.2-13.4c67.1,30.7,69.1,30.7,145.8-23c44.1-30.7,105.5-92.1,138.1-138.1c46-67.1,65.2-82.5,95.9-71c42.2,13.4,42.2,17.3,3.8-107.4c-17.3-53.7,7.7-48,109.4,26.9c94,69,151.6,165,151.6,251.3v53.7l145.8-11.5c166.9-11.5,226.4-44.1,255.2-134.3l21.1-63.3l130.4,11.5c145.8,15.4,224.5,48,351.1,153.5c76.7,63.3,107.4,76.7,236,94c82.5,11.5,191.8,21.1,243.6,21.1c92.1,0,94,1.9,94,57.5c0,67.2,9.6,69.1,188,28.8c117.1-26.9,138.2-26.9,213,0c103.6,36.5,97.9,36.5,97.9-17.3c0-61.4,82.5-157.3,172.7-203.3l72.9-38.4l13.4,122.8c17.3,161.2,11.5,188-61.4,224.5l-61.4,30.7l38.4,55.6c19.2,30.7,36.5,61.4,36.5,67.1c0,5.8-48,69.1-105.5,142c-57.6,72.9-105.5,151.6-105.5,174.6c0,65.2,130.4,166.9,303.1,236c197.6,80.6,234.1,122.8,234.1,272.4c0,128.5,1.9,130.5,168.8,86.3l103.6-28.8l26.9,65.2c15.4,36.5,26.9,128.6,26.9,209.1c0,163.1,7.7,153.5-239.8,289.7c-90.2,49.9-191.8,130.5-310.8,251.3c-118.9,120.9-211,195.7-282,228.3c-105.5,49.9-132.4,80.6-276.3,318.5c-103.6,172.7-109.3,197.6-63.3,274.4c23,34.6,40.3,74.8,40.3,90.2c0,13.4-59.5,80.6-132.4,149.6c-120.9,117-251.3,303.1-251.3,362.6c0,15.4,32.6,1.9,84.4-34.5c48-30.7,94-57.5,103.6-57.5c11.5,0,36.5,28.8,57.6,63.3c76.7,122.8,138.1,161.2,289.7,186.1c182.3,30.7,232.1,51.8,391.3,170.7c72.9,51.8,147.7,101.7,166.9,107.5c19.2,5.7,57.6,40.3,84.4,74.8c32.6,44.1,71,69.1,120.8,78.7c105.5,19.2,266.7,88.2,427.8,182.3l138.1,80.6l-72.9,76.7l-74.8,74.8l122.8-5.8l122.8-5.8l26.9-76.7c32.6-95.9,76.7-140.1,149.7-147.7c51.8-5.8,61.4,3.8,99.7,80.6c59.5,122.8,90.2,307,76.7,468.1c-13.4,195.7-49.9,270.5-142,299.3c-84.4,28.8-101.7,48-101.7,118.9c0,28.8-17.3,97.8-40.3,153.5c-32.6,84.4-38.4,120.9-25,216.8c28.8,234.1,21.1,316.6-48,468.1c-59.5,134.3-63.3,153.5-51.8,282l13.4,136.2L8123.7,2212c-259,209.1-274.3,251.3-159.2,429.7c36.5,57.6,72.9,132.4,78.7,168.8c21.1,109.4-5.8,291.6-72.9,512.2l-67.1,211l-113.2,30.7c-111.3,28.8-199.5,71-199.5,95.9c0,7.7,61.4,24.9,134.3,38.4c74.8,13.4,140,28.8,143.9,36.5c3.8,7.7-23,49.9-61.4,94c-57.5,69.1-78.6,80.6-120.8,71c-46-7.7-49.9-3.8-44.1,32.6c5.8,28.8-9.6,59.5-49.9,99.8c-59.5,55.6-61.4,55.6-151.6,30.7c-161.2-46-161.2-46-291.6,51.8c-109.4,80.6-172.7,163.1-222.5,287.8c-2,1.9-26.9-3.8-55.6-15.4c-40.3-15.3-82.5-11.5-184.2,17.3l-132.4,38.4l-47.9-94c-90.2-178.4-241.7-285.9-462.4-330c-84.4-15.4-138.2-42.2-211.1-101.7c-95.9-76.7-97.9-80.6-71-130.5c13.4-28.8,23-51.8,21.1-51.8c-3.8,0-57.5,21.1-120.8,48c-143.9,59.5-239.8,61.4-289.7,7.7l-36.4-40.3l-32.6,42.2c-19.2,23-34.5,51.8-34.5,61.4c0,11.5,51.8,69.1,115.1,130.5c97.8,94,115.1,120.9,115.1,178.4c0,101.7,34.5,159.2,113.2,189.9l69.1,26.9l-94,61.4c-140.1,90.2-153.5,84.4-147.7-44.1c1.9-49.9-11.5-67.2-92.1-119l-95.9-61.4l-130.5,74.8c-142,84.4-203.3,94-260.9,44.1c-38.4-34.5-38.4-32.6-26.9,38.4l11.5,71l-107.4-13.4l-105.5-11.5l28.8,46c40.3,65.2,57.6,159.2,42.2,247.5c-11.5,65.2-24.9,84.4-82.5,113.2c-103.6,51.8-264.8,84.4-353,72.9c-55.6-7.7-101.7,1.9-174.6,34.5c-55.6,24.9-155.4,55.6-224.5,65.2C3699.6,5028.3,3651.7,5026.4,3663.2,4995.7z M5293.9,3710.4c23,21.1,13.4-21.1-15.3-71c-19.2-36.4-28.8-40.3-36.5-19.2c-5.8,15.4-19.2,51.8-28.8,82.5c-19.2,51.8-19.2,51.8,24.9,23C5261.3,3710.4,5288.1,3702.7,5293.9,3710.4z"/></g></g>
</svg>
