<?xml version="1.0" encoding="utf-8"?>
<!-- Svg Vector Icons : http://www.onlinewebfonts.com/icon -->
<!DOCTYPE svg PUBLIC "-//W3C//DTD SVG 1.1//EN" "http://www.w3.org/Graphics/SVG/1.1/DTD/svg11.dtd">
<svg version="1.1" xmlns="http://www.w3.org/2000/svg" xmlns:xlink="http://www.w3.org/1999/xlink" x="0px" y="0px" viewBox="0 0 1000 1000" enable-background="new 0 0 1000 1000" xml:space="preserve">
<g><g transform="translate(0.000000,511.000000) scale(0.100000,-0.100000)"><path d="M3773.4,4887.8c-37.1-87.3-78.6-211.7-91.7-275c-34.9-165.9-30.6-445.3,10.9-602.4c102.6-397.2,447.4-781.4,838.1-934.2l131-50.2v-307.7v-309.9l-233.5-6.6c-290.3-10.9-366.7-45.8-430-200.8c-37.1-85.1-39.3-113.5-17.5-185.5c32.7-107,117.9-194.3,220.4-222.6c98.2-28.4,1420.9-28.4,1540.9,0c54.6,13.1,113.5,48,159.3,96c61.1,67.7,69.8,93.9,69.8,198.6c0,100.4-8.7,128.8-67.7,194.2c-82.9,96-172.4,122.2-430,122.2h-203l6.5,309.9l6.5,309.9l128.8,50.2c386.3,155,702.8,497.6,827.2,890.5c87.3,279.4,56.8,643.9-82.9,956l-54.6,124.4H4971.6H3838.8L3773.4,4887.8z M5674.4,4379.2c8.7-30.6,4.4-120-8.7-203c-61.1-384.2-347.1-595.9-763.9-567.5c-377.6,28.4-604.6,266.3-628.6,657l-10.9,168.1h700.6h698.4L5674.4,4379.2z"/><path d="M3171,1231.9c-8.7-6.5-15.3-488.9-15.3-1069.5V-891.8H1627.8H100v-1964.4v-1964.4l1527.8-2.2c840.3,0,2352.9-2.2,3361.2-2.2c1008.4,0,2525.3,2.2,3372.2,2.2l1538.8,2.2v1276.8v1276.8l-1532.2,4.4l-1534.4,6.5l-6.5,1752.7l-4.4,1750.5H5004.4C4002.5,1247.2,3177.5,1240.6,3171,1231.9z M6211.4-1797.6v-2411.8H5000H3788.6V-2926c0,705-6.5,1789.7-15.3,2411.8l-13.1,1128.4h1224.4h1226.6V-1797.6z M3155.7-2867.1v-1342.3H1933.4H711.1v1342.3v1342.3h1222.3h1222.3V-2867.1z M9267-3543.7v-665.7H8055.7H6844.3v665.7v665.7h1211.4H9267V-3543.7z"/></g></g>
</svg>
