<?xml version="1.0" encoding="utf-8"?>
<!-- Svg Vector Icons : http://www.onlinewebfonts.com/icon -->
<!DOCTYPE svg PUBLIC "-//W3C//DTD SVG 1.1//EN" "http://www.w3.org/Graphics/SVG/1.1/DTD/svg11.dtd">
<svg version="1.1" xmlns="http://www.w3.org/2000/svg" xmlns:xlink="http://www.w3.org/1999/xlink" x="0px" y="0px" viewBox="0 0 1000 1000" enable-background="new 0 0 1000 1000" xml:space="preserve">
<g><g transform="translate(0.000000,511.000000) scale(0.100000,-0.100000)"><path d="M9014.5,4982.5c-217.8-53-421.8-223.7-519.9-429.7c-43.2-92.2-51-135.4-51-284.5c0-162.8,5.9-186.4,66.7-298.2c78.5-145.2,211.9-276.6,357.1-351.2c149.1-76.5,372.8-88.3,533.7-27.5c313.9,117.7,533.7,453.2,494.4,757.3c-27.5,229.5-223.7,484.6-449.3,588.6C9326.5,4992.3,9132.3,5012,9014.5,4982.5z M9302.9,4668.6c84.4-21.6,198.2-115.8,239.4-192.3c68.7-133.4,54.9-321.8-35.3-455.2c-127.5-192.3-490.5-211.9-655.3-33.3c-143.2,153-137.3,433.6,11.8,582.7C8973.3,4680.4,9134.2,4715.7,9302.9,4668.6z"/><path d="M625.3,4523.4C313.3,4423.4,68.1,4070.2,103.4,3772c51-435.6,504.2-757.3,906.4-643.5c219.7,62.8,406.1,225.6,502.3,435.6c66.7,145.2,62.8,390.4-7.9,541.5c-72.6,155-211.9,298.2-363,372.8C990.2,4552.9,772.4,4572.5,625.3,4523.4z M1027.5,4201.7c158.9-70.6,239.4-231.5,219.7-431.6c-21.6-206-158.9-333.5-376.7-351.2c-109.9-7.9-141.3-2-235.4,43.2c-149.1,74.6-213.9,184.4-213.9,363c2,196.2,84.4,327.7,245.2,392.4C746.9,4248.8,943.1,4240.9,1027.5,4201.7z"/><path d="M6766.2,2716.5c-610.2-480.7-1114.4-884.8-1122.2-896.6c-7.8-13.7-15.7-53-15.7-86.3c0-86.3,58.9-143.2,149.1-143.2c60.8,0,186.4,92.2,1177.1,875c608.2,480.7,1116.4,890.7,1126.2,910.3c29.4,56.9,23.5,107.9-21.6,164.8c-29.4,39.2-56.9,51-111.8,51C7880.5,3591.5,7772.6,3511.1,6766.2,2716.5z"/><path d="M1871.1,2979.4c-60.8-33.3-88.3-76.5-88.3-145.2c0-54.9,58.9-119.7,576.8-621.9c329.6-321.8,596.4-567,625.9-572.9c92.2-23.5,188.3,54.9,190.3,157c0,51-58.9,117.7-465,516c-545.4,533.7-720,690.6-767.1,690.6C1926,3002.9,1892.7,2991.2,1871.1,2979.4z"/><path d="M4264.7,1568.8c-523.8-60.8-933.9-584.7-853.4-1092.8c27.5-170.7,135.4-386.5,253.1-510.1c465-484.6,1173.2-414,1553.9,155c182.5,272.7,182.5,704.3,0,977C4990.6,1439.3,4641.4,1610,4264.7,1568.8z M4635.5,1225.4c170.7-60.8,315.9-213.9,374.7-396.3c47.1-141.3,33.3-390.4-27.5-518c-227.6-476.7-967.2-478.7-1200.7-3.9c-41.2,82.4-47.1,123.6-47.1,302.1c0,178.5,5.9,219.7,47.1,302.1C3929.2,1207.8,4296.1,1343.1,4635.5,1225.4z"/><path d="M5751.8-332.4c-53-21.6-84.4-78.5-84.4-155c0-51,107.9-160.9,918.2-937.8c504.2-482.6,1014.3-973.1,1136-1088.9c245.2-235.4,296.3-257,388.5-162.8c82.4,80.4,66.7,153-62.8,284.5C7896.2-2241.3,6054-481.5,5946.1-385.3C5861.7-310.8,5828.3-301,5751.8-332.4z"/><path d="M3578-822.9c-21.6-7.9-53-31.4-70.6-51C3474-913.1,2881.5-2618,2881.5-2673c0-43.2,80.4-127.5,127.5-133.4c68.7-9.8,139.3,19.6,162.8,64.7c39.2,74.6,612.1,1744.2,612.1,1783.4c0,45.1-74.6,129.5-127.5,141.3C3634.9-811.1,3599.6-813,3578-822.9z"/><path d="M8792.8-2969.2c-384.5-125.6-620-541.5-506.2-898.6c98.1-313.9,443.4-547.4,767.1-519.9c323.7,25.5,594.5,284.5,657.3,627.8c56.9,306.1-131.4,614.1-463,761.2C9126.4-2945.7,8910.6-2930,8792.8-2969.2z M9193.1-3296.9c211.9-102,284.5-429.7,139.3-631.8c-100-139.3-374.7-194.2-545.4-105.9c-249.2,125.6-292.3,523.8-76.5,684.7C8847.8-3247.8,9045.9-3226.2,9193.1-3296.9z"/><path d="M2416.5-3383.2c-206-62.8-345.3-188.3-445.4-402.2c-53-111.8-60.8-147.1-60.8-304.1c0-153,7.8-190.3,54.9-286.4c66.7-137.3,213.9-278.6,363-347.3c98.1-47.1,135.4-53,317.8-53c178.5,0,219.7,5.9,304.1,47.1c135.4,68.7,257,196.2,329.6,351.2c56.9,119.7,62.8,147.1,62.8,327.6c0,174.6-5.9,208-53,294.3C3130.7-3453.8,2730.4-3283.1,2416.5-3383.2z M2779.5-3679.4c215.8-88.3,333.5-361,243.3-561.1c-86.3-196.2-363-306.1-559.2-223.7c-200.1,84.4-317.8,390.4-223.7,574.8c64.8,125.6,255.1,235.4,412,239.4C2681.4-3648.1,2738.3-3661.8,2779.5-3679.4z"/></g></g>
</svg>
