<svg version="1.1" class="highcharts-root" style="font-family:&quot;Lucida Grande&quot;, &quot;Lucida Sans Unicode&quot;, Arial, Helvetica, sans-serif;font-size:12px;" xmlns="http://www.w3.org/2000/svg" width="1127" height="790" viewBox="0 0 1127 790"><desc>Created with Highcharts 6.2.0</desc><defs><clipPath id="highcharts-0h0n5sd-1"><rect x="0" y="0" width="678" height="1002" fill="none"></rect></clipPath></defs><rect fill="#ffffff" class="highcharts-background" x="0" y="0" width="1127" height="790" rx="0" ry="0"></rect><rect fill="none" class="highcharts-plot-background" x="115" y="55" width="1002" height="678"></rect><g class="highcharts-grid highcharts-xaxis-grid " data-z-index="1"><path fill="none" data-z-index="1" class="highcharts-grid-line" d="M 115 93.5 L 1117 93.5" opacity="1"></path><path fill="none" data-z-index="1" class="highcharts-grid-line" d="M 115 130.5 L 1117 130.5" opacity="1"></path><path fill="none" data-z-index="1" class="highcharts-grid-line" d="M 115 168.5 L 1117 168.5" opacity="1"></path><path fill="none" data-z-index="1" class="highcharts-grid-line" d="M 115 206.5 L 1117 206.5" opacity="1"></path><path fill="none" data-z-index="1" class="highcharts-grid-line" d="M 115 243.5 L 1117 243.5" opacity="1"></path><path fill="none" data-z-index="1" class="highcharts-grid-line" d="M 115 281.5 L 1117 281.5" opacity="1"></path><path fill="none" data-z-index="1" class="highcharts-grid-line" d="M 115 319.5 L 1117 319.5" opacity="1"></path><path fill="none" data-z-index="1" class="highcharts-grid-line" d="M 115 356.5 L 1117 356.5" opacity="1"></path><path fill="none" data-z-index="1" class="highcharts-grid-line" d="M 115 394.5 L 1117 394.5" opacity="1"></path><path fill="none" data-z-index="1" class="highcharts-grid-line" d="M 115 432.5 L 1117 432.5" opacity="1"></path><path fill="none" data-z-index="1" class="highcharts-grid-line" d="M 115 469.5 L 1117 469.5" opacity="1"></path><path fill="none" data-z-index="1" class="highcharts-grid-line" d="M 115 507.5 L 1117 507.5" opacity="1"></path><path fill="none" data-z-index="1" class="highcharts-grid-line" d="M 115 545.5 L 1117 545.5" opacity="1"></path><path fill="none" data-z-index="1" class="highcharts-grid-line" d="M 115 582.5 L 1117 582.5" opacity="1"></path><path fill="none" data-z-index="1" class="highcharts-grid-line" d="M 115 620.5 L 1117 620.5" opacity="1"></path><path fill="none" data-z-index="1" class="highcharts-grid-line" d="M 115 658.5 L 1117 658.5" opacity="1"></path><path fill="none" data-z-index="1" class="highcharts-grid-line" d="M 115 695.5 L 1117 695.5" opacity="1"></path><path fill="none" data-z-index="1" class="highcharts-grid-line" d="M 115 733.5 L 1117 733.5" opacity="1"></path><path fill="none" data-z-index="1" class="highcharts-grid-line" d="M 115 55.5 L 1117 55.5" opacity="1"></path></g><g class="highcharts-grid highcharts-yaxis-grid " data-z-index="1"><path fill="none" stroke="#e6e6e6" stroke-width="1" data-z-index="1" class="highcharts-grid-line" d="M 114.5 55 L 114.5 733" opacity="1"></path><path fill="none" stroke="#e6e6e6" stroke-width="1" data-z-index="1" class="highcharts-grid-line" d="M 186.5 55 L 186.5 733" opacity="1"></path><path fill="none" stroke="#e6e6e6" stroke-width="1" data-z-index="1" class="highcharts-grid-line" d="M 257.5 55 L 257.5 733" opacity="1"></path><path fill="none" stroke="#e6e6e6" stroke-width="1" data-z-index="1" class="highcharts-grid-line" d="M 329.5 55 L 329.5 733" opacity="1"></path><path fill="none" stroke="#e6e6e6" stroke-width="1" data-z-index="1" class="highcharts-grid-line" d="M 400.5 55 L 400.5 733" opacity="1"></path><path fill="none" stroke="#e6e6e6" stroke-width="1" data-z-index="1" class="highcharts-grid-line" d="M 472.5 55 L 472.5 733" opacity="1"></path><path fill="none" stroke="#e6e6e6" stroke-width="1" data-z-index="1" class="highcharts-grid-line" d="M 543.5 55 L 543.5 733" opacity="1"></path><path fill="none" stroke="#e6e6e6" stroke-width="1" data-z-index="1" class="highcharts-grid-line" d="M 615.5 55 L 615.5 733" opacity="1"></path><path fill="none" stroke="#e6e6e6" stroke-width="1" data-z-index="1" class="highcharts-grid-line" d="M 687.5 55 L 687.5 733" opacity="1"></path><path fill="none" stroke="#e6e6e6" stroke-width="1" data-z-index="1" class="highcharts-grid-line" d="M 758.5 55 L 758.5 733" opacity="1"></path><path fill="none" stroke="#e6e6e6" stroke-width="1" data-z-index="1" class="highcharts-grid-line" d="M 830.5 55 L 830.5 733" opacity="1"></path><path fill="none" stroke="#e6e6e6" stroke-width="1" data-z-index="1" class="highcharts-grid-line" d="M 901.5 55 L 901.5 733" opacity="1"></path><path fill="none" stroke="#e6e6e6" stroke-width="1" data-z-index="1" class="highcharts-grid-line" d="M 973.5 55 L 973.5 733" opacity="1"></path><path fill="none" stroke="#e6e6e6" stroke-width="1" data-z-index="1" class="highcharts-grid-line" d="M 1044.5 55 L 1044.5 733" opacity="1"></path><path fill="none" stroke="#e6e6e6" stroke-width="1" data-z-index="1" class="highcharts-grid-line" d="M 1117.5 55 L 1117.5 733" opacity="1"></path></g><g class="highcharts-grid highcharts-yaxis-grid " data-z-index="1"><path fill="none" stroke="#e6e6e6" stroke-width="1" data-z-index="1" class="highcharts-grid-line" d="M 114.5 55 L 114.5 733" opacity="1"></path><path fill="none" stroke="#e6e6e6" stroke-width="1" data-z-index="1" class="highcharts-grid-line" d="M 186.5 55 L 186.5 733" opacity="1"></path><path fill="none" stroke="#e6e6e6" stroke-width="1" data-z-index="1" class="highcharts-grid-line" d="M 257.5 55 L 257.5 733" opacity="1"></path><path fill="none" stroke="#e6e6e6" stroke-width="1" data-z-index="1" class="highcharts-grid-line" d="M 329.5 55 L 329.5 733" opacity="1"></path><path fill="none" stroke="#e6e6e6" stroke-width="1" data-z-index="1" class="highcharts-grid-line" d="M 400.5 55 L 400.5 733" opacity="1"></path><path fill="none" stroke="#e6e6e6" stroke-width="1" data-z-index="1" class="highcharts-grid-line" d="M 472.5 55 L 472.5 733" opacity="1"></path><path fill="none" stroke="#e6e6e6" stroke-width="1" data-z-index="1" class="highcharts-grid-line" d="M 543.5 55 L 543.5 733" opacity="1"></path><path fill="none" stroke="#e6e6e6" stroke-width="1" data-z-index="1" class="highcharts-grid-line" d="M 615.5 55 L 615.5 733" opacity="1"></path><path fill="none" stroke="#e6e6e6" stroke-width="1" data-z-index="1" class="highcharts-grid-line" d="M 687.5 55 L 687.5 733" opacity="1"></path><path fill="none" stroke="#e6e6e6" stroke-width="1" data-z-index="1" class="highcharts-grid-line" d="M 758.5 55 L 758.5 733" opacity="1"></path><path fill="none" stroke="#e6e6e6" stroke-width="1" data-z-index="1" class="highcharts-grid-line" d="M 830.5 55 L 830.5 733" opacity="1"></path><path fill="none" stroke="#e6e6e6" stroke-width="1" data-z-index="1" class="highcharts-grid-line" d="M 901.5 55 L 901.5 733" opacity="1"></path><path fill="none" stroke="#e6e6e6" stroke-width="1" data-z-index="1" class="highcharts-grid-line" d="M 973.5 55 L 973.5 733" opacity="1"></path><path fill="none" stroke="#e6e6e6" stroke-width="1" data-z-index="1" class="highcharts-grid-line" d="M 1044.5 55 L 1044.5 733" opacity="1"></path><path fill="none" stroke="#e6e6e6" stroke-width="1" data-z-index="1" class="highcharts-grid-line" d="M 1117.5 55 L 1117.5 733" opacity="1"></path></g><rect fill="none" class="highcharts-plot-border" data-z-index="1" x="115" y="55" width="1002" height="678"></rect><g class="highcharts-axis highcharts-xaxis " data-z-index="2"><path fill="none" class="highcharts-tick" stroke="#ccd6eb" stroke-width="1" d="M 115 93.5 L 105 93.5" opacity="1"></path><path fill="none" class="highcharts-tick" stroke="#ccd6eb" stroke-width="1" d="M 115 130.5 L 105 130.5" opacity="1"></path><path fill="none" class="highcharts-tick" stroke="#ccd6eb" stroke-width="1" d="M 115 168.5 L 105 168.5" opacity="1"></path><path fill="none" class="highcharts-tick" stroke="#ccd6eb" stroke-width="1" d="M 115 206.5 L 105 206.5" opacity="1"></path><path fill="none" class="highcharts-tick" stroke="#ccd6eb" stroke-width="1" d="M 115 243.5 L 105 243.5" opacity="1"></path><path fill="none" class="highcharts-tick" stroke="#ccd6eb" stroke-width="1" d="M 115 281.5 L 105 281.5" opacity="1"></path><path fill="none" class="highcharts-tick" stroke="#ccd6eb" stroke-width="1" d="M 115 319.5 L 105 319.5" opacity="1"></path><path fill="none" class="highcharts-tick" stroke="#ccd6eb" stroke-width="1" d="M 115 356.5 L 105 356.5" opacity="1"></path><path fill="none" class="highcharts-tick" stroke="#ccd6eb" stroke-width="1" d="M 115 394.5 L 105 394.5" opacity="1"></path><path fill="none" class="highcharts-tick" stroke="#ccd6eb" stroke-width="1" d="M 115 432.5 L 105 432.5" opacity="1"></path><path fill="none" class="highcharts-tick" stroke="#ccd6eb" stroke-width="1" d="M 115 469.5 L 105 469.5" opacity="1"></path><path fill="none" class="highcharts-tick" stroke="#ccd6eb" stroke-width="1" d="M 115 507.5 L 105 507.5" opacity="1"></path><path fill="none" class="highcharts-tick" stroke="#ccd6eb" stroke-width="1" d="M 115 545.5 L 105 545.5" opacity="1"></path><path fill="none" class="highcharts-tick" stroke="#ccd6eb" stroke-width="1" d="M 115 582.5 L 105 582.5" opacity="1"></path><path fill="none" class="highcharts-tick" stroke="#ccd6eb" stroke-width="1" d="M 115 620.5 L 105 620.5" opacity="1"></path><path fill="none" class="highcharts-tick" stroke="#ccd6eb" stroke-width="1" d="M 115 658.5 L 105 658.5" opacity="1"></path><path fill="none" class="highcharts-tick" stroke="#ccd6eb" stroke-width="1" d="M 115 695.5 L 105 695.5" opacity="1"></path><path fill="none" class="highcharts-tick" stroke="#ccd6eb" stroke-width="1" d="M 115 733.5 L 105 733.5" opacity="1"></path><path fill="none" class="highcharts-tick" stroke="#ccd6eb" stroke-width="1" d="M 115 54.5 L 105 54.5" opacity="1"></path><path fill="none" class="highcharts-axis-line" stroke="#ccd6eb" stroke-width="1" data-z-index="7" d="M 114.5 55 L 114.5 733"></path></g><g class="highcharts-axis highcharts-yaxis " data-z-index="2"><text x="115" data-z-index="7" text-anchor="start" transform="translate(0,0)" class="highcharts-axis-title" style="color:#666666;font-weight:bold;font-size:16px;fill:#666666;" y="774"><tspan>Euro per month</tspan></text><path fill="none" class="highcharts-axis-line" data-z-index="7" d="M 115 733 L 1117 733"></path></g><g class="highcharts-axis highcharts-yaxis " data-z-index="2"><text x="115" data-z-index="7" text-anchor="start" transform="translate(0,0)" class="highcharts-axis-title" style="color:#666666;font-weight:bold;font-size:16px;fill:#666666;" y="27"><tspan>Number of broadcasts</tspan></text><path fill="none" class="highcharts-axis-line" data-z-index="7" d="M 115 55 L 1117 55"></path></g><path fill="none" class="highcharts-crosshair highcharts-crosshair-category undefined" data-z-index="2" stroke="rgba(204,214,235,0.25)" stroke-width="37.666666666666664" style="pointer-events:none;" visibility="hidden" d="M 115 74.5 L 1117 74.5"></path><g class="highcharts-series-group" data-z-index="3"><g data-z-index="0.1" class="highcharts-series highcharts-series-0 highcharts-column-series highcharts-color-0 highcharts-tracker" transform="translate(1117,733) rotate(90) scale(-1,1) scale(1 1)" clip-path="url(#highcharts-0h0n5sd-1)"><rect x="659.5" y="793.5" width="10" height="209" fill="rgb(124,181,236)" stroke="#ffffff" stroke-width="1" class="highcharts-point highcharts-color-0 "></rect><rect x="622.5" y="974.5" width="10" height="28" fill="#7cb5ec" stroke="#ffffff" stroke-width="1" class="highcharts-point highcharts-color-0"></rect><rect x="584.5" y="866.5" width="10" height="136" fill="rgb(124,181,236)" stroke="#ffffff" stroke-width="1" class="highcharts-point highcharts-color-0 "></rect><rect x="546.5" y="963.5" width="10" height="39" fill="#7cb5ec" stroke="#ffffff" stroke-width="1" class="highcharts-point highcharts-color-0"></rect><rect x="509.5" y="496.5" width="10" height="506" fill="#7cb5ec" stroke="#ffffff" stroke-width="1" class="highcharts-point highcharts-color-0"></rect><rect x="471.5" y="990.5" width="10" height="12" fill="#7cb5ec" stroke="#ffffff" stroke-width="1" class="highcharts-point highcharts-color-0"></rect><rect x="433.5" y="795.5" width="10" height="207" fill="#7cb5ec" stroke="#ffffff" stroke-width="1" class="highcharts-point highcharts-color-0"></rect><rect x="396.5" y="988.5" width="10" height="14" fill="#7cb5ec" stroke="#ffffff" stroke-width="1" class="highcharts-point highcharts-color-0"></rect><rect x="358.5" y="887.5" width="10" height="115" fill="#7cb5ec" stroke="#ffffff" stroke-width="1" class="highcharts-point highcharts-color-0"></rect><rect x="320.5" y="978.5" width="10" height="24" fill="#7cb5ec" stroke="#ffffff" stroke-width="1" class="highcharts-point highcharts-color-0"></rect><rect x="283.5" y="1000.5" width="10" height="2" fill="#7cb5ec" stroke="#ffffff" stroke-width="1" class="highcharts-point highcharts-color-0"></rect><rect x="245.5" y="973.5" width="10" height="29" fill="#7cb5ec" stroke="#ffffff" stroke-width="1" class="highcharts-point highcharts-color-0"></rect><rect x="207.5" y="992.5" width="10" height="10" fill="#7cb5ec" stroke="#ffffff" stroke-width="1" class="highcharts-point highcharts-color-0"></rect><rect x="170.5" y="992.5" width="10" height="10" fill="#7cb5ec" stroke="#ffffff" stroke-width="1" class="highcharts-point highcharts-color-0"></rect><rect x="132.5" y="990.5" width="10" height="12" fill="#7cb5ec" stroke="#ffffff" stroke-width="1" class="highcharts-point highcharts-color-0"></rect><rect x="94.5" y="913.5" width="10" height="89" fill="#7cb5ec" stroke="#ffffff" stroke-width="1" class="highcharts-point highcharts-color-0"></rect><rect x="57.5" y="239.5" width="10" height="763" fill="#7cb5ec" stroke="#ffffff" stroke-width="1" class="highcharts-point highcharts-color-0"></rect><rect x="19.5" y="875.5" width="10" height="127" fill="#7cb5ec" stroke="#ffffff" stroke-width="1" class="highcharts-point highcharts-color-0"></rect></g><g data-z-index="0.1" class="highcharts-markers highcharts-series-0 highcharts-column-series highcharts-color-0 " transform="translate(1117,733) rotate(90) scale(-1,1) scale(1 1)" clip-path="none"></g><g data-z-index="0.1" class="highcharts-series highcharts-series-1 highcharts-column-series highcharts-color-1 highcharts-tracker " transform="translate(1117,733) rotate(90) scale(-1,1) scale(1 1)" clip-path="url(#highcharts-0h0n5sd-1)"><rect x="648.5" y="680.5" width="10" height="322" fill="rgb(67,67,72)" stroke="#ffffff" stroke-width="1" class="highcharts-point highcharts-color-1 "></rect><rect x="610.5" y="953.5" width="10" height="49" fill="#434348" stroke="#ffffff" stroke-width="1" class="highcharts-point highcharts-color-1"></rect><rect x="573.5" y="838.5" width="10" height="164" fill="rgb(67,67,72)" stroke="#ffffff" stroke-width="1" class="highcharts-point highcharts-color-1 "></rect><rect x="535.5" y="914.5" width="10" height="88" fill="#434348" stroke="#ffffff" stroke-width="1" class="highcharts-point highcharts-color-1"></rect><rect x="497.5" y="515.5" width="10" height="487" fill="#434348" stroke="#ffffff" stroke-width="1" class="highcharts-point highcharts-color-1"></rect><rect x="460.5" y="934.5" width="10" height="68" fill="#434348" stroke="#ffffff" stroke-width="1" class="highcharts-point highcharts-color-1"></rect><rect x="422.5" y="458.5" width="10" height="544" fill="#434348" stroke="#ffffff" stroke-width="1" class="highcharts-point highcharts-color-1"></rect><rect x="384.5" y="948.5" width="10" height="54" fill="#434348" stroke="#ffffff" stroke-width="1" class="highcharts-point highcharts-color-1"></rect><rect x="347.5" y="869.5" width="10" height="133" fill="#434348" stroke="#ffffff" stroke-width="1" class="highcharts-point highcharts-color-1"></rect><rect x="309.5" y="979.5" width="10" height="23" fill="#434348" stroke="#ffffff" stroke-width="1" class="highcharts-point highcharts-color-1"></rect><rect x="271.5" y="993.5" width="10" height="9" fill="#434348" stroke="#ffffff" stroke-width="1" class="highcharts-point highcharts-color-1"></rect><rect x="234.5" y="886.5" width="10" height="116" fill="#434348" stroke="#ffffff" stroke-width="1" class="highcharts-point highcharts-color-1"></rect><rect x="196.5" y="992.5" width="10" height="10" fill="#434348" stroke="#ffffff" stroke-width="1" class="highcharts-point highcharts-color-1"></rect><rect x="158.5" y="982.5" width="10" height="20" fill="#434348" stroke="#ffffff" stroke-width="1" class="highcharts-point highcharts-color-1"></rect><rect x="121.5" y="991.5" width="10" height="11" fill="#434348" stroke="#ffffff" stroke-width="1" class="highcharts-point highcharts-color-1"></rect><rect x="83.5" y="902.5" width="10" height="100" fill="#434348" stroke="#ffffff" stroke-width="1" class="highcharts-point highcharts-color-1"></rect><rect x="45.5" y="199.5" width="10" height="803" fill="#434348" stroke="#ffffff" stroke-width="1" class="highcharts-point highcharts-color-1"></rect><rect x="8.5" y="971.5" width="10" height="31" fill="#434348" stroke="#ffffff" stroke-width="1" class="highcharts-point highcharts-color-1"></rect></g><g data-z-index="0.1" class="highcharts-markers highcharts-series-1 highcharts-column-series highcharts-color-1 " transform="translate(1117,733) rotate(90) scale(-1,1) scale(1 1)" clip-path="none"></g><g data-z-index="0.1" class="highcharts-series highcharts-series-2 highcharts-spline-series highcharts-color-2 " transform="translate(1117,733) rotate(90) scale(-1,1) scale(1 1)" clip-path="url(#highcharts-0h0n5sd-1)"><path fill="none" d="M 659.16666666667 733.6071428571429 C 659.16666666667 733.6071428571429 636.5666666666681 948.3214285714286 621.5 948.3214285714286 C 606.4333333333319 948.3214285714286 598.899999999998 849.9107142857142 583.83333333333 849.9107142857142 C 568.7666666666661 849.9107142857142 561.2333333333339 876.75 546.16666666667 876.75 C 531.100000000002 876.75 523.5666666666681 536.7857142857142 508.5 536.7857142857142 C 493.43333333333203 536.7857142857142 485.899999999998 921.4821428571429 470.83333333333 921.4821428571429 C 455.76666666666597 921.4821428571429 448.23333333333403 554.6785714285714 433.16666666667 554.6785714285714 C 418.100000000002 554.6785714285714 410.56666666666797 930.4285714285714 395.5 930.4285714285714 C 380.43333333333203 930.4285714285714 372.899999999998 849.9107142857142 357.83333333333 849.9107142857142 C 342.76666666666597 849.9107142857142 335.23333333333403 939.3749999999999 320.16666666667 966.2142857142857 C 305.100000000002 993.0535714285714 297.56666666666797 993.0535714285714 282.5 993.0535714285714 C 267.433333333332 993.0535714285714 259.899999999998 876.75 244.83333333333 876.75 C 229.76666666666603 876.75 222.23333333333397 984.1071428571429 207.16666666667 984.1071428571429 C 192.100000000002 984.1071428571429 184.56666666666803 966.2142857142857 169.5 966.2142857142857 C 154.43333333333197 966.2142857142857 146.899999999998 984.1071428571429 131.83333333333 984.1071428571429 C 116.76666666666479 984.1071428571429 109.23333333333221 984.1071428571429 94.166666666667 885.6964285714286 C 79.10000000000021 787.2857142857142 71.5666666666668 268.3928571428571 56.5 268.3928571428571 C 41.4333333333332 268.3928571428571 18.833333333333 966.2142857142857 18.833333333333 966.2142857142857" class="highcharts-graph" data-z-index="1" stroke="#90ed7d" stroke-width="2" stroke-linejoin="round" stroke-linecap="round"></path><path fill="none" d="M 649.16666666667 733.6071428571429 L 659.16666666667 733.6071428571429 C 659.16666666667 733.6071428571429 636.5666666666681 948.3214285714286 621.5 948.3214285714286 C 606.4333333333319 948.3214285714286 598.899999999998 849.9107142857142 583.83333333333 849.9107142857142 C 568.7666666666661 849.9107142857142 561.2333333333339 876.75 546.16666666667 876.75 C 531.100000000002 876.75 523.5666666666681 536.7857142857142 508.5 536.7857142857142 C 493.43333333333203 536.7857142857142 485.899999999998 921.4821428571429 470.83333333333 921.4821428571429 C 455.76666666666597 921.4821428571429 448.23333333333403 554.6785714285714 433.16666666667 554.6785714285714 C 418.100000000002 554.6785714285714 410.56666666666797 930.4285714285714 395.5 930.4285714285714 C 380.43333333333203 930.4285714285714 372.899999999998 849.9107142857142 357.83333333333 849.9107142857142 C 342.76666666666597 849.9107142857142 335.23333333333403 939.3749999999999 320.16666666667 966.2142857142857 C 305.100000000002 993.0535714285714 297.56666666666797 993.0535714285714 282.5 993.0535714285714 C 267.433333333332 993.0535714285714 259.899999999998 876.75 244.83333333333 876.75 C 229.76666666666603 876.75 222.23333333333397 984.1071428571429 207.16666666667 984.1071428571429 C 192.100000000002 984.1071428571429 184.56666666666803 966.2142857142857 169.5 966.2142857142857 C 154.43333333333197 966.2142857142857 146.899999999998 984.1071428571429 131.83333333333 984.1071428571429 C 116.76666666666479 984.1071428571429 109.23333333333221 984.1071428571429 94.166666666667 885.6964285714286 C 79.10000000000021 787.2857142857142 71.5666666666668 268.3928571428571 56.5 268.3928571428571 C 41.4333333333332 268.3928571428571 18.833333333333 966.2142857142857 18.833333333333 966.2142857142857 L 28.833333333333 966.2142857142857" stroke-linejoin="round" stroke="rgba(192,192,192,0.0001)" stroke-width="22" visibility="visible" data-z-index="2" class="highcharts-tracker-line"></path></g><g data-z-index="0.1" class="highcharts-markers highcharts-series-2 highcharts-spline-series highcharts-color-2 highcharts-tracker" transform="translate(1117,733) rotate(90) scale(-1,1) scale(1 1)"><path fill="#90ed7d" visibility="hidden" d="M 659 733.6071428571429 A 0 0 0 1 1 659 733.6071428571429 Z" class="highcharts-halo highcharts-color-2" data-z-index="-1" fill-opacity="0.25"></path><path fill="#90ed7d" d="M 665 733.6071428571429 A 6 6 0 1 1 664.9999970000002 733.6011428581429 Z" stroke="#ffffff" stroke-width="1" visibility="hidden"></path></g></g><g class="highcharts-exporting-group" data-z-index="3"><g class="highcharts-button highcharts-contextbutton" stroke-linecap="round" transform="translate(1093,10)"><title>Chart context menu</title><rect fill="#ffffff" class=" highcharts-button-box" x="0.5" y="0.5" width="24" height="22" rx="2" ry="2" stroke="none" stroke-width="1"></rect><path fill="#666666" d="M 6 6.5 L 20 6.5 M 6 11.5 L 20 11.5 M 6 16.5 L 20 16.5" class="highcharts-button-symbol" data-z-index="1" stroke="#666666" stroke-width="3"></path><text x="0" data-z-index="1" style="font-weight:normal;color:#333333;cursor:pointer;fill:#333333;" y="12"></text></g></g><text x="564" text-anchor="middle" class="highcharts-title" data-z-index="4" style="color:#333333;font-size:18px;fill:#333333;" y="24"></text><text x="564" text-anchor="middle" class="highcharts-subtitle" data-z-index="4" style="color:#666666;fill:#666666;" y="24"></text><g class="highcharts-legend" data-z-index="7" transform="translate(950,366)"><rect fill="none" class="highcharts-legend-box" rx="0" ry="0" x="0" y="0" width="166" height="53" visibility="visible"></rect><g data-z-index="1"><g><g class="highcharts-legend-item highcharts-column-series highcharts-color-0 highcharts-series-0" data-z-index="1" transform="translate(8,3)"><text x="21" style="color:#333333;font-size:12px;font-weight:bold;cursor:pointer;fill:#333333;" text-anchor="start" data-z-index="2" y="15"><tspan>Actual amount</tspan></text><rect x="2" y="4" width="12" height="12" fill="#7cb5ec" rx="6" ry="6" class="highcharts-point" data-z-index="3"></rect></g><g class="highcharts-legend-item highcharts-column-series highcharts-color-1 highcharts-series-1" data-z-index="1" transform="translate(8,17)"><text x="21" y="15" style="color:#333333;font-size:12px;font-weight:bold;cursor:pointer;fill:#333333;" text-anchor="start" data-z-index="2"><tspan>Expected amount</tspan></text><rect x="2" y="4" width="12" height="12" fill="#434348" rx="6" ry="6" class="highcharts-point" data-z-index="3"></rect></g><g class="highcharts-legend-item highcharts-spline-series highcharts-color-2 highcharts-series-2" data-z-index="1" transform="translate(8,31)"><path fill="none" d="M 0 11 L 16 11" class="highcharts-graph" stroke="#90ed7d" stroke-width="2"></path><text x="21" y="15" style="color:#333333;font-size:12px;font-weight:bold;cursor:pointer;fill:#333333;" text-anchor="start" data-z-index="2"><tspan>Number of broadcasts</tspan></text></g></g></g></g><g class="highcharts-axis-labels highcharts-xaxis-labels " data-z-index="7"><text x="100" style="color:#666666;cursor:default;font-size:11px;fill:#666666;" text-anchor="end" transform="translate(0,0)" y="79" opacity="1">3sat</text><text x="100" style="color:#666666;cursor:default;font-size:11px;fill:#666666;" text-anchor="end" transform="translate(0,0)" y="116" opacity="1">ARD-alpha</text><text x="100" style="color:#666666;cursor:default;font-size:11px;fill:#666666;" text-anchor="end" transform="translate(0,0)" y="154" opacity="1">Arte</text><text x="100" style="color:#666666;cursor:default;font-size:11px;fill:#666666;" text-anchor="end" transform="translate(0,0)" y="192" opacity="1"><tspan>BR Fernsehen</tspan></text><text x="100" style="color:#666666;cursor:default;font-size:11px;fill:#666666;" text-anchor="end" transform="translate(0,0)" y="229" opacity="1"><tspan>Das Erste</tspan></text><text x="100" style="color:#666666;cursor:default;font-size:11px;fill:#666666;" text-anchor="end" transform="translate(0,0)" y="267" opacity="1">hr-fernsehen</text><text x="100" style="color:#666666;cursor:default;font-size:11px;fill:#666666;" text-anchor="end" transform="translate(0,0)" y="305" opacity="1">KiKA</text><text x="100" style="color:#666666;cursor:default;font-size:11px;fill:#666666;" text-anchor="end" transform="translate(0,0)" y="342" opacity="1"><tspan>MDR Fernsehen</tspan></text><text x="100" style="color:#666666;cursor:default;font-size:11px;fill:#666666;" text-anchor="end" transform="translate(0,0)" y="380" opacity="1"><tspan>NDR Fernsehen</tspan></text><text x="100" style="color:#666666;cursor:default;font-size:11px;fill:#666666;" text-anchor="end" transform="translate(0,0)" y="418" opacity="1">Phoenix</text><text x="100" style="color:#666666;cursor:default;font-size:11px;fill:#666666;" text-anchor="end" transform="translate(0,0)" y="455" opacity="1"><tspan>Radio Bremen TV</tspan></text><text x="100" style="color:#666666;cursor:default;font-size:11px;fill:#666666;" text-anchor="end" transform="translate(0,0)" y="493" opacity="1"><tspan>rbb Fernsehen</tspan></text><text x="100" style="color:#666666;cursor:default;font-size:11px;fill:#666666;" text-anchor="end" transform="translate(0,0)" y="531" opacity="1"><tspan>SR Fernsehen</tspan></text><text x="100" style="color:#666666;cursor:default;font-size:11px;fill:#666666;" text-anchor="end" transform="translate(0,0)" y="568" opacity="1"><tspan>SWR Fernsehen</tspan></text><text x="100" style="color:#666666;cursor:default;font-size:11px;fill:#666666;" text-anchor="end" transform="translate(0,0)" y="606" opacity="1">tagesschau24</text><text x="100" style="color:#666666;cursor:default;font-size:11px;fill:#666666;" text-anchor="end" transform="translate(0,0)" y="644" opacity="1"><tspan>WDR Fernsehen</tspan></text><text x="100" style="color:#666666;cursor:default;font-size:11px;fill:#666666;" text-anchor="end" transform="translate(0,0)" y="681" opacity="1">ZDF</text><text x="100" style="color:#666666;cursor:default;font-size:11px;fill:#666666;" text-anchor="end" transform="translate(0,0)" y="719" opacity="1">ZDFneo</text></g><g class="highcharts-axis-labels highcharts-yaxis-labels " data-z-index="7"><text x="115" style="color:#666666;cursor:default;font-size:11px;fill:#666666;" text-anchor="middle" transform="translate(0,0)" y="752" opacity="1">0</text><text x="329.71428571429" style="color:#666666;cursor:default;font-size:11px;fill:#666666;" text-anchor="middle" transform="translate(0,0)" y="752" opacity="1">600</text><text x="544.42857142857" style="color:#666666;cursor:default;font-size:11px;fill:#666666;" text-anchor="middle" transform="translate(0,0)" y="752" opacity="1">1200</text><text x="759.14285714286" style="color:#666666;cursor:default;font-size:11px;fill:#666666;" text-anchor="middle" transform="translate(0,0)" y="752" opacity="1">1800</text><text x="973.85714285714" style="color:#666666;cursor:default;font-size:11px;fill:#666666;" text-anchor="middle" transform="translate(0,0)" y="752" opacity="1">2400</text><text x="186.57142857143" style="color:#666666;cursor:default;font-size:11px;fill:#666666;" text-anchor="middle" transform="translate(0,0)" y="752" opacity="1">200</text><text x="258.14285714286" style="color:#666666;cursor:default;font-size:11px;fill:#666666;" text-anchor="middle" transform="translate(0,0)" y="752" opacity="1">400</text><text x="401.28571428571" style="color:#666666;cursor:default;font-size:11px;fill:#666666;" text-anchor="middle" transform="translate(0,0)" y="752" opacity="1">800</text><text x="472.85714285714" style="color:#666666;cursor:default;font-size:11px;fill:#666666;" text-anchor="middle" transform="translate(0,0)" y="752" opacity="1">1000</text><text x="616" style="color:#666666;cursor:default;font-size:11px;fill:#666666;" text-anchor="middle" transform="translate(0,0)" y="752" opacity="1">1400</text><text x="687.57142857143" style="color:#666666;cursor:default;font-size:11px;fill:#666666;" text-anchor="middle" transform="translate(0,0)" y="752" opacity="1">1600</text><text x="830.71428571429" style="color:#666666;cursor:default;font-size:11px;fill:#666666;" text-anchor="middle" transform="translate(0,0)" y="752" opacity="1">2000</text><text x="902.28571428571" style="color:#666666;cursor:default;font-size:11px;fill:#666666;" text-anchor="middle" transform="translate(0,0)" y="752" opacity="1">2200</text><text x="1045.4285714286" style="color:#666666;cursor:default;font-size:11px;fill:#666666;" text-anchor="middle" transform="translate(0,0)" y="752" opacity="1">2600</text><text x="1103.828125" style="color:#666666;cursor:default;font-size:11px;fill:#666666;" text-anchor="middle" transform="translate(0,0)" y="752" opacity="1">2800</text></g><g class="highcharts-axis-labels highcharts-yaxis-labels " data-z-index="7"><text x="115" style="color:#666666;cursor:default;font-size:11px;fill:#666666;" text-anchor="middle" transform="translate(0,0)" y="43" opacity="1">0</text><text x="329.71428571429" style="color:#666666;cursor:default;font-size:11px;fill:#666666;" text-anchor="middle" transform="translate(0,0)" y="43" opacity="1">24</text><text x="544.42857142857" style="color:#666666;cursor:default;font-size:11px;fill:#666666;" text-anchor="middle" transform="translate(0,0)" y="43" opacity="1">48</text><text x="759.14285714286" style="color:#666666;cursor:default;font-size:11px;fill:#666666;" text-anchor="middle" transform="translate(0,0)" y="43" opacity="1">72</text><text x="973.85714285714" style="color:#666666;cursor:default;font-size:11px;fill:#666666;" text-anchor="middle" transform="translate(0,0)" y="43" opacity="1">96</text><text x="186.57142857143" style="color:#666666;cursor:default;font-size:11px;fill:#666666;" text-anchor="middle" transform="translate(0,0)" y="43" opacity="1">8</text><text x="258.14285714286" style="color:#666666;cursor:default;font-size:11px;fill:#666666;" text-anchor="middle" transform="translate(0,0)" y="43" opacity="1">16</text><text x="401.28571428571" style="color:#666666;cursor:default;font-size:11px;fill:#666666;" text-anchor="middle" transform="translate(0,0)" y="43" opacity="1">32</text><text x="472.85714285714" style="color:#666666;cursor:default;font-size:11px;fill:#666666;" text-anchor="middle" transform="translate(0,0)" y="43" opacity="1">40</text><text x="616" style="color:#666666;cursor:default;font-size:11px;fill:#666666;" text-anchor="middle" transform="translate(0,0)" y="43" opacity="1">56</text><text x="687.57142857143" style="color:#666666;cursor:default;font-size:11px;fill:#666666;" text-anchor="middle" transform="translate(0,0)" y="43" opacity="1">64</text><text x="830.71428571429" style="color:#666666;cursor:default;font-size:11px;fill:#666666;" text-anchor="middle" transform="translate(0,0)" y="43" opacity="1">80</text><text x="902.28571428571" style="color:#666666;cursor:default;font-size:11px;fill:#666666;" text-anchor="middle" transform="translate(0,0)" y="43" opacity="1">88</text><text x="1045.4285714286" style="color:#666666;cursor:default;font-size:11px;fill:#666666;" text-anchor="middle" transform="translate(0,0)" y="43" opacity="1">104</text><text x="1106.8828125" style="color:#666666;cursor:default;font-size:11px;fill:#666666;" text-anchor="middle" transform="translate(0,0)" y="43" opacity="1">112</text></g><g class="highcharts-label highcharts-tooltip highcharts-color-0" style="pointer-events:none;white-space:nowrap;" data-z-index="8" transform="translate(330,-9999)" opacity="0" visibility="visible"><path fill="none" class="highcharts-label-box highcharts-tooltip-box highcharts-shadow" d="M 3.5 0.5 L 169.5 0.5 C 172.5 0.5 172.5 0.5 172.5 3.5 L 172.5 70.5 C 172.5 73.5 172.5 73.5 169.5 73.5 L 3.5 73.5 C 0.5 73.5 0.5 73.5 0.5 70.5 L 0.5 3.5 C 0.5 0.5 0.5 0.5 3.5 0.5" stroke="#000000" stroke-opacity="0.049999999999999996" stroke-width="5" transform="translate(1, 1)"></path><path fill="none" class="highcharts-label-box highcharts-tooltip-box highcharts-shadow" d="M 3.5 0.5 L 169.5 0.5 C 172.5 0.5 172.5 0.5 172.5 3.5 L 172.5 70.5 C 172.5 73.5 172.5 73.5 169.5 73.5 L 3.5 73.5 C 0.5 73.5 0.5 73.5 0.5 70.5 L 0.5 3.5 C 0.5 0.5 0.5 0.5 3.5 0.5" stroke="#000000" stroke-opacity="0.09999999999999999" stroke-width="3" transform="translate(1, 1)"></path><path fill="none" class="highcharts-label-box highcharts-tooltip-box highcharts-shadow" d="M 3.5 0.5 L 169.5 0.5 C 172.5 0.5 172.5 0.5 172.5 3.5 L 172.5 70.5 C 172.5 73.5 172.5 73.5 169.5 73.5 L 3.5 73.5 C 0.5 73.5 0.5 73.5 0.5 70.5 L 0.5 3.5 C 0.5 0.5 0.5 0.5 3.5 0.5" stroke="#000000" stroke-opacity="0.15" stroke-width="1" transform="translate(1, 1)"></path><path fill="rgba(247,247,247,0.85)" class="highcharts-label-box highcharts-tooltip-box" d="M 3.5 0.5 L 169.5 0.5 C 172.5 0.5 172.5 0.5 172.5 3.5 L 172.5 70.5 C 172.5 73.5 172.5 73.5 169.5 73.5 L 3.5 73.5 C 0.5 73.5 0.5 73.5 0.5 70.5 L 0.5 3.5 C 0.5 0.5 0.5 0.5 3.5 0.5" stroke="#7cb5ec" stroke-width="1"></path><text x="8" data-z-index="1" style="font-size:12px;color:#333333;cursor:default;fill:#333333;" y="20"><tspan style="font-size: 10px">3sat</tspan><tspan style="fill:#7cb5ec" x="8" dy="15">●</tspan><tspan dx="0"> Actual amount: </tspan><tspan style="font-weight:bold" dx="0">583.94€</tspan><tspan style="fill:#434348" x="8" dy="15">●</tspan><tspan dx="0"> Expected amount: </tspan><tspan style="font-weight:bold" dx="0">898.64€</tspan><tspan style="fill:#90ed7d" x="8" dy="15">●</tspan><tspan dx="0"> Number of broadcasts: </tspan><tspan style="font-weight:bold" dx="0">30</tspan></text></g></svg>