<?xml version="1.0" encoding="UTF-8" standalone="no"?>
<svg
   xmlns:dc="http://purl.org/dc/elements/1.1/"
   xmlns:cc="http://creativecommons.org/ns#"
   xmlns:rdf="http://www.w3.org/1999/02/22-rdf-syntax-ns#"
   xmlns:svg="http://www.w3.org/2000/svg"
   xmlns="http://www.w3.org/2000/svg"
   xmlns:sodipodi="http://sodipodi.sourceforge.net/DTD/sodipodi-0.dtd"
   xmlns:inkscape="http://www.inkscape.org/namespaces/inkscape"
   pointer-events="none"
   class="leaflet-zoom-animated"
   width="431.60751"
   height="459.87543"
   viewBox="-56 -60 431.60751 459.87543"
   version="1.1"
   id="svg36"
   sodipodi:docname="geo.svg"
   inkscape:version="0.92.2 2405546, 2018-03-11">
  <metadata
     id="metadata42">
    <rdf:RDF>
      <cc:Work
         rdf:about="">
        <dc:format>image/svg+xml</dc:format>
        <dc:type
           rdf:resource="http://purl.org/dc/dcmitype/StillImage" />
        <dc:title></dc:title>
      </cc:Work>
    </rdf:RDF>
  </metadata>
  <defs
     id="defs40" />
  <sodipodi:namedview
     pagecolor="#ffffff"
     bordercolor="#666666"
     borderopacity="1"
     objecttolerance="10"
     gridtolerance="10"
     guidetolerance="10"
     inkscape:pageopacity="0"
     inkscape:pageshadow="2"
     inkscape:window-width="1920"
     inkscape:window-height="1030"
     id="namedview38"
     showgrid="false"
     inkscape:zoom="0.92709556"
     inkscape:cx="-87.56394"
     inkscape:cy="332.19839"
     inkscape:window-x="0"
     inkscape:window-y="2184"
     inkscape:window-maximized="0"
     inkscape:current-layer="g34"
     fit-margin-top="0"
     fit-margin-left="0"
     fit-margin-right="0"
     fit-margin-bottom="0" />
  <g
     id="g34"
     transform="translate(-209.82695,-201.75285)">
    <g
       id="g60"
       transform="matrix(1.0300897,0,0,0.80822588,58.028545,130.43266)">
      <path
         id="path2"
         d="m 266,409 1,7 2,-3 1,3 3,-3 2,2 2,7 -3,3 2,1 3,-3 v 7 h 4 l 2,-4 1,2 h 2 l -1,5 3,3 -3,1 v 3 l 2,1 1,3 -2,2 v 4 l 6,4 -2,3 h 2 v 4 l 5,1 4,6 v 9 l -2,2 4,6 -4,2 2,-3 h -2 l -3,3 v -2 l -3,-1 -1,2 3,4 v 6 l -4,1 -3,3 -6,1 v 2 l -3,3 8,19 -3,10 v 6 l 2,4 -3,2 2,1 1,6 h -2 l -1,3 -2,-4 -3,3 -5,-2 -4,5 -9,1 -3,-4 -8,-2 -12,-10 6,6 2,5 -3,1 -8,-7 1,2 h -3 l 3,2 -5,3 -2,-2 1,-2 -3,-2 -2,1 1,3 -3,-1 v -5 l -3,-3 -1,3 -3,-3 v 2 l -4,1 -4,6 4,2 5,-2 2,2 h -2 v 3 l -3,-2 -3,2 2,1 -8,1 -2,-3 h -4 l -5,4 -6,1 -3,-3 h -3 l -7,4 -2,-2 3,-1 h -4 l -4,-6 2,-15 3,-6 -3,-4 1,-6 7,-14 3,-18 8,-12 5,-3 5,-10 5,-4 3,-6 1,-10 4,-4 -1,-3 2,-1 v -3 h -2 l 2,-3 -3,-1 v -9 l 7,4 2,-2 -2,-4 5,-1 -1,3 2,4 8,1 -1,3 -2,-1 -1,4 2,1 5,-3 v -4 l 8,-1 -2,-1 1,-3 h 6 l 3,-5 5,1 v -5 h -3 l 1,-1 -3,-1 v -2 l 9,-1 3,3 v -3 z m -43,143 1,1 h -3 z"
         class="leaflet-interactive"
         inkscape:connector-curvature="0"
         style="fill:#fc8d59;fill-opacity:1;fill-rule:evenodd;stroke:#ffffff;stroke-width:2;stroke-linecap:round;stroke-linejoin:round;stroke-dasharray:5;stroke-opacity:1" />
      <path
         id="path4"
         d="m 288,354 h 3 l 2,3 4,1 4,5 -1,3 3,-1 2,4 5,1 v 8 l 5,1 1,-3 h 5 l -6,-5 v -3 l 5,-2 h 5 l 3,3 5,-1 2,2 -1,3 5,2 v -15 l 3,-1 1,-3 4,1 1,7 2,-1 1,4 12,-4 2,3 5,-3 2,5 7,3 v 3 l -2,1 5,5 v 6 l 13,9 v 3 l 3,1 -3,9 -4,3 2,3 4,2 3,10 3,1 v 7 l 5,2 1,3 h 8 l 3,3 v 3 l 7,7 v 2 l 5,1 5,5 1,6 3,2 1,-2 h 3 l 4,6 h 4 l 4,7 -3,4 2,9 -4,4 -10,-4 -4,2 1,3 -2,10 -5,4 -9,2 -10,5 -6,6 12,18 -4,9 h 4 l 3,2 1,4 -2,3 v 7 l -4,1 -8,-7 2,-3 -3,-2 1,-2 h -8 l -2,3 h -3 l -3,-4 -8,1 v -4 l -4,3 2,6 -9,-1 -7,3 -10,-1 -3,5 h -6 l -3,3 2,2 -4,-1 -3,4 h -2 l 1,-2 -12,2 -3,-5 h -3 l 3,-3 h -7 l -8,-4 -1,3 -6,-4 v 6 l 2,5 -7,8 -7,3 2,-9 -6,3 v -7 l -4,-2 -1,-4 -5,1 -2,-1 -1,-3 -3,3 -5,-2 2,-2 h 4 l 4,-5 5,2 3,-3 2,4 1,-3 h 2 l -1,-6 -2,-1 3,-2 -2,-4 v -6 l 3,-10 -8,-19 3,-3 v -2 l 6,-1 7,-4 -3,-10 1,-2 3,1 v 2 l 3,-3 h 2 l -2,3 4,-2 -4,-6 2,-2 v -9 l -4,-6 -5,-1 v -4 h -2 l 2,-3 -6,-4 2,-6 -1,-3 -2,-1 v -3 l 3,-1 -3,-3 1,-5 h -2 l -1,-2 -2,4 -3,1 -1,-8 -3,3 -2,-1 3,-4 -4,-8 -3,3 -1,-3 -2,3 -2,-1 1,-6 h -3 v 3 l -3,-3 h -6 l -3,3 3,1 v 2 l 1,-2 1,6 -5,-1 -4,5 h -5 l -2,-2 2,-2 -1,-4 3,-3 -2,-1 1,-3 h -2 v -3 l -2,-1 v -13 l -3,-1 2,-4 5,-1 1,2 3,-4 7,1 2,4 4,-1 1,-5 -2,-6 8,1 -1,-3 4,-3 1,-7 h 9 l 6,-9 z"
         class="leaflet-interactive"
         inkscape:connector-curvature="0"
         style="fill:#f26d4b;fill-opacity:1;fill-rule:evenodd;stroke:#ffffff;stroke-width:2;stroke-linecap:round;stroke-linejoin:round;stroke-dasharray:5;stroke-opacity:1" />
      <path
         id="path6"
         d="m 426,205 2,1 1,-4 2,1 1,-3 3,3 5,-2 -1,-1 2,-1 2,2 -1,4 7,5 -2,4 7,2 -5,8 -1,-3 -7,-1 -1,-2 -2,1 v 2 l -8,-3 -5,2 -2,-2 4,-7 -3,-1 z"
         class="leaflet-interactive"
         inkscape:connector-curvature="0"
         style="fill:#f26d4b;fill-opacity:1;fill-rule:evenodd;stroke:#ffffff;stroke-width:2;stroke-linecap:round;stroke-linejoin:round;stroke-dasharray:5;stroke-opacity:1" />
      <path
         id="path8"
         d="m 236,164 -2,1 2,2 -2,6 -3,-2 h -7 l -4,-9 -7,-5 5,1 v 2 l 11,2 1,2 4,-2 z"
         class="leaflet-interactive"
         inkscape:connector-curvature="0"
         style="fill:#feebcf;fill-opacity:1;fill-rule:evenodd;stroke:#ffffff;stroke-width:2;stroke-linecap:round;stroke-linejoin:round;stroke-dasharray:5;stroke-opacity:1" />
      <path
         id="path10"
         d="m 285,119 6,-1 -2,4 3,4 -3,6 8,8 -4,3 h -3 l -5,-5 -3,4 h -4 v -3 l -2,2 -5,-6 v -10 l 3,4 4,-5 7,-2 z"
         class="leaflet-interactive"
         inkscape:connector-curvature="0"
         style="fill:#fc8d59;fill-opacity:1;fill-rule:evenodd;stroke:#ffffff;stroke-width:2;stroke-linecap:round;stroke-linejoin:round;stroke-dasharray:5;stroke-opacity:1" />
      <path
         style="fill:#ff7f2a;fill-opacity:1;fill-rule:evenodd;stroke:#ffffff;stroke-width:2;stroke-linecap:round;stroke-linejoin:round;stroke-dasharray:5;stroke-opacity:1"
         id="path12"
         d="m 397,60 6,3 14,1 -7,2 -8,-1 -3,1 1,2 h -7 l -3,9 4,1 -2,-2 5,-5 1,-3 2,2 4,-3 -1,-1 h 3 l -1,1 2,2 2,-2 1,4 10,-8 v 4 l 3,2 v 7 l 9,3 2,5 -1,1 5,-1 -2,3 1,-2 2,6 h 2 v -3 l 9,-4 5,6 -2,5 7,9 -4,4 5,-3 -1,-7 h 3 l -1,5 1,-3 3,2 v -4 l -3,-5 h -3 l 1,2 -3,3 1,-4 -5,2 2,-6 -3,-5 2,-1 3,6 7,3 9,10 v 5 l -8,-1 -6,3 -5,-1 11,8 11,1 -3,3 h 3 v 5 l 2,1 -1,6 3,6 2,10 -4,1 -3,5 -7,-1 6,-8 v -4 h -15 l -1,-6 -3,-1 -1,-3 -1,3 2,1 -5,2 -4,5 -3,1 -1,6 -4,2 -2,4 -5,-3 -3,5 -2,-3 -3,1 -6,6 -2,-1 2,-2 -10,1 v -3 h -4 v -2 h -10 l -3,-4 -6,-1 -1,-3 -3,2 -5,-3 -5,8 -3,-1 -1,3 -3,-1 2,2 -4,1 -5,-2 -4,3 1,3 -2,3 -6,-1 -1,2 -9,-2 1,-4 -6,-3 -4,-8 -3,-2 -4,4 -6,-6 -5,1 2,-7 9,-4 v -5 h 4 l 1,-8 -8,-5 -1,-7 1,-3 5,-4 1,2 3,-1 -3,-1 v -2 l 13,-5 3,3 v 4 l 4,-2 5,4 2,-5 -2,1 v -3 l -1,3 -2,-1 v -2 l 5,-2 -1,4 2,-5 h 3 l 2,-4 -1,-1 -3,4 v -2 l 7,-6 h 7 l 11,-3 v 3 h 2 l 1,-2 h -3 l 12,-10 z m 41,-16 -2,4 2,5 12,1 -5,8 1,4 h 3 l 5,5 -3,2 1,3 -4,-1 3,-3 -5,1 4,-3 -3,2 -2,-2 -6,2 -2,5 h -2 l 3,1 -1,2 -5,-2 1,1 1,-3 -3,2 -3,-1 -1,-2 -2,1 2,-2 -3,-2 v -3 l 7,-1 -3,-4 h -3 l 6,-4 h -2 v -2 h -3 l -1,-3 h 5 l 3,3 -1,-3 3,-3 -1,3 2,-1 1,5 5,1 -1,-5 -4,-2 -2,-3 -5,4 2,-7 -6,7 4,-8 z m -11,15 2,2 -5,2 z m -2,-9 1,2 h -2 l -2,10 1,-10 z"
         class="leaflet-interactive"
         inkscape:connector-curvature="0" />
      <path
         id="path14"
         d="m 222,106 4,4 5,1 6,-1 4,-3 9,1 10,13 2,6 10,4 -1,4 5,6 2,-3 v 4 h 3 l 4,-4 5,5 7,-3 11,6 6,-1 6,6 5,-4 6,10 6,3 -1,4 h 4 l 3,6 6,-2 6,4 -2,3 -2,-1 v 5 l -9,5 -15,-3 -2,4 h -8 l 1,10 h 2 l 4,9 3,-1 -2,4 3,5 h -3 v 3 l 6,6 -4,3 5,8 -3,2 2,3 -1,2 -5,2 1,4 h -12 l -6,3 4,4 -2,1 2,3 -4,4 v 5 l 3,2 3,8 -3,2 1,4 -2,-1 -4,2 -7,-3 -1,5 -5,4 -2,-1 -2,3 h -4 l -5,4 -4,-2 v 3 l -2,-3 -5,3 1,4 2,-2 -2,3 -8,-3 1,-4 3,-2 v -3 l -3,-4 5,-4 -3,-4 -11,-1 v -8 l 3,-3 -1,-3 2,-1 h -6 l 1,-3 -4,-3 v -3 l -4,-1 v -6 l -2,-2 1,-2 -6,-1 -2,-5 3,1 -1,-3 h 2 l -5,-4 7,-9 -1,-3 2,-3 -4,-1 -5,7 -4,1 h -7 v -9 l -2,-2 -7,2 -3,4 h -6 v 4 l 6,3 2,3 -2,8 4,2 -6,6 -6,-2 -3,4 -7,1 -3,2 -4,-3 6,-3 v -4 l -5,-2 2,-6 -1,-2 h 3 l -3,-4 -10,-3 -1,-4 -4,-1 -1,7 -13,8 -10,2 -2,-4 2,-7 -3,-6 -3,2 -10,-3 -2,-5 4,-1 -2,-2 1,-4 14,1 2,-16 7,-12 -1,-9 3,-3 -1,-6 h -3 l 2,-7 h -10 l -1,-2 2,-11 -1,-2 h 5 l -2,-4 3,-4 7,-4 10,1 22,-3 1,5 h 3 l 3,7 -1,3 -4,1 v 3 l 9,5 2,-5 v -5 l -3,1 1,-7 12,4 v 4 l 2,-1 -4,-14 3,-11 z m -7,53 5,3 4,9 2,-1 2,2 3,-1 3,2 2,-3 -2,-5 2,-1 -2,-2 -4,2 -1,-2 -11,-2 v -2 l -5,-1 z m -1,-56 1,1 h -2 z m -22,11 v 3 l -1,-2 z m -6,0 4,1 -6,-1 z m -8,1 h 4 l -6,1 z m -6,1 2,1 -7,2 1,-2 z m -8,2 1,1 h -3 z m -4,1 -8,1 z m -12,3 h 2 l -11,2 z m -7,2 v 2 l -2,-1 z m -6,3 2,1 -4,2 1,2 -5,-3 z"
         class="leaflet-interactive"
         inkscape:connector-curvature="0"
         style="fill:#fc8d59;fill-opacity:1;fill-rule:evenodd;stroke:#ffffff;stroke-width:2;stroke-linecap:round;stroke-linejoin:round;stroke-dasharray:5;stroke-opacity:1" />
      <path
         id="path16"
         d="m 221,210 2,1 v 9 l 11,-1 5,-7 4,1 -2,9 -3,1 -3,5 5,4 h -2 l 1,3 -3,-1 2,5 6,1 -1,2 2,2 v 6 l 4,1 v 3 l 4,3 -1,3 h 6 l -2,1 1,3 -3,4 v 7 h 3 l -5,2 2,2 -7,10 -5,1 v -4 l -3,-2 -6,3 2,7 -12,1 -3,3 -3,4 1,2 7,-2 2,5 -4,5 2,2 -9,1 v 6 l -4,4 1,3 -5,4 -4,-1 -7,6 2,4 -1,3 h -5 l -3,-6 v -5 l -6,-2 v -4 l -2,-1 -3,2 1,5 -4,2 v 4 l -13,4 -2,5 h -6 l -3,3 h -4 l -6,3 1,2 h -3 l 1,5 -2,1 -2,-3 -3,1 3,9 -5,1 -1,-2 -2,2 -1,-4 -7,4 v -2 l -3,-2 v 5 l -2,-4 1,-5 -2,-4 h -5 l -2,-4 5,-4 -5,-1 -3,-6 -4,-1 v -4 l -3,-1 3,-2 v -2 h 2 l 1,-5 -3,-1 v -4 l -5,1 -2,-6 5,2 2,-5 7,-4 -1,-2 2,-1 -5,1 v -5 l 7,-9 -1,-11 -6,-6 1,-4 -3,-1 v -3 l -4,-2 2,-2 -1,-5 4,-2 5,1 -3,-3 2,-1 12,6 -1,-4 4,2 10,-5 2,1 4,-7 -6,-3 v -3 h 2 l 1,-3 5,-1 5,-7 8,-3 h 6 l 13,-8 1,-7 4,1 1,4 10,3 3,4 h -3 l 1,2 -2,6 5,3 v 3 l -6,3 1,2 13,-2 3,-4 6,2 6,-6 -4,-2 2,-8 -2,-3 -6,-3 v -4 h 6 l 3,-4 z"
         class="leaflet-interactive"
         inkscape:connector-curvature="0"
         style="fill:#c91d13;fill-opacity:1;fill-rule:evenodd;stroke:#ffffff;stroke-width:2;stroke-linecap:round;stroke-linejoin:round;stroke-dasharray:5;stroke-opacity:1" />
      <path
         id="path18"
         d="m 147,419 8,5 3,-2 v 4 h 2 v 4 l -3,3 2,3 5,1 -1,6 -4,4 3,7 -7,2 -5,-3 -2,3 -1,-5 -5,-3 -4,1 v 4 l -4,-1 -8,-13 1,-1 -3,-5 -8,-2 1,-6 11,2 15,-8 z"
         class="leaflet-interactive"
         inkscape:connector-curvature="0"
         style="fill:#fddcaf;fill-opacity:1;fill-rule:evenodd;stroke:#ffffff;stroke-width:2;stroke-linecap:round;stroke-linejoin:round;stroke-dasharray:5;stroke-opacity:1" />
      <path
         style="fill:#a02c2c;fill-opacity:1;fill-rule:evenodd;stroke:#ffffff;stroke-width:2;stroke-linecap:round;stroke-linejoin:round;stroke-dasharray:5;stroke-opacity:1"
         id="path20"
         d="m 331,56 7,2 4,8 h -9 l -1,-3 h -4 v -4 z m -121,-40 1,2 -4,4 1,5 3,2 17,-3 19,5 2,4 6,-3 1,4 9,-7 -1,4 9,2 2,4 3,-1 v -3 l 6,10 -3,-2 -2,2 v 4 l -7,3 -3,4 10,-7 1,-4 h 4 l -1,10 -8,6 1,2 12,-3 3,2 v 5 l -3,6 2,-1 2,-7 5,-1 13,5 4,5 4,-1 6,-5 9,-1 -3,3 2,12 -10,9 -3,-1 -3,4 2,4 4,1 1,4 3,1 -3,1 -1,-2 -5,4 -1,3 1,7 8,5 -1,8 h -4 v 5 l -9,4 -1,5 -2,2 -11,-6 -7,-7 -1,-4 h 3 v -3 l -3,-4 2,-4 -1,-1 -4,1 -1,4 -3,-1 v 3 h -4 l -4,5 -3,-4 -1,6 -8,-4 -2,-6 -10,-13 -16,-3 -6,-9 7,-1 1,-2 -3,-6 -3,1 -2,-4 1,-6 3,-1 2,-4 -4,4 -1,-2 1,2 -1,-2 -9,1 -3,-2 2,-4 h 3 l -3,-2 12,-2 7,-5 -2,-4 -4,5 -4,-1 4,-10 h -4 l 1,-4 -7,-6 1,-4 -5,-9 -8,3 -5,-2 v 11 l -1,-1 1,-13 z m 59,41 -8,1 2,3 2,-3 4,1 -1,-2 z m -59,-42 2,1 z m 13,39 -1,5 -4,-1 z m -7,-15 2,2 -1,4 -8,-3 1,-2 z m 0,13 1,2 -3,-1 z m -3,8 2,4 -3,1 v -3 z m 0,-5 v 4 z m 0,-3 1,2 h -2 z m -6,-10 2,8 -5,-4 z"
         class="leaflet-interactive"
         inkscape:connector-curvature="0" />
      <path
         id="path22"
         d="m 459,136 1,6 h 15 v 4 l -6,8 7,1 3,-5 4,-1 2,5 -4,6 v 8 l -10,9 -1,9 10,6 5,8 8,6 -2,3 2,3 -5,7 3,7 -1,1 6,4 -1,9 3,3 -3,13 -4,5 7,12 v 5 h -3 l -1,4 -4,-2 -10,6 -9,-4 -3,4 1,1 h -3 l 2,2 -3,6 -2,-2 -9,3 -10,-1 -6,-6 -1,2 -3,-1 -2,4 -3,-1 v -2 h -2 l 2,-6 -1,-4 -6,-6 6,-5 -3,-10 1,-2 h -5 v -2 h -3 l -1,-2 h -5 v -3 l -3,1 -5,-4 -6,2 -3,-4 -2,2 -10,-11 4,-4 -2,-3 3,-6 -2,-2 v -4 l 3,-4 -5,-4 -2,2 v -2 h -2 l 2,-3 -1,-4 3,-1 v -4 l -2,-2 3,-6 -1,-5 -18,-4 v -3 l -7,-2 v -2 l -3,-1 1,-2 h -6 l -2,-3 -6,2 -3,-4 h 6 v -2 l 6,1 2,-3 -1,-4 4,-2 9,1 -2,-2 10,-4 2,-5 5,3 3,-2 1,3 6,1 3,4 h 10 v 2 h 4 v 3 l 10,-1 -2,2 2,1 6,-6 3,-1 2,3 3,-5 5,3 2,-4 4,-2 1,-6 3,-1 4,-5 5,-2 -2,-1 1,-3 1,3 z m -18,63 -2,1 1,1 -5,2 -3,-3 -1,3 -2,-1 -1,4 -3,-1 1,2 -2,3 3,1 -4,8 2,1 8,-2 5,3 v -2 l 2,-1 1,2 7,1 1,3 4,-8 -6,-2 2,-4 -7,-5 1,-4 z"
         class="leaflet-interactive"
         inkscape:connector-curvature="0"
         style="fill:#fc8d59;fill-opacity:1;fill-rule:evenodd;stroke:#ffffff;stroke-width:2;stroke-linecap:round;stroke-linejoin:round;stroke-dasharray:5;stroke-opacity:1" />
      <path
         id="path24"
         d="m 413,273 4,3 2,-3 4,5 h 3 v 3 l 3,3 -2,7 h 2 v 2 l 3,1 2,-4 3,1 1,-2 6,6 10,1 9,-3 2,2 3,-6 -2,-2 h 3 l -1,-1 3,-4 9,4 10,-6 4,2 2,-4 2,6 8,2 2,3 v 7 l 3,4 v 5 l -5,18 -5,7 v 4 l -9,-2 2,-5 -4,1 1,-5 -4,-2 v -3 l -1,3 h -4 l -4,-3 -3,6 7,2 -1,4 h -5 l -9,6 h -5 l -3,2 1,3 -16,2 -1,5 -3,3 -4,-3 -2,4 -4,-1 -2,7 -8,-1 v 5 l -2,2 -7,-3 -6,4 h -8 l -1,4 -6,5 -2,7 h -2 v -4 l -2,-1 1,-2 h -3 v -3 l -10,-3 v -2 l -4,-4 3,-1 1,-2 -4,-4 6,-7 1,6 6,-2 -1,-4 h 6 l 2,-4 -4,-4 3,-2 -2,-3 9,-2 2,-4 7,-2 -2,-5 h -3 l -1,-5 -13,-3 1,-2 h -2 v -6 l -3,-7 2,-1 v -7 l -2,-3 3,-1 -1,-3 2,-3 z"
         class="leaflet-interactive"
         inkscape:connector-curvature="0"
         style="fill:#fdb27b;fill-opacity:1;fill-rule:evenodd;stroke:#ffffff;stroke-width:2;stroke-linecap:round;stroke-linejoin:round;stroke-dasharray:5;stroke-opacity:1" />
      <path
         id="path26"
         d="m 356,173 3,1 v 2 l 7,2 v 3 l 18,4 1,5 -3,6 2,2 v 4 l -3,1 1,4 -2,3 h 2 l -1,2 3,-2 5,4 -3,4 v 4 l 2,2 -3,6 2,3 -4,4 3,4 7,7 2,-1 3,3 6,-2 5,4 3,-1 v 3 h 5 l 1,2 h 3 v 2 h 5 l -1,2 3,10 -8,6 -1,-3 -2,3 -6,-4 -2,3 -4,-1 -2,3 -19,4 -2,2 1,4 -3,1 2,3 v 7 l -2,1 3,7 v 6 h 2 l -1,2 3,1 -2,4 h 2 l -3,7 -2,-3 -8,1 -2,-2 1,-1 -5,-3 -6,1 -4,-5 h -9 v -6 l -5,-2 5,-6 -3,-3 v -3 l -4,-2 h -15 l 1,-1 h -2 l -1,-8 -3,-3 3,-1 -1,-2 -10,-2 -3,-8 -3,-2 v -5 l 4,-4 -2,-3 2,-1 -4,-4 h 3 l 3,-3 h 12 l -1,-4 5,-2 1,-2 -2,-3 3,-2 -5,-8 4,-3 -6,-6 v -3 h 3 l -3,-5 2,-4 -3,1 -4,-9 h -2 l -1,-10 h 8 l 2,-4 15,3 9,-5 v -5 l 6,-2 z"
         class="leaflet-interactive"
         inkscape:connector-curvature="0"
         style="fill:#fddcaf;fill-opacity:1;fill-rule:evenodd;stroke:#ffffff;stroke-width:2;stroke-linecap:round;stroke-linejoin:round;stroke-dasharray:5;stroke-opacity:1" />
      <path
         id="path28"
         d="m 317,275 8,3 -3,2 3,3 1,8 h 2 l -1,1 h 15 l 4,2 v 3 l 3,3 -5,6 5,2 1,2 -2,2 2,3 8,-1 4,5 6,-1 5,3 -1,1 2,2 8,-1 2,3 3,-6 -2,-1 2,-4 8,1 2,1 1,5 h 3 l 2,6 -7,1 -2,4 -9,2 2,3 -3,2 h 2 l 2,6 -2,2 h -6 v 4 l -4,2 -2,-1 v -4 l -6,6 4,4 -1,2 -3,1 2,1 -3,2 -2,1 -2,-3 -12,4 -1,-4 -2,1 -1,-7 -4,-1 -1,3 -3,1 v 15 l -5,-2 1,-3 -2,-2 -3,1 -5,-3 h -3 l -7,2 v 3 l 6,3 v 2 h -5 l -1,3 -5,-1 v -8 l -5,-1 -2,-4 -3,1 1,-3 -4,-5 -9,-5 -4,4 v -7 l 2,-1 -2,-4 -4,1 v 3 l -4,-1 4,-13 3,-1 2,-4 -2,-2 -2,1 1,-2 h -2 l 5,-1 -2,-3 1,-2 7,1 v -3 l -2,-1 1,-5 -2,-1 2,-1 2,2 1,-4 -7,-3 -1,-4 -4,-1 -2,-6 6,-5 4,1 2,-4 5,-1 3,-3 v -4 l 13,3 -1,-5 z"
         class="leaflet-interactive"
         inkscape:connector-curvature="0"
         style="fill:#fddcaf;fill-opacity:1;fill-rule:evenodd;stroke:#ffffff;stroke-width:2;stroke-linecap:round;stroke-linejoin:round;stroke-dasharray:5;stroke-opacity:1" />
      <path
         id="path30"
         d="m 259,276 h 6 l 3,4 -5,4 3,4 v 3 l -3,2 -1,4 8,3 2,-3 -2,2 -1,-4 5,-3 2,3 v -3 h 2 l 3,9 4,1 1,4 7,2 -1,5 -2,-2 -2,1 2,1 -1,5 3,2 -3,2 -5,-1 -1,2 2,3 h -5 l 2,1 -1,2 2,-1 2,2 -2,4 -3,1 -4,13 4,1 v -3 l 4,-1 2,3 -2,2 v 8 l -4,5 -5,2 -4,-2 -1,9 -4,2 1,3 -8,-1 2,6 -1,5 -4,1 -2,-4 -7,-1 -3,4 v -2 l -7,2 -1,3 3,1 1,3 h -2 l 1,10 2,1 v 3 h 2 l -1,3 2,1 -3,3 1,4 -2,1 2,3 -1,3 2,1 -8,1 v 4 l -7,3 1,-5 2,1 1,-3 -8,-1 -2,-4 1,-3 -5,1 2,4 -4,2 -7,-6 -1,-6 5,-5 h -2 l -4,-8 v -6 l -3,-4 -4,-1 -14,5 -5,-6 4,-6 3,2 1,-2 -3,-3 1,-2 4,-2 2,1 2,-1 -2,-3 h 4 l -2,-7 -5,-3 2,-2 v -6 l 2,-2 h 4 l 1,-3 -3,-6 3,-4 -2,-4 7,-6 4,1 5,-4 -1,-3 4,-4 v -6 l 9,-1 -2,-2 4,-5 -2,-4 -7,1 -1,-3 6,-6 12,-1 -2,-7 3,-2 5,1 1,4 5,-1 7,-10 -2,-2 7,-3 z"
         class="leaflet-interactive"
         inkscape:connector-curvature="0"
         style="fill:#fc8d59;fill-opacity:1;fill-rule:evenodd;stroke:#ffffff;stroke-width:2;stroke-linecap:round;stroke-linejoin:round;stroke-dasharray:5;stroke-opacity:1" />
      <path
         id="path32"
         d="m 182,326 2,1 v 4 l 6,2 v 5 l 3,6 4,-1 v 7 l 2,1 -1,4 -4,-1 -2,2 v 6 l -2,2 5,3 2,7 h -4 l 2,3 -8,2 -1,2 3,3 -1,2 -3,-2 -4,6 5,6 17,-4 4,4 v 6 l 4,8 h 2 l -5,5 3,8 v 9 l 3,1 -2,3 h 2 v 3 l -2,1 1,3 -4,4 -1,10 -6,9 -14,-6 h -12 l -6,-3 -2,-5 h -6 l -3,-5 4,-4 1,-6 -5,-1 -2,-3 3,-3 -2,-8 -3,2 -8,-6 -19,9 -11,-2 2,-8 5,-4 v -6 l -5,-1 -2,-2 -3,1 -4,-8 h -3 l -2,-8 2,-8 2,-1 -1,-3 5,-2 1,-4 h 5 l -2,-4 4,1 v 2 l 7,-4 1,4 2,-2 1,2 5,-1 -3,-9 3,-1 2,3 2,-1 -1,-5 h 3 l -1,-2 6,-3 h 4 l 3,-3 h 6 l 2,-5 13,-4 v -4 l 4,-2 -1,-5 z"
         class="leaflet-interactive"
         inkscape:connector-curvature="0"
         style="fill:#fc8d59;fill-opacity:1;fill-rule:evenodd;stroke:#ffffff;stroke-width:2;stroke-linecap:round;stroke-linejoin:round;stroke-dasharray:5;stroke-opacity:1" />
    </g>
  </g>
</svg>
