<svg version="1.1" class="highcharts-root" style="font-family:&quot;Lucida Grande&quot;, &quot;Lucida Sans Unicode&quot;, Arial, Helvetica, sans-serif;font-size:12px;" xmlns="http://www.w3.org/2000/svg" width="933" height="790" viewBox="0 0 933 790"><desc>Created with Highcharts 6.0.2</desc><defs><clipPath id="highcharts-bch1ktf-1"><rect x="0" y="0" width="678" height="810" fill="none"></rect></clipPath></defs><rect fill="#ffffff" class="highcharts-background" x="0" y="0" width="933" height="790" rx="0" ry="0"></rect><rect fill="none" class="highcharts-plot-background" x="113" y="55" width="810" height="678"></rect><g class="highcharts-grid highcharts-xaxis-grid "><path fill="none" class="highcharts-grid-line" d="M 113 93.5 L 923 93.5" opacity="1"></path><path fill="none" class="highcharts-grid-line" d="M 113 130.5 L 923 130.5" opacity="1"></path><path fill="none" class="highcharts-grid-line" d="M 113 168.5 L 923 168.5" opacity="1"></path><path fill="none" class="highcharts-grid-line" d="M 113 206.5 L 923 206.5" opacity="1"></path><path fill="none" class="highcharts-grid-line" d="M 113 243.5 L 923 243.5" opacity="1"></path><path fill="none" class="highcharts-grid-line" d="M 113 281.5 L 923 281.5" opacity="1"></path><path fill="none" class="highcharts-grid-line" d="M 113 319.5 L 923 319.5" opacity="1"></path><path fill="none" class="highcharts-grid-line" d="M 113 356.5 L 923 356.5" opacity="1"></path><path fill="none" class="highcharts-grid-line" d="M 113 394.5 L 923 394.5" opacity="1"></path><path fill="none" class="highcharts-grid-line" d="M 113 432.5 L 923 432.5" opacity="1"></path><path fill="none" class="highcharts-grid-line" d="M 113 469.5 L 923 469.5" opacity="1"></path><path fill="none" class="highcharts-grid-line" d="M 113 507.5 L 923 507.5" opacity="1"></path><path fill="none" class="highcharts-grid-line" d="M 113 545.5 L 923 545.5" opacity="1"></path><path fill="none" class="highcharts-grid-line" d="M 113 582.5 L 923 582.5" opacity="1"></path><path fill="none" class="highcharts-grid-line" d="M 113 620.5 L 923 620.5" opacity="1"></path><path fill="none" class="highcharts-grid-line" d="M 113 658.5 L 923 658.5" opacity="1"></path><path fill="none" class="highcharts-grid-line" d="M 113 695.5 L 923 695.5" opacity="1"></path><path fill="none" class="highcharts-grid-line" d="M 113 733.5 L 923 733.5" opacity="1"></path><path fill="none" class="highcharts-grid-line" d="M 113 55.5 L 923 55.5" opacity="1"></path></g><g class="highcharts-grid highcharts-yaxis-grid "><path fill="none" stroke="#e6e6e6" stroke-width="1" class="highcharts-grid-line" d="M 112.5 55 L 112.5 733" opacity="1"></path><path fill="none" stroke="#e6e6e6" stroke-width="1" class="highcharts-grid-line" d="M 180.5 55 L 180.5 733" opacity="1"></path><path fill="none" stroke="#e6e6e6" stroke-width="1" class="highcharts-grid-line" d="M 247.5 55 L 247.5 733" opacity="1"></path><path fill="none" stroke="#e6e6e6" stroke-width="1" class="highcharts-grid-line" d="M 315.5 55 L 315.5 733" opacity="1"></path><path fill="none" stroke="#e6e6e6" stroke-width="1" class="highcharts-grid-line" d="M 382.5 55 L 382.5 733" opacity="1"></path><path fill="none" stroke="#e6e6e6" stroke-width="1" class="highcharts-grid-line" d="M 450.5 55 L 450.5 733" opacity="1"></path><path fill="none" stroke="#e6e6e6" stroke-width="1" class="highcharts-grid-line" d="M 517.5 55 L 517.5 733" opacity="1"></path><path fill="none" stroke="#e6e6e6" stroke-width="1" class="highcharts-grid-line" d="M 585.5 55 L 585.5 733" opacity="1"></path><path fill="none" stroke="#e6e6e6" stroke-width="1" class="highcharts-grid-line" d="M 652.5 55 L 652.5 733" opacity="1"></path><path fill="none" stroke="#e6e6e6" stroke-width="1" class="highcharts-grid-line" d="M 720.5 55 L 720.5 733" opacity="1"></path><path fill="none" stroke="#e6e6e6" stroke-width="1" class="highcharts-grid-line" d="M 787.5 55 L 787.5 733" opacity="1"></path><path fill="none" stroke="#e6e6e6" stroke-width="1" class="highcharts-grid-line" d="M 855.5 55 L 855.5 733" opacity="1"></path><path fill="none" stroke="#e6e6e6" stroke-width="1" class="highcharts-grid-line" d="M 923.5 55 L 923.5 733" opacity="1"></path></g><g class="highcharts-grid highcharts-yaxis-grid "><path fill="none" stroke="#e6e6e6" stroke-width="1" class="highcharts-grid-line" d="M 112.5 55 L 112.5 733" opacity="1"></path><path fill="none" stroke="#e6e6e6" stroke-width="1" class="highcharts-grid-line" d="M 180.5 55 L 180.5 733" opacity="1"></path><path fill="none" stroke="#e6e6e6" stroke-width="1" class="highcharts-grid-line" d="M 247.5 55 L 247.5 733" opacity="1"></path><path fill="none" stroke="#e6e6e6" stroke-width="1" class="highcharts-grid-line" d="M 315.5 55 L 315.5 733" opacity="1"></path><path fill="none" stroke="#e6e6e6" stroke-width="1" class="highcharts-grid-line" d="M 382.5 55 L 382.5 733" opacity="1"></path><path fill="none" stroke="#e6e6e6" stroke-width="1" class="highcharts-grid-line" d="M 450.5 55 L 450.5 733" opacity="1"></path><path fill="none" stroke="#e6e6e6" stroke-width="1" class="highcharts-grid-line" d="M 517.5 55 L 517.5 733" opacity="1"></path><path fill="none" stroke="#e6e6e6" stroke-width="1" class="highcharts-grid-line" d="M 585.5 55 L 585.5 733" opacity="1"></path><path fill="none" stroke="#e6e6e6" stroke-width="1" class="highcharts-grid-line" d="M 652.5 55 L 652.5 733" opacity="1"></path><path fill="none" stroke="#e6e6e6" stroke-width="1" class="highcharts-grid-line" d="M 720.5 55 L 720.5 733" opacity="1"></path><path fill="none" stroke="#e6e6e6" stroke-width="1" class="highcharts-grid-line" d="M 787.5 55 L 787.5 733" opacity="1"></path><path fill="none" stroke="#e6e6e6" stroke-width="1" class="highcharts-grid-line" d="M 855.5 55 L 855.5 733" opacity="1"></path><path fill="none" stroke="#e6e6e6" stroke-width="1" class="highcharts-grid-line" d="M 923.5 55 L 923.5 733" opacity="1"></path></g><rect fill="none" class="highcharts-plot-border" x="113" y="55" width="810" height="678"></rect><g class="highcharts-axis highcharts-xaxis "><path fill="none" class="highcharts-tick" stroke="#ccd6eb" stroke-width="1" d="M 113 93.5 L 103 93.5" opacity="1"></path><path fill="none" class="highcharts-tick" stroke="#ccd6eb" stroke-width="1" d="M 113 130.5 L 103 130.5" opacity="1"></path><path fill="none" class="highcharts-tick" stroke="#ccd6eb" stroke-width="1" d="M 113 168.5 L 103 168.5" opacity="1"></path><path fill="none" class="highcharts-tick" stroke="#ccd6eb" stroke-width="1" d="M 113 206.5 L 103 206.5" opacity="1"></path><path fill="none" class="highcharts-tick" stroke="#ccd6eb" stroke-width="1" d="M 113 243.5 L 103 243.5" opacity="1"></path><path fill="none" class="highcharts-tick" stroke="#ccd6eb" stroke-width="1" d="M 113 281.5 L 103 281.5" opacity="1"></path><path fill="none" class="highcharts-tick" stroke="#ccd6eb" stroke-width="1" d="M 113 319.5 L 103 319.5" opacity="1"></path><path fill="none" class="highcharts-tick" stroke="#ccd6eb" stroke-width="1" d="M 113 356.5 L 103 356.5" opacity="1"></path><path fill="none" class="highcharts-tick" stroke="#ccd6eb" stroke-width="1" d="M 113 394.5 L 103 394.5" opacity="1"></path><path fill="none" class="highcharts-tick" stroke="#ccd6eb" stroke-width="1" d="M 113 432.5 L 103 432.5" opacity="1"></path><path fill="none" class="highcharts-tick" stroke="#ccd6eb" stroke-width="1" d="M 113 469.5 L 103 469.5" opacity="1"></path><path fill="none" class="highcharts-tick" stroke="#ccd6eb" stroke-width="1" d="M 113 507.5 L 103 507.5" opacity="1"></path><path fill="none" class="highcharts-tick" stroke="#ccd6eb" stroke-width="1" d="M 113 545.5 L 103 545.5" opacity="1"></path><path fill="none" class="highcharts-tick" stroke="#ccd6eb" stroke-width="1" d="M 113 582.5 L 103 582.5" opacity="1"></path><path fill="none" class="highcharts-tick" stroke="#ccd6eb" stroke-width="1" d="M 113 620.5 L 103 620.5" opacity="1"></path><path fill="none" class="highcharts-tick" stroke="#ccd6eb" stroke-width="1" d="M 113 658.5 L 103 658.5" opacity="1"></path><path fill="none" class="highcharts-tick" stroke="#ccd6eb" stroke-width="1" d="M 113 695.5 L 103 695.5" opacity="1"></path><path fill="none" class="highcharts-tick" stroke="#ccd6eb" stroke-width="1" d="M 113 733.5 L 103 733.5" opacity="1"></path><path fill="none" class="highcharts-tick" stroke="#ccd6eb" stroke-width="1" d="M 113 54.5 L 103 54.5" opacity="1"></path><path fill="none" class="highcharts-axis-line" stroke="#ccd6eb" stroke-width="1" d="M 112.5 55 L 112.5 733"></path></g><g class="highcharts-axis highcharts-yaxis "><text x="113" text-anchor="start" transform="translate(0,0)" class="highcharts-axis-title" style="color:#666666;font-weight:bold;font-size:16px;fill:#666666;" y="774"><tspan>Euro per month</tspan></text><path fill="none" class="highcharts-axis-line" d="M 113 733 L 923 733"></path></g><g class="highcharts-axis highcharts-yaxis "><text x="113" text-anchor="start" transform="translate(0,0)" class="highcharts-axis-title" style="color:#666666;font-weight:bold;font-size:16px;fill:#666666;" y="27"><tspan>Number of broadcasts</tspan></text><path fill="none" class="highcharts-axis-line" d="M 113 55 L 923 55"></path></g><g class="highcharts-series-group"><g class="highcharts-series highcharts-series-0 highcharts-column-series highcharts-color-0 highcharts-tracker" transform="translate(923,733) rotate(90) scale(-1,1) scale(1 1)" clip-path="url(#highcharts-bch1ktf-1)"><rect x="659.5" y="644.5" width="10" height="166" fill="#7cb5ec" stroke="#ffffff" stroke-width="1" class="highcharts-point highcharts-color-0"></rect><rect x="622.5" y="788.5" width="10" height="22" fill="#7cb5ec" stroke="#ffffff" stroke-width="1" class="highcharts-point highcharts-color-0"></rect><rect x="584.5" y="714.5" width="10" height="96" fill="#7cb5ec" stroke="#ffffff" stroke-width="1" class="highcharts-point highcharts-color-0"></rect><rect x="546.5" y="782.5" width="10" height="28" fill="#7cb5ec" stroke="#ffffff" stroke-width="1" class="highcharts-point highcharts-color-0"></rect><rect x="509.5" y="440.5" width="10" height="370" fill="#7cb5ec" stroke="#ffffff" stroke-width="1" class="highcharts-point highcharts-color-0"></rect><rect x="471.5" y="802.5" width="10" height="8" fill="#7cb5ec" stroke="#ffffff" stroke-width="1" class="highcharts-point highcharts-color-0"></rect><rect x="433.5" y="644.5" width="10" height="166" fill="#7cb5ec" stroke="#ffffff" stroke-width="1" class="highcharts-point highcharts-color-0"></rect><rect x="396.5" y="801.5" width="10" height="9" fill="#7cb5ec" stroke="#ffffff" stroke-width="1" class="highcharts-point highcharts-color-0"></rect><rect x="358.5" y="741.5" width="10" height="69" fill="#7cb5ec" stroke="#ffffff" stroke-width="1" class="highcharts-point highcharts-color-0"></rect><rect x="320.5" y="793.5" width="10" height="17" fill="#7cb5ec" stroke="#ffffff" stroke-width="1" class="highcharts-point highcharts-color-0"></rect><rect x="283.5" y="808.5" width="10" height="2" fill="#7cb5ec" stroke="#ffffff" stroke-width="1" class="highcharts-point highcharts-color-0"></rect><rect x="245.5" y="788.5" width="10" height="22" fill="#7cb5ec" stroke="#ffffff" stroke-width="1" class="highcharts-point highcharts-color-0"></rect><rect x="207.5" y="803.5" width="10" height="7" fill="#7cb5ec" stroke="#ffffff" stroke-width="1" class="highcharts-point highcharts-color-0"></rect><rect x="170.5" y="803.5" width="10" height="7" fill="#7cb5ec" stroke="#ffffff" stroke-width="1" class="highcharts-point highcharts-color-0"></rect><rect x="132.5" y="801.5" width="10" height="9" fill="#7cb5ec" stroke="#ffffff" stroke-width="1" class="highcharts-point highcharts-color-0"></rect><rect x="94.5" y="747.5" width="10" height="63" fill="#7cb5ec" stroke="#ffffff" stroke-width="1" class="highcharts-point highcharts-color-0"></rect><rect x="57.5" y="289.5" width="10" height="521" fill="#7cb5ec" stroke="#ffffff" stroke-width="1" class="highcharts-point highcharts-color-0"></rect><rect x="19.5" y="714.5" width="10" height="96" fill="#7cb5ec" stroke="#ffffff" stroke-width="1" class="highcharts-point highcharts-color-0"></rect></g><g class="highcharts-markers highcharts-series-0 highcharts-column-series highcharts-color-0 " transform="translate(923,733) rotate(90) scale(-1,1) scale(1 1)" clip-path="none"></g><g class="highcharts-series highcharts-series-1 highcharts-column-series highcharts-color-1 highcharts-tracker" transform="translate(923,733) rotate(90) scale(-1,1) scale(1 1)" clip-path="url(#highcharts-bch1ktf-1)"><rect x="648.5" y="547.5" width="10" height="263" fill="#434348" stroke="#ffffff" stroke-width="1" class="highcharts-point highcharts-color-1"></rect><rect x="610.5" y="773.5" width="10" height="37" fill="#434348" stroke="#ffffff" stroke-width="1" class="highcharts-point highcharts-color-1"></rect><rect x="573.5" y="685.5" width="10" height="125" fill="#434348" stroke="#ffffff" stroke-width="1" class="highcharts-point highcharts-color-1"></rect><rect x="535.5" y="746.5" width="10" height="64" fill="#434348" stroke="#ffffff" stroke-width="1" class="highcharts-point highcharts-color-1"></rect><rect x="497.5" y="428.5" width="10" height="382" fill="#434348" stroke="#ffffff" stroke-width="1" class="highcharts-point highcharts-color-1"></rect><rect x="460.5" y="759.5" width="10" height="51" fill="#434348" stroke="#ffffff" stroke-width="1" class="highcharts-point highcharts-color-1"></rect><rect x="422.5" y="362.5" width="10" height="448" fill="#434348" stroke="#ffffff" stroke-width="1" class="highcharts-point highcharts-color-1"></rect><rect x="384.5" y="771.5" width="10" height="39" fill="#434348" stroke="#ffffff" stroke-width="1" class="highcharts-point highcharts-color-1"></rect><rect x="347.5" y="713.5" width="10" height="97" fill="#434348" stroke="#ffffff" stroke-width="1" class="highcharts-point highcharts-color-1"></rect><rect x="309.5" y="793.5" width="10" height="17" fill="#434348" stroke="#ffffff" stroke-width="1" class="highcharts-point highcharts-color-1"></rect><rect x="271.5" y="803.5" width="10" height="7" fill="#434348" stroke="#ffffff" stroke-width="1" class="highcharts-point highcharts-color-1"></rect><rect x="234.5" y="720.5" width="10" height="90" fill="#434348" stroke="#ffffff" stroke-width="1" class="highcharts-point highcharts-color-1"></rect><rect x="196.5" y="802.5" width="10" height="8" fill="#434348" stroke="#ffffff" stroke-width="1" class="highcharts-point highcharts-color-1"></rect><rect x="158.5" y="796.5" width="10" height="14" fill="#434348" stroke="#ffffff" stroke-width="1" class="highcharts-point highcharts-color-1"></rect><rect x="121.5" y="802.5" width="10" height="8" fill="#434348" stroke="#ffffff" stroke-width="1" class="highcharts-point highcharts-color-1"></rect><rect x="83.5" y="737.5" width="10" height="73" fill="#434348" stroke="#ffffff" stroke-width="1" class="highcharts-point highcharts-color-1"></rect><rect x="45.5" y="192.5" width="10" height="618" fill="#434348" stroke="#ffffff" stroke-width="1" class="highcharts-point highcharts-color-1"></rect><rect x="8.5" y="787.5" width="10" height="23" fill="#434348" stroke="#ffffff" stroke-width="1" class="highcharts-point highcharts-color-1"></rect></g><g class="highcharts-markers highcharts-series-1 highcharts-column-series highcharts-color-1 " transform="translate(923,733) rotate(90) scale(-1,1) scale(1 1)" clip-path="none"></g><g class="highcharts-series highcharts-series-2 highcharts-spline-series highcharts-color-2 " transform="translate(923,733) rotate(90) scale(-1,1) scale(1 1)" clip-path="url(#highcharts-bch1ktf-1)"><path fill="none" d="M 659.16666666667 556.875 C 659.16666666667 556.875 636.5666666666681 759.375 621.5 759.375 C 606.4333333333319 759.375 598.899999999998 675 583.83333333333 675 C 568.7666666666661 675 561.2333333333339 708.75 546.16666666667 708.75 C 531.100000000002 708.75 523.5666666666681 413.4375 508.5 413.4375 C 493.43333333333203 413.4375 485.899999999998 734.0625 470.83333333333 734.0625 C 455.76666666666597 734.0625 448.23333333333403 388.125 433.16666666667 388.125 C 418.100000000002 388.125 410.56666666666797 759.375 395.5 759.375 C 380.43333333333203 759.375 372.899999999998 666.5625 357.83333333333 666.5625 C 342.76666666666597 666.5625 335.23333333333403 750.9375 320.16666666667 776.25 C 305.100000000002 801.5625 297.56666666666797 801.5625 282.5 801.5625 C 267.433333333332 801.5625 259.899999999998 691.875 244.83333333333 691.875 C 229.76666666666603 691.875 222.23333333333397 793.125 207.16666666667 793.125 C 192.100000000002 793.125 184.56666666666803 784.6875 169.5 784.6875 C 154.43333333333197 784.6875 146.899999999998 793.125 131.83333333333 793.125 C 116.76666666666479 793.125 109.23333333333221 793.125 94.166666666667 700.3125 C 79.10000000000021 607.5 71.5666666666668 143.4375 56.5 143.4375 C 41.4333333333332 143.4375 18.833333333333 784.6875 18.833333333333 784.6875" class="highcharts-graph" stroke="#90ed7d" stroke-width="2" stroke-linejoin="round" stroke-linecap="round"></path><path fill="none" d="M 649.16666666667 556.875 L 659.16666666667 556.875 C 659.16666666667 556.875 636.5666666666681 759.375 621.5 759.375 C 606.4333333333319 759.375 598.899999999998 675 583.83333333333 675 C 568.7666666666661 675 561.2333333333339 708.75 546.16666666667 708.75 C 531.100000000002 708.75 523.5666666666681 413.4375 508.5 413.4375 C 493.43333333333203 413.4375 485.899999999998 734.0625 470.83333333333 734.0625 C 455.76666666666597 734.0625 448.23333333333403 388.125 433.16666666667 388.125 C 418.100000000002 388.125 410.56666666666797 759.375 395.5 759.375 C 380.43333333333203 759.375 372.899999999998 666.5625 357.83333333333 666.5625 C 342.76666666666597 666.5625 335.23333333333403 750.9375 320.16666666667 776.25 C 305.100000000002 801.5625 297.56666666666797 801.5625 282.5 801.5625 C 267.433333333332 801.5625 259.899999999998 691.875 244.83333333333 691.875 C 229.76666666666603 691.875 222.23333333333397 793.125 207.16666666667 793.125 C 192.100000000002 793.125 184.56666666666803 784.6875 169.5 784.6875 C 154.43333333333197 784.6875 146.899999999998 793.125 131.83333333333 793.125 C 116.76666666666479 793.125 109.23333333333221 793.125 94.166666666667 700.3125 C 79.10000000000021 607.5 71.5666666666668 143.4375 56.5 143.4375 C 41.4333333333332 143.4375 18.833333333333 784.6875 18.833333333333 784.6875 L 28.833333333333 784.6875" stroke-linejoin="round" visibility="visible" stroke="rgba(192,192,192,0.0001)" stroke-width="22" class="highcharts-tracker"></path></g><g class="highcharts-markers highcharts-series-2 highcharts-spline-series highcharts-color-2 highcharts-tracker" transform="translate(923,733) rotate(90) scale(-1,1) scale(1 1)"></g></g><g class="highcharts-button highcharts-contextbutton" style="cursor:pointer;" stroke-linecap="round" transform="translate(899,10)"><title>Chart context menu</title><rect fill="#ffffff" class=" highcharts-button-box" x="0.5" y="0.5" width="24" height="22" rx="2" ry="2" stroke="none" stroke-width="1"></rect><path fill="#666666" d="M 6 6.5 L 20 6.5 M 6 11.5 L 20 11.5 M 6 16.5 L 20 16.5" class="highcharts-button-symbol" stroke="#666666" stroke-width="3"></path><text x="0" style="font-weight:normal;color:#333333;fill:#333333;" y="12"></text></g><text x="467" text-anchor="middle" class="highcharts-title" style="color:#333333;font-size:18px;fill:#333333;" y="24"></text><text x="467" text-anchor="middle" class="highcharts-subtitle" style="color:#666666;fill:#666666;" y="24"></text><g class="highcharts-legend" transform="translate(758,366)"><rect fill="none" class="highcharts-legend-box" rx="0" ry="0" x="0" y="0" width="164" height="53" visibility="visible"></rect><g><g><g class="highcharts-legend-item highcharts-column-series highcharts-color-0 highcharts-series-0" transform="translate(8,3)"><text x="21" style="color:#333333;font-size:12px;font-weight:bold;cursor:pointer;fill:#333333;" text-anchor="start" y="15"><tspan>Actual amount</tspan></text><rect x="2" y="4" width="12" height="12" fill="#7cb5ec" rx="6" ry="6" class="highcharts-point"></rect></g><g class="highcharts-legend-item highcharts-column-series highcharts-color-1 highcharts-series-1" transform="translate(8,17)"><text x="21" y="15" style="color:#333333;font-size:12px;font-weight:bold;cursor:pointer;fill:#333333;" text-anchor="start"><tspan>Expected amount</tspan></text><rect x="2" y="4" width="12" height="12" fill="#434348" rx="6" ry="6" class="highcharts-point"></rect></g><g class="highcharts-legend-item highcharts-spline-series highcharts-color-2 highcharts-series-2" transform="translate(8,31)"><path fill="none" d="M 0 11 L 16 11" class="highcharts-graph" stroke="#90ed7d" stroke-width="2"></path><text x="21" y="15" style="color:#333333;font-size:12px;font-weight:bold;cursor:pointer;fill:#333333;" text-anchor="start"><tspan>Number of broadcasts</tspan></text></g></g></g></g><g class="highcharts-axis-labels highcharts-xaxis-labels "><text x="98" style="color:#666666;cursor:default;font-size:11px;fill:#666666;" text-anchor="end" transform="translate(0,0)" y="79" opacity="1"><tspan>3sat</tspan></text><text x="98" style="color:#666666;cursor:default;font-size:11px;fill:#666666;" text-anchor="end" transform="translate(0,0)" y="117" opacity="1"><tspan>ARD-alpha</tspan></text><text x="98" style="color:#666666;cursor:default;font-size:11px;fill:#666666;" text-anchor="end" transform="translate(0,0)" y="154" opacity="1"><tspan>Arte</tspan></text><text x="98" style="color:#666666;cursor:default;font-size:11px;fill:#666666;" text-anchor="end" transform="translate(0,0)" y="192" opacity="1"><tspan>BR Fernsehen</tspan></text><text x="98" style="color:#666666;cursor:default;font-size:11px;fill:#666666;" text-anchor="end" transform="translate(0,0)" y="229" opacity="1"><tspan>Das Erste</tspan></text><text x="98" style="color:#666666;cursor:default;font-size:11px;fill:#666666;" text-anchor="end" transform="translate(0,0)" y="267" opacity="1"><tspan>hr-fernsehen</tspan></text><text x="98" style="color:#666666;cursor:default;font-size:11px;fill:#666666;" text-anchor="end" transform="translate(0,0)" y="305" opacity="1"><tspan>KiKA</tspan></text><text x="98" style="color:#666666;cursor:default;font-size:11px;fill:#666666;" text-anchor="end" transform="translate(0,0)" y="343" opacity="1"><tspan>MDR Fernsehen</tspan></text><text x="98" style="color:#666666;cursor:default;font-size:11px;fill:#666666;" text-anchor="end" transform="translate(0,0)" y="380" opacity="1"><tspan>NDR Fernsehen</tspan></text><text x="98" style="color:#666666;cursor:default;font-size:11px;fill:#666666;" text-anchor="end" transform="translate(0,0)" y="418" opacity="1"><tspan>Phoenix</tspan></text><text x="98" style="color:#666666;cursor:default;font-size:11px;fill:#666666;" text-anchor="end" transform="translate(0,0)" y="455" opacity="1"><tspan>Radio Bremen TV</tspan></text><text x="98" style="color:#666666;cursor:default;font-size:11px;fill:#666666;" text-anchor="end" transform="translate(0,0)" y="493" opacity="1"><tspan>rbb Fernsehen</tspan></text><text x="98" style="color:#666666;cursor:default;font-size:11px;fill:#666666;" text-anchor="end" transform="translate(0,0)" y="531" opacity="1"><tspan>SR Fernsehen</tspan></text><text x="98" style="color:#666666;cursor:default;font-size:11px;fill:#666666;" text-anchor="end" transform="translate(0,0)" y="568" opacity="1"><tspan>SWR Fernsehen</tspan></text><text x="98" style="color:#666666;cursor:default;font-size:11px;fill:#666666;" text-anchor="end" transform="translate(0,0)" y="606" opacity="1"><tspan>tagesschau24</tspan></text><text x="98" style="color:#666666;cursor:default;font-size:11px;fill:#666666;" text-anchor="end" transform="translate(0,0)" y="644" opacity="1"><tspan>WDR Fernsehen</tspan></text><text x="98" style="color:#666666;cursor:default;font-size:11px;fill:#666666;" text-anchor="end" transform="translate(0,0)" y="682" opacity="1"><tspan>ZDF</tspan></text><text x="98" style="color:#666666;cursor:default;font-size:11px;fill:#666666;" text-anchor="end" transform="translate(0,0)" y="719" opacity="1"><tspan>ZDFneo</tspan></text></g><g class="highcharts-axis-labels highcharts-yaxis-labels "><text x="113" style="color:#666666;cursor:default;font-size:11px;fill:#666666;" text-anchor="middle" transform="translate(0,0)" y="752" opacity="1"><tspan>0</tspan></text><text x="315.5" style="color:#666666;cursor:default;font-size:11px;fill:#666666;" text-anchor="middle" transform="translate(0,0)" y="752" opacity="1"><tspan>600</tspan></text><text x="518" style="color:#666666;cursor:default;font-size:11px;fill:#666666;" text-anchor="middle" transform="translate(0,0)" y="752" opacity="1"><tspan>1200</tspan></text><text x="720.5" style="color:#666666;cursor:default;font-size:11px;fill:#666666;" text-anchor="middle" transform="translate(0,0)" y="752" opacity="1"><tspan>1800</tspan></text><text x="180.5" style="color:#666666;cursor:default;font-size:11px;fill:#666666;" text-anchor="middle" transform="translate(0,0)" y="752" opacity="1"><tspan>200</tspan></text><text x="248" style="color:#666666;cursor:default;font-size:11px;fill:#666666;" text-anchor="middle" transform="translate(0,0)" y="752" opacity="1"><tspan>400</tspan></text><text x="383" style="color:#666666;cursor:default;font-size:11px;fill:#666666;" text-anchor="middle" transform="translate(0,0)" y="752" opacity="1"><tspan>800</tspan></text><text x="450.5" style="color:#666666;cursor:default;font-size:11px;fill:#666666;" text-anchor="middle" transform="translate(0,0)" y="752" opacity="1"><tspan>1000</tspan></text><text x="585.5" style="color:#666666;cursor:default;font-size:11px;fill:#666666;" text-anchor="middle" transform="translate(0,0)" y="752" opacity="1"><tspan>1400</tspan></text><text x="653" style="color:#666666;cursor:default;font-size:11px;fill:#666666;" text-anchor="middle" transform="translate(0,0)" y="752" opacity="1"><tspan>1600</tspan></text><text x="788" style="color:#666666;cursor:default;font-size:11px;fill:#666666;" text-anchor="middle" transform="translate(0,0)" y="752" opacity="1"><tspan>2000</tspan></text><text x="855.5" style="color:#666666;cursor:default;font-size:11px;fill:#666666;" text-anchor="middle" transform="translate(0,0)" y="752" opacity="1"><tspan>2200</tspan></text><text x="910.765625" style="color:#666666;cursor:default;font-size:11px;fill:#666666;" text-anchor="middle" transform="translate(0,0)" y="752" opacity="1"><tspan>2400</tspan></text></g><g class="highcharts-axis-labels highcharts-yaxis-labels "><text x="113" style="color:#666666;cursor:default;font-size:11px;fill:#666666;" text-anchor="middle" transform="translate(0,0)" y="43" opacity="1"><tspan>0</tspan></text><text x="180.5" style="color:#666666;cursor:default;font-size:11px;fill:#666666;" text-anchor="middle" transform="translate(0,0)" y="43" opacity="1"><tspan>8</tspan></text><text x="248" style="color:#666666;cursor:default;font-size:11px;fill:#666666;" text-anchor="middle" transform="translate(0,0)" y="43" opacity="1"><tspan>16</tspan></text><text x="315.5" style="color:#666666;cursor:default;font-size:11px;fill:#666666;" text-anchor="middle" transform="translate(0,0)" y="43" opacity="1"><tspan>24</tspan></text><text x="383" style="color:#666666;cursor:default;font-size:11px;fill:#666666;" text-anchor="middle" transform="translate(0,0)" y="43" opacity="1"><tspan>32</tspan></text><text x="450.5" style="color:#666666;cursor:default;font-size:11px;fill:#666666;" text-anchor="middle" transform="translate(0,0)" y="43" opacity="1"><tspan>40</tspan></text><text x="518" style="color:#666666;cursor:default;font-size:11px;fill:#666666;" text-anchor="middle" transform="translate(0,0)" y="43" opacity="1"><tspan>48</tspan></text><text x="585.5" style="color:#666666;cursor:default;font-size:11px;fill:#666666;" text-anchor="middle" transform="translate(0,0)" y="43" opacity="1"><tspan>56</tspan></text><text x="653" style="color:#666666;cursor:default;font-size:11px;fill:#666666;" text-anchor="middle" transform="translate(0,0)" y="43" opacity="1"><tspan>64</tspan></text><text x="720.5" style="color:#666666;cursor:default;font-size:11px;fill:#666666;" text-anchor="middle" transform="translate(0,0)" y="43" opacity="1"><tspan>72</tspan></text><text x="788" style="color:#666666;cursor:default;font-size:11px;fill:#666666;" text-anchor="middle" transform="translate(0,0)" y="43" opacity="1"><tspan>80</tspan></text><text x="855.5" style="color:#666666;cursor:default;font-size:11px;fill:#666666;" text-anchor="middle" transform="translate(0,0)" y="43" opacity="1"><tspan>88</tspan></text><text x="916.8828125" style="color:#666666;cursor:default;font-size:11px;fill:#666666;" text-anchor="middle" transform="translate(0,0)" y="43" opacity="1"><tspan>96</tspan></text></g></svg>