<?xml version="1.0" standalone="no"?><!DOCTYPE svg PUBLIC "-//W3C//DTD SVG 1.1//EN" "http://www.w3.org/Graphics/SVG/1.1/DTD/svg11.dtd"><svg xmlns:xlink="http://www.w3.org/1999/xlink" version="1.1" class="highcharts-root" style="font-family:&quot;lucida grande&quot;, &quot;lucida sans unicode&quot;, arial, helvetica, sans-serif;font-size:12px;" xmlns="http://www.w3.org/2000/svg" width="600" height="340" viewBox="0 0 600 340"><desc>Created with Highcharts 5.0.12</desc><defs><clipPath id="highcharts-d1oekui-5"><rect x="0" y="0" width="239" height="483" fill="none"></rect></clipPath></defs><rect fill="#ffffff" class="highcharts-background" x="0" y="0" width="600" height="340" rx="0" ry="0"></rect><rect fill="none" class="highcharts-plot-background" x="107" y="47" width="483" height="239"></rect><g class="highcharts-grid highcharts-xaxis-grid "><path fill="none" class="highcharts-grid-line" d="M 107 127.5 L 590 127.5" opacity="1"></path><path fill="none" class="highcharts-grid-line" d="M 107 206.5 L 590 206.5" opacity="1"></path><path fill="none" class="highcharts-grid-line" d="M 107 286.5 L 590 286.5" opacity="1"></path><path fill="none" class="highcharts-grid-line" d="M 107 47.5 L 590 47.5" opacity="1"></path></g><g class="highcharts-grid highcharts-yaxis-grid "><path fill="none" stroke="#e6e6e6" stroke-width="1" class="highcharts-grid-line" d="M 106.5 47 L 106.5 286" opacity="1"></path><path fill="none" stroke="#e6e6e6" stroke-width="1" class="highcharts-grid-line" d="M 175.5 47 L 175.5 286" opacity="1"></path><path fill="none" stroke="#e6e6e6" stroke-width="1" class="highcharts-grid-line" d="M 244.5 47 L 244.5 286" opacity="1"></path><path fill="none" stroke="#e6e6e6" stroke-width="1" class="highcharts-grid-line" d="M 313.5 47 L 313.5 286" opacity="1"></path><path fill="none" stroke="#e6e6e6" stroke-width="1" class="highcharts-grid-line" d="M 382.5 47 L 382.5 286" opacity="1"></path><path fill="none" stroke="#e6e6e6" stroke-width="1" class="highcharts-grid-line" d="M 451.5 47 L 451.5 286" opacity="1"></path><path fill="none" stroke="#e6e6e6" stroke-width="1" class="highcharts-grid-line" d="M 520.5 47 L 520.5 286" opacity="1"></path><path fill="none" stroke="#e6e6e6" stroke-width="1" class="highcharts-grid-line" d="M 590.5 47 L 590.5 286" opacity="1"></path></g><rect fill="none" class="highcharts-plot-border" x="107" y="47" width="483" height="239"></rect><g class="highcharts-axis highcharts-xaxis "><path fill="none" class="highcharts-tick" stroke="#ccd6eb" stroke-width="1" d="M 107 127.5 L 97 127.5" opacity="1"></path><path fill="none" class="highcharts-tick" stroke="#ccd6eb" stroke-width="1" d="M 107 206.5 L 97 206.5" opacity="1"></path><path fill="none" class="highcharts-tick" stroke="#ccd6eb" stroke-width="1" d="M 107 286.5 L 97 286.5" opacity="1"></path><path fill="none" class="highcharts-tick" stroke="#ccd6eb" stroke-width="1" d="M 107 47.5 L 97 47.5" opacity="1"></path><path fill="none" class="highcharts-axis-line" stroke="#ccd6eb" stroke-width="1" d="M 106.5 47 L 106.5 286"></path></g><g class="highcharts-axis highcharts-yaxis "><text x="348.5" text-anchor="middle" transform="translate(0,0)" class="highcharts-axis-title" style="color:#666666;fill:#666666;" y="323"><tspan>€ per month</tspan></text><path fill="none" class="highcharts-axis-line" d="M 107 286 L 590 286"></path></g><g class="highcharts-series-group"><g class="highcharts-series highcharts-series-0 highcharts-bar-series highcharts-color-0 " transform="translate(590,286) rotate(90) scale(-1,1) scale(1 1)" clip-path="url(#highcharts-d1oekui-5)"><rect x="201.5" y="152.5" width="20" height="331" fill="#7cb5ec" stroke="#ffffff" stroke-width="1" class="highcharts-point highcharts-color-0"></rect><rect x="121.5" y="207.5" width="20" height="276" fill="#7cb5ec" stroke="#ffffff" stroke-width="1" class="highcharts-point highcharts-color-0"></rect><rect x="41.5" y="124.5" width="20" height="359" fill="#7cb5ec" stroke="#ffffff" stroke-width="1" class="highcharts-point highcharts-color-0"></rect></g><g class="highcharts-markers highcharts-series-0 highcharts-bar-series highcharts-color-0 " transform="translate(590,286) rotate(90) scale(-1,1) scale(1 1)" clip-path="none"></g><g class="highcharts-series highcharts-series-1 highcharts-bar-series highcharts-color-1 " transform="translate(590,286) rotate(90) scale(-1,1) scale(1 1)" clip-path="url(#highcharts-d1oekui-5)"><rect x="177.5" y="207.5" width="20" height="276" fill="#434348" stroke="#ffffff" stroke-width="1" class="highcharts-point highcharts-color-1"></rect><rect x="97.5" y="69.5" width="20" height="414" fill="#434348" stroke="#ffffff" stroke-width="1" class="highcharts-point highcharts-color-1"></rect><rect x="17.5" y="207.5" width="20" height="276" fill="#434348" stroke="#ffffff" stroke-width="1" class="highcharts-point highcharts-color-1"></rect></g><g class="highcharts-markers highcharts-series-1 highcharts-bar-series highcharts-color-1 " transform="translate(590,286) rotate(90) scale(-1,1) scale(1 1)" clip-path="none"></g></g><g class="highcharts-legend" transform="translate(44,10)"><rect fill="none" class="highcharts-legend-box" rx="0" ry="0" x="0" y="0" width="512" height="25" visibility="visible"></rect><g><g><g class="highcharts-legend-item highcharts-bar-series highcharts-color-0 highcharts-series-0" transform="translate(8,3)"><text x="21" style="color:#333333;font-size:12px;font-weight:bold;cursor:pointer;fill:#333333;" text-anchor="start" y="15"><tspan>Amounts based on voting</tspan></text><rect x="2" y="4" width="12" height="12" fill="#7cb5ec" rx="6" ry="6" class="highcharts-point"></rect></g><g class="highcharts-legend-item highcharts-bar-series highcharts-color-1 highcharts-series-1" transform="translate(196.328125,3)"><text x="21" y="15" style="color:#333333;font-size:12px;font-weight:bold;cursor:pointer;fill:#333333;" text-anchor="start"><tspan>If every broadcast would receive the same amount</tspan></text><rect x="2" y="4" width="12" height="12" fill="#434348" rx="6" ry="6" class="highcharts-point"></rect></g></g></g></g><g class="highcharts-axis-labels highcharts-xaxis-labels "><text x="92" style="color:#666666;cursor:default;font-size:11px;fill:#666666;" text-anchor="end" transform="translate(0,0)" y="92" opacity="1"><tspan>NDR Fernsehen</tspan></text><text x="92" style="color:#666666;cursor:default;font-size:11px;fill:#666666;" text-anchor="end" transform="translate(0,0)" y="172" opacity="1"><tspan>WDR Fernsehen</tspan></text><text x="92" style="color:#666666;cursor:default;font-size:11px;fill:#666666;" text-anchor="end" transform="translate(0,0)" y="251" opacity="1"><tspan>ZDF</tspan></text></g><g class="highcharts-axis-labels highcharts-yaxis-labels "><text x="107" style="color:#666666;cursor:default;font-size:11px;fill:#666666;" text-anchor="middle" transform="translate(0,0)" y="305" opacity="1">0</text><text x="383" style="color:#666666;cursor:default;font-size:11px;fill:#666666;" text-anchor="middle" transform="translate(0,0)" y="305" opacity="1">10</text><text x="176" style="color:#666666;cursor:default;font-size:11px;fill:#666666;" text-anchor="middle" transform="translate(0,0)" y="305" opacity="1">2.5</text><text x="245" style="color:#666666;cursor:default;font-size:11px;fill:#666666;" text-anchor="middle" transform="translate(0,0)" y="305" opacity="1">5</text><text x="314" style="color:#666666;cursor:default;font-size:11px;fill:#666666;" text-anchor="middle" transform="translate(0,0)" y="305" opacity="1">7.5</text><text x="452" style="color:#666666;cursor:default;font-size:11px;fill:#666666;" text-anchor="middle" transform="translate(0,0)" y="305" opacity="1">12.5</text><text x="521" style="color:#666666;cursor:default;font-size:11px;fill:#666666;" text-anchor="middle" transform="translate(0,0)" y="305" opacity="1">15</text><text x="579.296875" style="color:#666666;cursor:default;font-size:11px;fill:#666666;" text-anchor="middle" transform="translate(0,0)" y="305" opacity="1">17.5</text></g></svg>