<?xml version="1.0" standalone="no"?><!DOCTYPE svg PUBLIC "-//W3C//DTD SVG 1.1//EN" "http://www.w3.org/Graphics/SVG/1.1/DTD/svg11.dtd"><svg xmlns:xlink="http://www.w3.org/1999/xlink" version="1.1" class="highcharts-root" style="font-family:&quot;lucida grande&quot;, &quot;lucida sans unicode&quot;, arial, helvetica, sans-serif;font-size:12px;" xmlns="http://www.w3.org/2000/svg" width="600" height="600" viewBox="0 0 600 600"><desc>Created with Highcharts 5.0.11</desc><defs><clipPath id="highcharts-d1lp1om-5"><rect x="0" y="0" width="443" height="483" fill="none"></rect></clipPath></defs><rect fill="#ffffff" class="highcharts-background" x="0" y="0" width="600" height="600" rx="0" ry="0"></rect><rect fill="none" class="highcharts-plot-background" x="107" y="66" width="483" height="443"></rect><g class="highcharts-grid highcharts-xaxis-grid "><path fill="none" class="highcharts-grid-line" d="M 107 214.5 L 590 214.5" opacity="1"></path><path fill="none" class="highcharts-grid-line" d="M 107 361.5 L 590 361.5" opacity="1"></path><path fill="none" class="highcharts-grid-line" d="M 107 509.5 L 590 509.5" opacity="1"></path><path fill="none" class="highcharts-grid-line" d="M 107 66.5 L 590 66.5" opacity="1"></path></g><g class="highcharts-grid highcharts-yaxis-grid "><path fill="none" stroke="#e6e6e6" stroke-width="1" class="highcharts-grid-line" d="M 106.5 66 L 106.5 509" opacity="1"></path><path fill="none" stroke="#e6e6e6" stroke-width="1" class="highcharts-grid-line" d="M 175.5 66 L 175.5 509" opacity="1"></path><path fill="none" stroke="#e6e6e6" stroke-width="1" class="highcharts-grid-line" d="M 244.5 66 L 244.5 509" opacity="1"></path><path fill="none" stroke="#e6e6e6" stroke-width="1" class="highcharts-grid-line" d="M 313.5 66 L 313.5 509" opacity="1"></path><path fill="none" stroke="#e6e6e6" stroke-width="1" class="highcharts-grid-line" d="M 382.5 66 L 382.5 509" opacity="1"></path><path fill="none" stroke="#e6e6e6" stroke-width="1" class="highcharts-grid-line" d="M 451.5 66 L 451.5 509" opacity="1"></path><path fill="none" stroke="#e6e6e6" stroke-width="1" class="highcharts-grid-line" d="M 520.5 66 L 520.5 509" opacity="1"></path><path fill="none" stroke="#e6e6e6" stroke-width="1" class="highcharts-grid-line" d="M 590.5 66 L 590.5 509" opacity="1"></path></g><rect fill="none" class="highcharts-plot-border" x="107" y="66" width="483" height="443"></rect><g class="highcharts-axis highcharts-xaxis "><path fill="none" class="highcharts-tick" stroke="#ccd6eb" stroke-width="1" d="M 107 214.5 L 97 214.5" opacity="1"></path><path fill="none" class="highcharts-tick" stroke="#ccd6eb" stroke-width="1" d="M 107 361.5 L 97 361.5" opacity="1"></path><path fill="none" class="highcharts-tick" stroke="#ccd6eb" stroke-width="1" d="M 107 509.5 L 97 509.5" opacity="1"></path><path fill="none" class="highcharts-tick" stroke="#ccd6eb" stroke-width="1" d="M 107 66.5 L 97 66.5" opacity="1"></path><path fill="none" class="highcharts-axis-line" stroke="#ccd6eb" stroke-width="1" d="M 106.5 66 L 106.5 509"></path></g><g class="highcharts-axis highcharts-yaxis "><text x="348.5" text-anchor="middle" transform="translate(0,0)" class="highcharts-axis-title" style="color:#666666;fill:#666666;" y="546"><tspan>€ per month</tspan></text><path fill="none" class="highcharts-axis-line" d="M 107 509 L 590 509"></path></g><g class="highcharts-series-group"><g class="highcharts-series highcharts-series-0 highcharts-bar-series highcharts-color-0 " transform="translate(590,509) rotate(90) scale(-1,1) scale(1 1)" clip-path="url(#highcharts-d1lp1om-5)"><rect x="373.5" y="152.5" width="36" height="331" fill="#7cb5ec" stroke="#ffffff" stroke-width="1" class="highcharts-point highcharts-color-0"></rect><rect x="225.5" y="207.5" width="36" height="276" fill="#7cb5ec" stroke="#ffffff" stroke-width="1" class="highcharts-point highcharts-color-0"></rect><rect x="77.5" y="124.5" width="36" height="359" fill="#7cb5ec" stroke="#ffffff" stroke-width="1" class="highcharts-point highcharts-color-0"></rect></g><g class="highcharts-markers highcharts-series-0 highcharts-bar-series highcharts-color-0 " transform="translate(590,509) rotate(90) scale(-1,1) scale(1 1)" clip-path="none"></g><g class="highcharts-series highcharts-series-1 highcharts-bar-series highcharts-color-1 " transform="translate(590,509) rotate(90) scale(-1,1) scale(1 1)" clip-path="url(#highcharts-d1lp1om-5)"><rect x="328.5" y="207.5" width="36" height="276" fill="#434348" stroke="#ffffff" stroke-width="1" class="highcharts-point highcharts-color-1"></rect><rect x="181.5" y="69.5" width="36" height="414" fill="#434348" stroke="#ffffff" stroke-width="1" class="highcharts-point highcharts-color-1"></rect><rect x="33.5" y="207.5" width="36" height="276" fill="#434348" stroke="#ffffff" stroke-width="1" class="highcharts-point highcharts-color-1"></rect></g><g class="highcharts-markers highcharts-series-1 highcharts-bar-series highcharts-color-1 " transform="translate(590,509) rotate(90) scale(-1,1) scale(1 1)" clip-path="none"></g></g><text x="300" text-anchor="middle" class="highcharts-title" style="color:#333333;font-size:18px;fill:#333333;" y="24"><tspan>Amounts to be expected given a uniform distribution and amounts</tspan><tspan dy="21" x="300">as desired by users - grouped by TV and radio station</tspan><title>Amounts to be expected given a uniform distribution and amounts as desired by users - grouped by TV and radio station </title></text><g class="highcharts-legend" transform="translate(96,560)"><rect fill="none" class="highcharts-legend-box" rx="0" ry="0" x="0" y="0" width="408" height="25" visibility="visible"></rect><g><g><g class="highcharts-legend-item highcharts-bar-series highcharts-color-0 highcharts-series-0" transform="translate(8,3)"><text x="21" style="color:#333333;font-size:12px;font-weight:bold;cursor:pointer;fill:#333333;" text-anchor="start" y="15"><tspan>Actual distribution</tspan></text><rect x="2" y="4" width="12" height="12" fill="#7cb5ec" rx="6" ry="6" class="highcharts-point"></rect></g><g class="highcharts-legend-item highcharts-bar-series highcharts-color-1 highcharts-series-1" transform="translate(154.984375,3)"><text x="21" y="15" style="color:#333333;font-size:12px;font-weight:bold;cursor:pointer;fill:#333333;" text-anchor="start"><tspan>Expected value for uniform distribution</tspan></text><rect x="2" y="4" width="12" height="12" fill="#434348" rx="6" ry="6" class="highcharts-point"></rect></g></g></g></g><g class="highcharts-axis-labels highcharts-xaxis-labels "><text x="92" style="color:#666666;cursor:default;font-size:11px;fill:#666666;" text-anchor="end" transform="translate(0,0)" y="145" opacity="1"><tspan>NDR Fernsehen</tspan></text><text x="92" style="color:#666666;cursor:default;font-size:11px;fill:#666666;" text-anchor="end" transform="translate(0,0)" y="293" opacity="1"><tspan>WDR Fernsehen</tspan></text><text x="92" style="color:#666666;cursor:default;font-size:11px;fill:#666666;" text-anchor="end" transform="translate(0,0)" y="440" opacity="1"><tspan>ZDF</tspan></text></g><g class="highcharts-axis-labels highcharts-yaxis-labels "><text x="107" style="color:#666666;cursor:default;font-size:11px;fill:#666666;" text-anchor="middle" transform="translate(0,0)" y="528" opacity="1">0</text><text x="383" style="color:#666666;cursor:default;font-size:11px;fill:#666666;" text-anchor="middle" transform="translate(0,0)" y="528" opacity="1">10</text><text x="176" style="color:#666666;cursor:default;font-size:11px;fill:#666666;" text-anchor="middle" transform="translate(0,0)" y="528" opacity="1">2.5</text><text x="245" style="color:#666666;cursor:default;font-size:11px;fill:#666666;" text-anchor="middle" transform="translate(0,0)" y="528" opacity="1">5</text><text x="314" style="color:#666666;cursor:default;font-size:11px;fill:#666666;" text-anchor="middle" transform="translate(0,0)" y="528" opacity="1">7.5</text><text x="452" style="color:#666666;cursor:default;font-size:11px;fill:#666666;" text-anchor="middle" transform="translate(0,0)" y="528" opacity="1">12.5</text><text x="521" style="color:#666666;cursor:default;font-size:11px;fill:#666666;" text-anchor="middle" transform="translate(0,0)" y="528" opacity="1">15</text><text x="579.296875" style="color:#666666;cursor:default;font-size:11px;fill:#666666;" text-anchor="middle" transform="translate(0,0)" y="528" opacity="1">17.5</text></g></svg>