<svg version="1.1" class="highcharts-root" style="font-family:&quot;Lucida Grande&quot;, &quot;Lucida Sans Unicode&quot;, Arial, Helvetica, sans-serif;font-size:12px;" xmlns="http://www.w3.org/2000/svg" width="933" height="340" viewBox="0 0 933 340"><desc>Created with Highcharts 6.0.1</desc><defs><clipPath id="highcharts-v671jc0-3"><rect x="0" y="0" width="228" height="816" fill="none"></rect></clipPath></defs><rect fill="#ffffff" class="highcharts-background" x="0" y="0" width="933" height="340" rx="0" ry="0"></rect><rect fill="none" class="highcharts-plot-background" x="107" y="55" width="816" height="228"></rect><g class="highcharts-grid highcharts-xaxis-grid "><path fill="none" class="highcharts-grid-line" d="M 107 131.5 L 923 131.5" opacity="1"></path><path fill="none" class="highcharts-grid-line" d="M 107 207.5 L 923 207.5" opacity="1"></path><path fill="none" class="highcharts-grid-line" d="M 107 283.5 L 923 283.5" opacity="1"></path><path fill="none" class="highcharts-grid-line" d="M 107 55.5 L 923 55.5" opacity="1"></path></g><g class="highcharts-grid highcharts-yaxis-grid "><path fill="none" stroke="#e6e6e6" stroke-width="1" class="highcharts-grid-line" d="M 106.5 55 L 106.5 283" opacity="1"></path><path fill="none" stroke="#e6e6e6" stroke-width="1" class="highcharts-grid-line" d="M 174.5 55 L 174.5 283" opacity="1"></path><path fill="none" stroke="#e6e6e6" stroke-width="1" class="highcharts-grid-line" d="M 242.5 55 L 242.5 283" opacity="1"></path><path fill="none" stroke="#e6e6e6" stroke-width="1" class="highcharts-grid-line" d="M 310.5 55 L 310.5 283" opacity="1"></path><path fill="none" stroke="#e6e6e6" stroke-width="1" class="highcharts-grid-line" d="M 378.5 55 L 378.5 283" opacity="1"></path><path fill="none" stroke="#e6e6e6" stroke-width="1" class="highcharts-grid-line" d="M 446.5 55 L 446.5 283" opacity="1"></path><path fill="none" stroke="#e6e6e6" stroke-width="1" class="highcharts-grid-line" d="M 514.5 55 L 514.5 283" opacity="1"></path><path fill="none" stroke="#e6e6e6" stroke-width="1" class="highcharts-grid-line" d="M 582.5 55 L 582.5 283" opacity="1"></path><path fill="none" stroke="#e6e6e6" stroke-width="1" class="highcharts-grid-line" d="M 650.5 55 L 650.5 283" opacity="1"></path><path fill="none" stroke="#e6e6e6" stroke-width="1" class="highcharts-grid-line" d="M 718.5 55 L 718.5 283" opacity="1"></path><path fill="none" stroke="#e6e6e6" stroke-width="1" class="highcharts-grid-line" d="M 786.5 55 L 786.5 283" opacity="1"></path><path fill="none" stroke="#e6e6e6" stroke-width="1" class="highcharts-grid-line" d="M 854.5 55 L 854.5 283" opacity="1"></path><path fill="none" stroke="#e6e6e6" stroke-width="1" class="highcharts-grid-line" d="M 923.5 55 L 923.5 283" opacity="1"></path></g><g class="highcharts-grid highcharts-yaxis-grid "><path fill="none" stroke="#e6e6e6" stroke-width="1" class="highcharts-grid-line" d="M 106.5 55 L 106.5 283" opacity="1"></path><path fill="none" stroke="#e6e6e6" stroke-width="1" class="highcharts-grid-line" d="M 174.5 55 L 174.5 283" opacity="1"></path><path fill="none" stroke="#e6e6e6" stroke-width="1" class="highcharts-grid-line" d="M 242.5 55 L 242.5 283" opacity="1"></path><path fill="none" stroke="#e6e6e6" stroke-width="1" class="highcharts-grid-line" d="M 310.5 55 L 310.5 283" opacity="1"></path><path fill="none" stroke="#e6e6e6" stroke-width="1" class="highcharts-grid-line" d="M 378.5 55 L 378.5 283" opacity="1"></path><path fill="none" stroke="#e6e6e6" stroke-width="1" class="highcharts-grid-line" d="M 446.5 55 L 446.5 283" opacity="1"></path><path fill="none" stroke="#e6e6e6" stroke-width="1" class="highcharts-grid-line" d="M 514.5 55 L 514.5 283" opacity="1"></path><path fill="none" stroke="#e6e6e6" stroke-width="1" class="highcharts-grid-line" d="M 582.5 55 L 582.5 283" opacity="1"></path><path fill="none" stroke="#e6e6e6" stroke-width="1" class="highcharts-grid-line" d="M 650.5 55 L 650.5 283" opacity="1"></path><path fill="none" stroke="#e6e6e6" stroke-width="1" class="highcharts-grid-line" d="M 718.5 55 L 718.5 283" opacity="1"></path><path fill="none" stroke="#e6e6e6" stroke-width="1" class="highcharts-grid-line" d="M 786.5 55 L 786.5 283" opacity="1"></path><path fill="none" stroke="#e6e6e6" stroke-width="1" class="highcharts-grid-line" d="M 854.5 55 L 854.5 283" opacity="1"></path><path fill="none" stroke="#e6e6e6" stroke-width="1" class="highcharts-grid-line" d="M 923.5 55 L 923.5 283" opacity="1"></path></g><rect fill="none" class="highcharts-plot-border" x="107" y="55" width="816" height="228"></rect><g class="highcharts-axis highcharts-xaxis "><path fill="none" class="highcharts-tick" stroke="#ccd6eb" stroke-width="1" d="M 107 131.5 L 97 131.5" opacity="1"></path><path fill="none" class="highcharts-tick" stroke="#ccd6eb" stroke-width="1" d="M 107 207.5 L 97 207.5" opacity="1"></path><path fill="none" class="highcharts-tick" stroke="#ccd6eb" stroke-width="1" d="M 107 283.5 L 97 283.5" opacity="1"></path><path fill="none" class="highcharts-tick" stroke="#ccd6eb" stroke-width="1" d="M 107 54.5 L 97 54.5" opacity="1"></path><path fill="none" class="highcharts-axis-line" stroke="#ccd6eb" stroke-width="1" d="M 106.5 55 L 106.5 283"></path></g><g class="highcharts-axis highcharts-yaxis "><text x="107" text-anchor="start" transform="translate(0,0)" class="highcharts-axis-title" style="color:#666666;font-weight:bold;font-size:16px;fill:#666666;" y="324"><tspan>Euro per month</tspan></text><path fill="none" class="highcharts-axis-line" d="M 107 283 L 923 283"></path></g><g class="highcharts-axis highcharts-yaxis "><text x="107" text-anchor="start" transform="translate(0,0)" class="highcharts-axis-title" style="color:#666666;font-weight:bold;font-size:16px;fill:#666666;" y="27"><tspan>Number of broadcasts</tspan></text><path fill="none" class="highcharts-axis-line" d="M 107 55 L 923 55"></path></g><g class="highcharts-series-group"><g class="highcharts-series highcharts-series-0 highcharts-column-series highcharts-color-0 highcharts-tracker" transform="translate(923,283) rotate(90) scale(-1,1) scale(1 1)" clip-path="url(#highcharts-v671jc0-3)"><rect x="191.5" y="272.5" width="19" height="544" fill="#7cb5ec" stroke="#ffffff" stroke-width="1" class="highcharts-point highcharts-color-0"></rect><rect x="115.5" y="363.5" width="19" height="453" fill="#7cb5ec" stroke="#ffffff" stroke-width="1" class="highcharts-point highcharts-color-0"></rect><rect x="39.5" y="227.5" width="19" height="589" fill="#7cb5ec" stroke="#ffffff" stroke-width="1" class="highcharts-point highcharts-color-0"></rect></g><g class="highcharts-markers highcharts-series-0 highcharts-column-series highcharts-color-0 " transform="translate(923,283) rotate(90) scale(-1,1) scale(1 1)" clip-path="none"></g><g class="highcharts-series highcharts-series-1 highcharts-column-series highcharts-color-1 highcharts-tracker" transform="translate(923,283) rotate(90) scale(-1,1) scale(1 1)" clip-path="url(#highcharts-v671jc0-3)"><rect x="168.5" y="363.5" width="19" height="453" fill="#434348" stroke="#ffffff" stroke-width="1" class="highcharts-point highcharts-color-1"></rect><rect x="92.5" y="136.5" width="19" height="680" fill="#434348" stroke="#ffffff" stroke-width="1" class="highcharts-point highcharts-color-1"></rect><rect x="16.5" y="363.5" width="19" height="453" fill="#434348" stroke="#ffffff" stroke-width="1" class="highcharts-point highcharts-color-1"></rect></g><g class="highcharts-markers highcharts-series-1 highcharts-column-series highcharts-color-1 " transform="translate(923,283) rotate(90) scale(-1,1) scale(1 1)" clip-path="none"></g><g class="highcharts-series highcharts-series-2 highcharts-spline-series highcharts-color-2 " transform="translate(923,283) rotate(90) scale(-1,1) scale(1 1)" clip-path="url(#highcharts-v671jc0-3)"><path fill="none" d="M 190 748 C 190 748 144.4 68.00000000000011 114 68.00000000000011 C 83.6 68.00000000000011 38 748 38 748" class="highcharts-graph" stroke="#90ed7d" stroke-width="2" stroke-linejoin="round" stroke-linecap="round"></path><path fill="none" d="M 180 748 L 190 748 C 190 748 144.4 68.00000000000011 114 68.00000000000011 C 83.6 68.00000000000011 38 748 38 748 L 48 748" stroke-linejoin="round" visibility="visible" stroke="rgba(192,192,192,0.0001)" stroke-width="22" class="highcharts-tracker"></path></g><g class="highcharts-markers highcharts-series-2 highcharts-spline-series highcharts-color-2 highcharts-tracker" transform="translate(923,283) rotate(90) scale(-1,1) scale(1 1)"></g></g><g class="highcharts-button highcharts-contextbutton" style="cursor:pointer;" stroke-linecap="round" transform="translate(899,10)"><title>Chart context menu</title><rect fill="#ffffff" class=" highcharts-button-box" x="0.5" y="0.5" width="24" height="22" rx="2" ry="2" stroke="none" stroke-width="1"></rect><path fill="#666666" d="M 6 6.5 L 20 6.5 M 6 11.5 L 20 11.5 M 6 16.5 L 20 16.5" class="highcharts-button-symbol" stroke="#666666" stroke-width="3"></path><text x="0" style="font-weight:normal;color:#333333;fill:#333333;" y="12"></text></g><g class="highcharts-legend" transform="translate(758,141)"><rect fill="none" class="highcharts-legend-box" rx="0" ry="0" x="0" y="0" width="164" height="53" visibility="visible"></rect><g><g><g class="highcharts-legend-item highcharts-column-series highcharts-color-0 highcharts-series-0" transform="translate(8,3)"><text x="21" style="color:#333333;font-size:12px;font-weight:bold;cursor:pointer;fill:#333333;" text-anchor="start" y="15"><tspan>Actual amount</tspan></text><rect x="2" y="4" width="12" height="12" fill="#7cb5ec" rx="6" ry="6" class="highcharts-point"></rect></g><g class="highcharts-legend-item highcharts-column-series highcharts-color-1 highcharts-series-1" transform="translate(8,17)"><text x="21" y="15" style="color:#333333;font-size:12px;font-weight:bold;cursor:pointer;fill:#333333;" text-anchor="start"><tspan>Expected amount</tspan></text><rect x="2" y="4" width="12" height="12" fill="#434348" rx="6" ry="6" class="highcharts-point"></rect></g><g class="highcharts-legend-item highcharts-spline-series highcharts-color-2 highcharts-series-2" transform="translate(8,31)"><path fill="none" d="M 0 11 L 16 11" class="highcharts-graph" stroke="#90ed7d" stroke-width="2"></path><text x="21" y="15" style="color:#333333;font-size:12px;font-weight:bold;cursor:pointer;fill:#333333;" text-anchor="start"><tspan>Number of broadcasts</tspan></text></g></g></g></g><g class="highcharts-axis-labels highcharts-xaxis-labels "><text x="92" style="color:#666666;cursor:default;font-size:11px;fill:#666666;" text-anchor="end" transform="translate(0,0)" y="98" opacity="1"><tspan>NDR Fernsehen</tspan></text><text x="92" style="color:#666666;cursor:default;font-size:11px;fill:#666666;" text-anchor="end" transform="translate(0,0)" y="174" opacity="1"><tspan>WDR Fernsehen</tspan></text><text x="92" style="color:#666666;cursor:default;font-size:11px;fill:#666666;" text-anchor="end" transform="translate(0,0)" y="250" opacity="1"><tspan>ZDF</tspan></text></g><g class="highcharts-axis-labels highcharts-yaxis-labels "><text x="107" style="color:#666666;cursor:default;font-size:11px;fill:#666666;" text-anchor="middle" transform="translate(0,0)" y="302" opacity="1"><tspan>0</tspan></text><text x="175" style="color:#666666;cursor:default;font-size:11px;fill:#666666;" text-anchor="middle" transform="translate(0,0)" y="302" opacity="1"><tspan>1.5</tspan></text><text x="243" style="color:#666666;cursor:default;font-size:11px;fill:#666666;" text-anchor="middle" transform="translate(0,0)" y="302" opacity="1"><tspan>3</tspan></text><text x="311" style="color:#666666;cursor:default;font-size:11px;fill:#666666;" text-anchor="middle" transform="translate(0,0)" y="302" opacity="1"><tspan>4.5</tspan></text><text x="379" style="color:#666666;cursor:default;font-size:11px;fill:#666666;" text-anchor="middle" transform="translate(0,0)" y="302" opacity="1"><tspan>6</tspan></text><text x="447" style="color:#666666;cursor:default;font-size:11px;fill:#666666;" text-anchor="middle" transform="translate(0,0)" y="302" opacity="1"><tspan>7.5</tspan></text><text x="515" style="color:#666666;cursor:default;font-size:11px;fill:#666666;" text-anchor="middle" transform="translate(0,0)" y="302" opacity="1"><tspan>9</tspan></text><text x="583" style="color:#666666;cursor:default;font-size:11px;fill:#666666;" text-anchor="middle" transform="translate(0,0)" y="302" opacity="1"><tspan>10.5</tspan></text><text x="651" style="color:#666666;cursor:default;font-size:11px;fill:#666666;" text-anchor="middle" transform="translate(0,0)" y="302" opacity="1"><tspan>12</tspan></text><text x="719" style="color:#666666;cursor:default;font-size:11px;fill:#666666;" text-anchor="middle" transform="translate(0,0)" y="302" opacity="1"><tspan>13.5</tspan></text><text x="787" style="color:#666666;cursor:default;font-size:11px;fill:#666666;" text-anchor="middle" transform="translate(0,0)" y="302" opacity="1"><tspan>15</tspan></text><text x="855" style="color:#666666;cursor:default;font-size:11px;fill:#666666;" text-anchor="middle" transform="translate(0,0)" y="302" opacity="1"><tspan>16.5</tspan></text><text x="916.8828125" style="color:#666666;cursor:default;font-size:11px;fill:#666666;" text-anchor="middle" transform="translate(0,0)" y="302" opacity="1"><tspan>18</tspan></text></g><g class="highcharts-axis-labels highcharts-yaxis-labels "><text x="107" style="color:#666666;cursor:default;font-size:11px;fill:#666666;" text-anchor="middle" transform="translate(0,0)" y="43" opacity="1"><tspan>1.9</tspan></text><text x="175.00000000000006" style="color:#666666;cursor:default;font-size:11px;fill:#666666;" text-anchor="middle" transform="translate(0,0)" y="43" opacity="1"><tspan>2</tspan></text><text x="243.00000000000009" style="color:#666666;cursor:default;font-size:11px;fill:#666666;" text-anchor="middle" transform="translate(0,0)" y="43" opacity="1"><tspan>2.1</tspan></text><text x="311.0000000000001" style="color:#666666;cursor:default;font-size:11px;fill:#666666;" text-anchor="middle" transform="translate(0,0)" y="43" opacity="1"><tspan>2.2</tspan></text><text x="378.9999999999999" style="color:#666666;cursor:default;font-size:11px;fill:#666666;" text-anchor="middle" transform="translate(0,0)" y="43" opacity="1"><tspan>2.3</tspan></text><text x="446.99999999999994" style="color:#666666;cursor:default;font-size:11px;fill:#666666;" text-anchor="middle" transform="translate(0,0)" y="43" opacity="1"><tspan>2.4</tspan></text><text x="515" style="color:#666666;cursor:default;font-size:11px;fill:#666666;" text-anchor="middle" transform="translate(0,0)" y="43" opacity="1"><tspan>2.5</tspan></text><text x="583" style="color:#666666;cursor:default;font-size:11px;fill:#666666;" text-anchor="middle" transform="translate(0,0)" y="43" opacity="1"><tspan>2.6</tspan></text><text x="651.0000000000001" style="color:#666666;cursor:default;font-size:11px;fill:#666666;" text-anchor="middle" transform="translate(0,0)" y="43" opacity="1"><tspan>2.7</tspan></text><text x="718.9999999999999" style="color:#666666;cursor:default;font-size:11px;fill:#666666;" text-anchor="middle" transform="translate(0,0)" y="43" opacity="1"><tspan>2.8</tspan></text><text x="786.9999999999999" style="color:#666666;cursor:default;font-size:11px;fill:#666666;" text-anchor="middle" transform="translate(0,0)" y="43" opacity="1"><tspan>2.9</tspan></text><text x="854.9999999999999" style="color:#666666;cursor:default;font-size:11px;fill:#666666;" text-anchor="middle" transform="translate(0,0)" y="43" opacity="1"><tspan>3</tspan></text><text x="915.359375" style="color:#666666;cursor:default;font-size:11px;fill:#666666;" text-anchor="middle" transform="translate(0,0)" y="43" opacity="1"><tspan>3.1</tspan></text></g></svg>