<?xml version="1.0" standalone="no"?><!DOCTYPE svg PUBLIC "-//W3C//DTD SVG 1.1//EN" "http://www.w3.org/Graphics/SVG/1.1/DTD/svg11.dtd"><svg xmlns:xlink="http://www.w3.org/1999/xlink" version="1.1" class="highcharts-root" style="font-family:&quot;lucida grande&quot;, &quot;lucida sans unicode&quot;, arial, helvetica, sans-serif;font-size:12px;" xmlns="http://www.w3.org/2000/svg" width="600" height="340" viewBox="0 0 600 340"><desc>Created with Highcharts 5.0.14</desc><defs><clipPath id="highcharts-iwouk8w-16"><rect x="0" y="0" width="228" height="483" fill="none"></rect></clipPath></defs><rect fill="#ffffff" class="highcharts-background" x="0" y="0" width="600" height="340" rx="0" ry="0"></rect><rect fill="none" class="highcharts-plot-background" x="107" y="55" width="483" height="228"></rect><g class="highcharts-grid highcharts-xaxis-grid "><path fill="none" class="highcharts-grid-line" d="M 107 131.5 L 590 131.5" opacity="1"></path><path fill="none" class="highcharts-grid-line" d="M 107 207.5 L 590 207.5" opacity="1"></path><path fill="none" class="highcharts-grid-line" d="M 107 283.5 L 590 283.5" opacity="1"></path><path fill="none" class="highcharts-grid-line" d="M 107 55.5 L 590 55.5" opacity="1"></path></g><g class="highcharts-grid highcharts-yaxis-grid "><path fill="none" stroke="#e6e6e6" stroke-width="1" class="highcharts-grid-line" d="M 106.5 55 L 106.5 283" opacity="1"></path><path fill="none" stroke="#e6e6e6" stroke-width="1" class="highcharts-grid-line" d="M 175.5 55 L 175.5 283" opacity="1"></path><path fill="none" stroke="#e6e6e6" stroke-width="1" class="highcharts-grid-line" d="M 244.5 55 L 244.5 283" opacity="1"></path><path fill="none" stroke="#e6e6e6" stroke-width="1" class="highcharts-grid-line" d="M 313.5 55 L 313.5 283" opacity="1"></path><path fill="none" stroke="#e6e6e6" stroke-width="1" class="highcharts-grid-line" d="M 382.5 55 L 382.5 283" opacity="1"></path><path fill="none" stroke="#e6e6e6" stroke-width="1" class="highcharts-grid-line" d="M 451.5 55 L 451.5 283" opacity="1"></path><path fill="none" stroke="#e6e6e6" stroke-width="1" class="highcharts-grid-line" d="M 520.5 55 L 520.5 283" opacity="1"></path><path fill="none" stroke="#e6e6e6" stroke-width="1" class="highcharts-grid-line" d="M 590.5 55 L 590.5 283" opacity="1"></path></g><g class="highcharts-grid highcharts-yaxis-grid "><path fill="none" stroke="#e6e6e6" stroke-width="1" class="highcharts-grid-line" d="M 106.5 55 L 106.5 283" opacity="1"></path><path fill="none" stroke="#e6e6e6" stroke-width="1" class="highcharts-grid-line" d="M 175.5 55 L 175.5 283" opacity="1"></path><path fill="none" stroke="#e6e6e6" stroke-width="1" class="highcharts-grid-line" d="M 244.5 55 L 244.5 283" opacity="1"></path><path fill="none" stroke="#e6e6e6" stroke-width="1" class="highcharts-grid-line" d="M 313.5 55 L 313.5 283" opacity="1"></path><path fill="none" stroke="#e6e6e6" stroke-width="1" class="highcharts-grid-line" d="M 382.5 55 L 382.5 283" opacity="1"></path><path fill="none" stroke="#e6e6e6" stroke-width="1" class="highcharts-grid-line" d="M 451.5 55 L 451.5 283" opacity="1"></path><path fill="none" stroke="#e6e6e6" stroke-width="1" class="highcharts-grid-line" d="M 520.5 55 L 520.5 283" opacity="1"></path><path fill="none" stroke="#e6e6e6" stroke-width="1" class="highcharts-grid-line" d="M 590.5 55 L 590.5 283" opacity="1"></path></g><rect fill="none" class="highcharts-plot-border" x="107" y="55" width="483" height="228"></rect><g class="highcharts-axis highcharts-xaxis "><path fill="none" class="highcharts-tick" stroke="#ccd6eb" stroke-width="1" d="M 107 131.5 L 97 131.5" opacity="1"></path><path fill="none" class="highcharts-tick" stroke="#ccd6eb" stroke-width="1" d="M 107 207.5 L 97 207.5" opacity="1"></path><path fill="none" class="highcharts-tick" stroke="#ccd6eb" stroke-width="1" d="M 107 283.5 L 97 283.5" opacity="1"></path><path fill="none" class="highcharts-tick" stroke="#ccd6eb" stroke-width="1" d="M 107 54.5 L 97 54.5" opacity="1"></path><path fill="none" class="highcharts-axis-line" stroke="#ccd6eb" stroke-width="1" d="M 106.5 55 L 106.5 283"></path></g><g class="highcharts-axis highcharts-yaxis "><text x="107" text-anchor="start" transform="translate(0,0)" class="highcharts-axis-title" style="color:#666666;font-weight:bold;font-size:16px;fill:#666666;" y="324"><tspan>Euro per month</tspan></text><path fill="none" class="highcharts-axis-line" d="M 107 283 L 590 283"></path></g><g class="highcharts-axis highcharts-yaxis "><text x="107" text-anchor="start" transform="translate(0,0)" class="highcharts-axis-title" style="color:#666666;font-weight:bold;font-size:16px;fill:#666666;" y="27"><tspan>Number of broadcasts</tspan></text><path fill="none" class="highcharts-axis-line" d="M 107 55 L 590 55"></path></g><g class="highcharts-series-group"><g class="highcharts-series highcharts-series-0 highcharts-column-series highcharts-color-0 " transform="translate(590,283) rotate(90) scale(-1,1) scale(1 1)" clip-path="url(#highcharts-iwouk8w-16)"><rect x="191.5" y="152.5" width="19" height="331" fill="#7cb5ec" stroke="#ffffff" stroke-width="1" class="highcharts-point highcharts-color-0"></rect><rect x="115.5" y="207.5" width="19" height="276" fill="#7cb5ec" stroke="#ffffff" stroke-width="1" class="highcharts-point highcharts-color-0"></rect><rect x="39.5" y="124.5" width="19" height="359" fill="#7cb5ec" stroke="#ffffff" stroke-width="1" class="highcharts-point highcharts-color-0"></rect></g><g class="highcharts-markers highcharts-series-0 highcharts-column-series highcharts-color-0 " transform="translate(590,283) rotate(90) scale(-1,1) scale(1 1)" clip-path="none"></g><g class="highcharts-series highcharts-series-1 highcharts-column-series highcharts-color-1 " transform="translate(590,283) rotate(90) scale(-1,1) scale(1 1)" clip-path="url(#highcharts-iwouk8w-16)"><rect x="168.5" y="207.5" width="19" height="276" fill="#434348" stroke="#ffffff" stroke-width="1" class="highcharts-point highcharts-color-1"></rect><rect x="92.5" y="69.5" width="19" height="414" fill="#434348" stroke="#ffffff" stroke-width="1" class="highcharts-point highcharts-color-1"></rect><rect x="16.5" y="207.5" width="19" height="276" fill="#434348" stroke="#ffffff" stroke-width="1" class="highcharts-point highcharts-color-1"></rect></g><g class="highcharts-markers highcharts-series-1 highcharts-column-series highcharts-color-1 " transform="translate(590,283) rotate(90) scale(-1,1) scale(1 1)" clip-path="none"></g><g class="highcharts-series highcharts-series-2 highcharts-spline-series highcharts-color-2 " transform="translate(590,283) rotate(90) scale(-1,1) scale(1 1)" clip-path="url(#highcharts-iwouk8w-16)"><path fill="none" d="M 190 414 C 190 414 144.4 69.00000000000006 114 69.00000000000006 C 83.6 69.00000000000006 38 414 38 414" class="highcharts-graph" stroke="#90ed7d" stroke-width="2" stroke-linejoin="round" stroke-linecap="round"></path></g><g class="highcharts-markers highcharts-series-2 highcharts-spline-series highcharts-color-2 " transform="translate(590,283) rotate(90) scale(-1,1) scale(1 1)" clip-path="none"></g></g><g class="highcharts-legend" transform="translate(425,141)"><rect fill="none" class="highcharts-legend-box" rx="0" ry="0" x="0" y="0" width="164" height="53" visibility="visible"></rect><g><g><g class="highcharts-legend-item highcharts-column-series highcharts-color-0 highcharts-series-0" transform="translate(8,3)"><text x="21" style="color:#333333;font-size:12px;font-weight:bold;cursor:pointer;fill:#333333;" text-anchor="start" y="15"><tspan>Actual amount</tspan></text><rect x="2" y="4" width="12" height="12" fill="#7cb5ec" rx="6" ry="6" class="highcharts-point"></rect></g><g class="highcharts-legend-item highcharts-column-series highcharts-color-1 highcharts-series-1" transform="translate(8,17)"><text x="21" y="15" style="color:#333333;font-size:12px;font-weight:bold;cursor:pointer;fill:#333333;" text-anchor="start"><tspan>Expected amount</tspan></text><rect x="2" y="4" width="12" height="12" fill="#434348" rx="6" ry="6" class="highcharts-point"></rect></g><g class="highcharts-legend-item highcharts-spline-series highcharts-color-2 highcharts-series-2" transform="translate(8,31)"><path fill="none" d="M 0 11 L 16 11" class="highcharts-graph" stroke="#90ed7d" stroke-width="2"></path><text x="21" y="15" style="color:#333333;font-size:12px;font-weight:bold;cursor:pointer;fill:#333333;" text-anchor="start"><tspan>Number of broadcasts</tspan></text></g></g></g></g><g class="highcharts-axis-labels highcharts-xaxis-labels "><text x="92" style="color:#666666;cursor:default;font-size:11px;fill:#666666;" text-anchor="end" transform="translate(0,0)" y="98" opacity="1"><tspan>NDR Fernsehen</tspan></text><text x="92" style="color:#666666;cursor:default;font-size:11px;fill:#666666;" text-anchor="end" transform="translate(0,0)" y="174" opacity="1"><tspan>WDR Fernsehen</tspan></text><text x="92" style="color:#666666;cursor:default;font-size:11px;fill:#666666;" text-anchor="end" transform="translate(0,0)" y="250" opacity="1"><tspan>ZDF</tspan></text></g><g class="highcharts-axis-labels highcharts-yaxis-labels "><text x="107" style="color:#666666;cursor:default;font-size:11px;fill:#666666;" text-anchor="middle" transform="translate(0,0)" y="302" opacity="1"><tspan>0</tspan></text><text x="383" style="color:#666666;cursor:default;font-size:11px;fill:#666666;" text-anchor="middle" transform="translate(0,0)" y="302" opacity="1"><tspan>10</tspan></text><text x="176" style="color:#666666;cursor:default;font-size:11px;fill:#666666;" text-anchor="middle" transform="translate(0,0)" y="302" opacity="1"><tspan>2.5</tspan></text><text x="245" style="color:#666666;cursor:default;font-size:11px;fill:#666666;" text-anchor="middle" transform="translate(0,0)" y="302" opacity="1"><tspan>5</tspan></text><text x="314" style="color:#666666;cursor:default;font-size:11px;fill:#666666;" text-anchor="middle" transform="translate(0,0)" y="302" opacity="1"><tspan>7.5</tspan></text><text x="452" style="color:#666666;cursor:default;font-size:11px;fill:#666666;" text-anchor="middle" transform="translate(0,0)" y="302" opacity="1"><tspan>12.5</tspan></text><text x="521" style="color:#666666;cursor:default;font-size:11px;fill:#666666;" text-anchor="middle" transform="translate(0,0)" y="302" opacity="1"><tspan>15</tspan></text><text x="579.296875" style="color:#666666;cursor:default;font-size:11px;fill:#666666;" text-anchor="middle" transform="translate(0,0)" y="302" opacity="1"><tspan>17.5</tspan></text></g><g class="highcharts-axis-labels highcharts-yaxis-labels "><text x="313.9999999999999" style="color:#666666;cursor:default;font-size:11px;fill:#666666;" text-anchor="middle" transform="translate(0,0)" y="43" opacity="1"><tspan>2.4</tspan></text><text x="521" style="color:#666666;cursor:default;font-size:11px;fill:#666666;" text-anchor="middle" transform="translate(0,0)" y="43" opacity="1"><tspan>3</tspan></text><text x="107" style="color:#666666;cursor:default;font-size:11px;fill:#666666;" text-anchor="middle" transform="translate(0,0)" y="43" opacity="1"><tspan>1.8</tspan></text><text x="175.99999999999997" style="color:#666666;cursor:default;font-size:11px;fill:#666666;" text-anchor="middle" transform="translate(0,0)" y="43" opacity="1"><tspan>2</tspan></text><text x="245.00000000000003" style="color:#666666;cursor:default;font-size:11px;fill:#666666;" text-anchor="middle" transform="translate(0,0)" y="43" opacity="1"><tspan>2.2</tspan></text><text x="382.99999999999994" style="color:#666666;cursor:default;font-size:11px;fill:#666666;" text-anchor="middle" transform="translate(0,0)" y="43" opacity="1"><tspan>2.6</tspan></text><text x="451.9999999999999" style="color:#666666;cursor:default;font-size:11px;fill:#666666;" text-anchor="middle" transform="translate(0,0)" y="43" opacity="1"><tspan>2.8</tspan></text><text x="582.359375" style="color:#666666;cursor:default;font-size:11px;fill:#666666;" text-anchor="middle" transform="translate(0,0)" y="43" opacity="1"><tspan>3.2</tspan></text></g></svg>