<?xml version="1.0" encoding="UTF-8" standalone="no"?>
<!-- Created with Inkscape (http://www.inkscape.org/) -->

<svg
   xmlns:dc="http://purl.org/dc/elements/1.1/"
   xmlns:cc="http://creativecommons.org/ns#"
   xmlns:rdf="http://www.w3.org/1999/02/22-rdf-syntax-ns#"
   xmlns:svg="http://www.w3.org/2000/svg"
   xmlns="http://www.w3.org/2000/svg"
   xmlns:sodipodi="http://sodipodi.sourceforge.net/DTD/sodipodi-0.dtd"
   xmlns:inkscape="http://www.inkscape.org/namespaces/inkscape"
   version="1.1"
   id="svg9553"
   width="1193"
   height="250"
   viewBox="0 0 1193 250"
   sodipodi:docname="flurfunk.svg"
   inkscape:version="0.92.2 5c3e80d, 2017-08-06">
  <metadata
     id="metadata9559">
    <rdf:RDF>
      <cc:Work
         rdf:about="">
        <dc:format>image/svg+xml</dc:format>
        <dc:type
           rdf:resource="http://purl.org/dc/dcmitype/StillImage" />
        <dc:title></dc:title>
      </cc:Work>
    </rdf:RDF>
  </metadata>
  <defs
     id="defs9557" />
  <sodipodi:namedview
     pagecolor="#ffffff"
     bordercolor="#666666"
     borderopacity="1"
     objecttolerance="10"
     gridtolerance="10"
     guidetolerance="10"
     inkscape:pageopacity="0"
     inkscape:pageshadow="2"
     inkscape:window-width="1916"
     inkscape:window-height="1032"
     id="namedview9555"
     showgrid="false"
     inkscape:zoom="1.1533948"
     inkscape:cx="446.01988"
     inkscape:cy="-58.983063"
     inkscape:window-x="0"
     inkscape:window-y="22"
     inkscape:window-maximized="0"
     inkscape:current-layer="svg9553" />
  <path
     style="fill:#000000"
     d="m 334.61332,210.0608 c -20.82698,-3.76156 -35.32216,-17.76469 -40.26286,-38.89611 -1.36913,-5.85574 -1.73587,-16.23578 -2.24356,-63.5 -0.65461,-60.941632 -0.4702,-59.035563 -6.0247,-62.27125 -1.42021,-0.82732 -4.9447,-1.821966 -7.8322,-2.210323 -4.25023,-0.571638 -5.25,-1.069099 -5.25,-2.612266 0,-1.833218 1.16716,-1.906162 30.5,-1.906162 29.30845,0 30.5,0.0743 30.5,1.901813 0,1.588009 -1.02701,2.021011 -6.22421,2.624209 -8.41761,0.976968 -12.27582,4.62417 -13.26475,12.539316 -0.37509,3.002095 -0.4758,29.078023 -0.2238,57.946513 0.3712,42.52485 0.75421,53.8467 2.01772,59.6452 2.71159,12.44398 8.31769,21.18691 16.40927,25.5909 12.57422,6.84374 34.228,5.39202 46.60651,-3.12461 8.52761,-5.86716 14.50681,-17.32845 17.20912,-32.98751 1.27824,-7.40701 1.49272,-17.44669 1.25583,-58.78421 -0.25607,-44.682602 -0.46184,-50.17321 -1.98458,-52.953121 -2.3323,-4.25786 -5.85784,-6.332287 -12.8573,-7.565216 C 378.14718,42.653062 377,42.085604 377,40.55784 c 0,-1.802661 1.09937,-1.893151 23,-1.893151 22.19899,0 23,0.06845 23,1.965557 0,1.606361 -0.92358,2.088074 -5.0539,2.635981 -6.36851,0.844813 -10.92358,3.895846 -12.53857,8.398462 -0.92884,2.589608 -1.27785,14.814874 -1.34177,47.000001 -0.11772,59.27366 -1.54543,73.10232 -9.09041,88.04884 -9.77778,19.36966 -32.88968,28.30905 -60.36203,23.34727 z m 215.22503,0.42209 c -5.49393,-1.46302 -11.14073,-6.86895 -14.10666,-13.50492 -1.42903,-3.19731 -4.86546,-15.90754 -7.6365,-28.24496 -5.40292,-24.05523 -8.06018,-31.07437 -13.60794,-35.94537 -4.82793,-4.23898 -9.04329,-5.11101 -24.73725,-5.11737 l -13.75,-0.006 0.073,28.75 c 0.11214,44.1606 0.17668,44.34721 16.177,46.77227 2.86051,0.43354 3.75,1.032 3.75,2.52304 0,1.89686 -0.90235,1.95469 -30.5,1.95469 -29.20374,0 -30.5,-0.08 -30.5,-1.88337 0,-1.99983 2.54051,-3.07976 7.29966,-3.10298 4.34983,-0.0212 8.71352,-2.80095 10.27912,-6.54795 2.14957,-5.14464 2.1098,-140.881946 -0.0428,-146.033809 -1.74385,-4.17365 -6.30952,-6.431892 -13.00386,-6.431892 -4.20797,0 -4.53212,-0.184987 -4.53212,-2.586408 v -2.586409 l 40.75,0.427898 c 35.20795,0.369703 41.63401,0.671704 47.25,2.220581 22.19926,6.122501 35,20.611749 35,39.616749 0,20.53812 -15.23093,37.95749 -38.37267,43.88619 -6.45854,1.65461 -6.84583,1.89023 -4.12733,2.51096 8.60301,1.96438 13.44216,3.71096 17.59724,6.35131 8.75406,5.56278 11.51484,11.44129 18.32223,39.01333 2.97633,12.05504 6.12919,23.30611 7.00637,25.00238 1.95606,3.78262 4.3464,5.14342 9.03473,5.14342 2.90389,0 4.4229,-0.83084 7.92879,-4.33673 3.63781,-3.6378 4.60047,-4.14388 5.9732,-3.14011 1.47046,1.07522 1.30683,1.60962 -1.61305,5.26799 -4.44981,5.57526 -8.0306,8.18823 -13.46051,9.82239 -5.20762,1.56726 -11.06041,1.64008 -16.45065,0.20466 z m -36.9808,-90.58116 c 10.84951,-4.3066 16.54329,-10.5644 19.69617,-21.64728 2.34211,-8.23286 1.62271,-26.857499 -1.32869,-34.398844 -5.5346,-14.141857 -16.55395,-20.498 -35.72503,-20.606796 -10.83755,-0.0615 -14.19405,1.303973 -17,6.915879 -1.86101,3.722028 -2.02365,6.387557 -2.34027,38.356751 l -0.34026,34.35674 15.84026,-0.42491 c 13.13566,-0.35237 16.75503,-0.78803 21.19782,-2.55154 z m 263.39611,90.26868 c -19.48277,-3.53228 -34.2955,-16.7966 -39.65047,-35.50572 -2.73925,-9.57032 -3.58584,-27.18273 -3.59464,-74.78212 -0.009,-50.546339 -0.12848,-51.690317 -5.67977,-54.534214 C 725.77295,44.551313 722.1375,43.579198 719.25,43.1881 715.00151,42.612663 714,42.113385 714,40.570851 c 0,-1.833218 1.16716,-1.906162 30.5,-1.906162 29.0219,0 30.5,0.08976 30.5,1.852173 0,1.507789 -1.24346,2.05822 -6.68762,2.960347 -8.93744,1.480982 -11.04669,3.629777 -12.45738,12.690951 -0.71147,4.569938 -0.89826,23.88363 -0.55553,57.44071 0.54457,53.31852 1.09731,60.38237 5.50443,70.34542 2.50818,5.67014 9.4027,13.26499 14.31836,15.77277 9.38407,4.7874 28.44635,4.57082 39.40834,-0.44775 14.77244,-6.76304 22.46922,-21.85059 24.46008,-47.94763 1.32842,-17.41349 1.28886,-84.341232 -0.0548,-92.666991 C 837.25733,48.263454 834.39753,45.339359 824.13576,43.531783 819.1627,42.655796 818,42.092247 818,40.55784 c 0,-1.802661 1.09937,-1.893151 23,-1.893151 22.09103,0 23,0.07662 23,1.938727 0,1.549201 -0.95436,2.077587 -4.75,2.629854 -6.45541,0.939264 -9.88264,2.855029 -11.98307,6.698346 -1.60359,2.934196 -1.82344,8.178815 -2.3782,56.733074 -0.68147,59.64436 -1.16293,64.40736 -7.94766,78.62349 -9.63248,20.18302 -33.23366,29.85967 -60.68741,24.88223 z m 176.91402,-76.25572 c -26.9784,-41.6625 -49.74917,-76.650001 -50.60171,-77.750001 -1.40379,-1.811248 -1.52723,4.511927 -1.30802,67.000001 0.22545,64.26818 0.36539,69.22591 2.0406,72.29422 2.43842,4.46622 6.80797,6.90571 13.82888,7.72057 5.13266,0.59571 5.87262,0.9527 5.87297,2.8334 4e-4,2.14703 -0.0513,2.15132 -23.25,1.932 -21.95495,-0.20756 -23.26721,-0.32537 -23.55217,-2.1143 -0.25276,-1.58686 0.54396,-2.00668 4.90638,-2.58538 7.13697,-0.94675 10.75092,-3.04765 12.72417,-7.39693 1.51026,-3.32881 1.67122,-10.37722 1.67122,-73.18358 0,-68.253002 -0.0368,-69.562799 -2.04938,-73.000001 -2.30627,-3.938713 -6.56324,-5.85541 -13.20062,-5.943558 -3.72402,-0.04946 -4.25,-0.334904 -4.25,-2.306442 v -2.25 h 20.80421 20.80422 l 41.94578,64.607601 41.94579,64.60759 0.2584,-55.94447 c 0.2462,-53.312899 0.168,-56.148722 -1.6624,-60.286598 -2.33642,-5.281877 -6.17777,-7.49984 -14.25815,-8.232543 C 980.73141,43.453234 980,43.122414 980,41.2758 c 0,-2.088258 0.25439,-2.111111 23.5,-2.111111 h 23.5 v 2.25 c 0,1.929429 -0.5343,2.253129 -3.75,2.271962 -6.4031,0.0375 -11.6676,3.121288 -13.8439,8.109255 -1.8111,4.151055 -1.9211,8.193783 -2.2075,81.118784 l -0.3014,76.75 h -2.339 c -1.9996,0 -9.45481,-10.98908 -51.39052,-75.75 z M 8,206.78132 c 0,-1.99983 2.540506,-3.07976 7.29966,-3.10298 4.349826,-0.0212 8.713522,-2.80095 10.279118,-6.54795 2.13338,-5.1059 2.111528,-140.877804 -0.0235,-145.987636 C 23.909012,47.202677 20.05445,45.099515 12.75,44.155818 8.9277308,43.662001 8,43.163487 8,41.603416 8,39.706781 9.2950709,39.664689 67.649743,39.664689 h 59.649747 l -0.64975,9.153625 C 126.29238,53.852807 126,65.102807 126,73.818314 V 89.66469 h -2.37083 c -2.16798,0 -2.42987,-0.53479 -3.06069,-6.25 C 118.54823,65.111552 114.44996,54.314372 107.87015,49.960059 101.58243,45.799045 94.999383,44.684376 77,44.733 c -19.738563,0.05332 -22.682021,0.79573 -25.5,6.431689 -1.861266,3.722532 -2.022893,6.37582 -2.330033,38.250001 l -0.330033,34.25 11.830033,-0.022 c 14.022349,-0.026 18.329434,-1.48363 22.602153,-7.64917 2.521573,-3.63863 5.038512,-12.505 5.912783,-20.82883 0.254347,-2.42161 0.782446,-3 2.739151,-3 h 2.424054 l -0.157592,22.5 c -0.08668,12.375 0.173308,27.5625 0.577742,33.75 l 0.735334,11.25 h -2.58643 c -2.492219,0 -2.64322,-0.3475 -4.145525,-9.54022 -2.910869,-17.81182 -7.534026,-21.40208 -27.605395,-21.43782 l -12.333758,-0.022 0.333758,32.25 c 0.360993,34.88164 0.526582,35.9935 5.958995,40.01217 2.150915,1.59115 10.18848,3.22925 18.124763,3.69392 0.4125,0.0241 0.75,0.94391 0.75,2.04391 0,1.9596 -0.666667,2 -33,2 -31.6521364,0 -33,-0.0769 -33,-1.88337 z m 132,0 c 0,-1.99983 2.54051,-3.07976 7.29966,-3.10298 4.61603,-0.0225 8.31343,-2.58941 10.07639,-6.99547 C 158.81931,193.0758 159,185.00713 159,124.16469 c 0,-60.019509 -0.19451,-68.945664 -1.57775,-72.402719 -1.89697,-4.740988 -6.15432,-7.097282 -12.82338,-7.097282 -4.23879,0 -4.59887,-0.195741 -4.59887,-2.5 v -2.5 h 30.56955 30.56955 l -0.31955,2.25 c -0.2816,1.982815 -1.06483,2.321277 -6.59568,2.850234 -7.80548,0.746498 -10.67713,3.123188 -12.16691,10.069794 -1.53769,7.170003 -1.28974,133.846553 0.27352,139.736283 0.74058,2.79025 2.20501,5.17419 3.99285,6.5 2.65671,1.97013 4.07312,2.09369 24,2.09369 24.21774,0 29.11627,-1.00627 35.37728,-7.26728 5.9874,-5.9874 8.79846,-13.95614 11.81139,-33.48272 0.47145,-3.0554 0.99689,-3.75 2.83677,-3.75 h 2.25814 l 0.0107,18.25 c 0.006,10.0375 0.35513,21.2875 0.77614,25 l 0.76546,6.75 h -62.0796 C 141.94813,208.66469 140,208.60559 140,206.78132 Z m 446,0 c 0,-1.99983 2.54051,-3.07976 7.29966,-3.10298 4.61603,-0.0225 8.31343,-2.58941 10.07639,-6.99547 1.44427,-3.60959 1.62152,-11.66321 1.60199,-72.78842 -0.0207,-64.728664 -0.12974,-68.967056 -1.8733,-72.805957 -2.02968,-4.468894 -4.53243,-5.869227 -12.35474,-6.912709 -3.8154,-0.508967 -4.75,-1.015099 -4.75,-2.572368 0,-1.896632 1.29499,-1.938727 59.64246,-1.938727 h 59.64245 l -0.64245,6.146691 C 704.28911,49.19206 704,60.44206 704,70.81138 v 18.85331 h -2.5 c -1.375,0 -2.50265,-0.5625 -2.5059,-1.25 -0.0178,-3.76908 -3.24401,-21.956022 -4.64621,-26.191638 -1.0506,-3.173542 -3.28513,-6.590843 -6.24528,-9.550986 -6.66315,-6.663159 -10.46182,-7.507377 -33.78038,-7.507377 -17.89851,0 -19.36602,0.13966 -22,2.09369 -4.64533,3.446171 -5.15334,7.677137 -5.24175,43.656311 l -0.0805,32.75 h 11.53212 c 13.18459,0 16.48633,-0.97911 21.12764,-6.26527 3.63694,-4.14224 4.9238,-7.6097 6.6132,-17.81931 1.07311,-6.4852 1.50929,-7.45551 3.47704,-7.73497 l 2.25,-0.31955 0.005,24.31955 c 0.003,13.37575 0.29572,28.70705 0.65083,34.06955 l 0.64565,9.75 h -2.60551 c -2.16437,0 -2.69508,-0.55026 -3.13453,-3.25 -2.02966,-12.46904 -2.82927,-15.53101 -5.04167,-19.30618 -3.98348,-6.79759 -8.53306,-8.44382 -23.33549,-8.44382 H 627 l 0.0239,30.25 c 0.0131,16.6375 0.43923,32.05 0.94691,34.25 0.54564,2.36449 2.15331,5.10249 3.93192,6.69639 2.92201,2.61856 4.34074,3.04583 14.34731,4.3209 3.82516,0.48741 4.75,0.98273 4.75,2.54398 0,1.87854 -1.00905,1.93873 -32.5,1.93873 -31.16246,0 -32.5,-0.0775 -32.5,-1.88337 z m 455,0 c 0,-1.99983 2.5405,-3.07976 7.2997,-3.10298 4.3498,-0.0212 8.7135,-2.80095 10.2791,-6.54795 2.1495,-5.14464 2.1098,-140.881946 -0.043,-146.033809 -1.7437,-4.17365 -6.3093,-6.431892 -13.0037,-6.431892 -4.1676,0 -4.5321,-0.201079 -4.5321,-2.5 v -2.5 h 30.5 30.5 v 2.5 c 0,2.336611 -0.33,2.5 -5.0497,2.5 -6.2467,0 -10.3829,2.046851 -12.664,6.266927 -1.5349,2.839555 -1.792,7.115801 -2.1128,35.132874 l -0.3652,31.8998 5.7126,-0.58961 c 7.3994,-0.76367 15.2715,-4.66709 20.1279,-9.98046 7.745,-8.4738 31.3856,-39.591755 34.3286,-45.186628 5.8928,-11.202336 3.2724,-16.694742 -8.4774,-17.768697 -2.2457,-0.205265 -3.0803,-0.839898 -3.3196,-2.524206 l -0.3195,-2.25 H 1154 c 24.0235,0 24.1376,0.01015 23.8196,2.11862 -0.2422,1.605149 -1.6747,2.536449 -5.9107,3.842608 -6.5155,2.009057 -12.7341,6.100361 -18.5416,12.198953 -3.5943,3.77441 -39.7693,49.34927 -41.6783,52.50809 -0.9194,1.52137 54.9579,80.4368 60.9108,86.02425 2.4567,2.30589 6.8143,5.06545 9.6835,6.13237 3.7558,1.3966 5.3062,2.53288 5.5363,4.05748 0.3187,2.11256 0.2547,2.11763 -26.75,2.11763 -26.3162,0 -27.0696,-0.0551 -27.0696,-1.98095 0,-1.3596 0.8626,-2.15531 2.75,-2.53685 11.7363,-2.37244 11.8036,-2.13118 -9.8191,-35.17867 -27.6476,-42.25556 -29.9359,-44.85949 -39.9982,-45.51484 l -4.4327,-0.28869 -0.3067,28 c -0.5449,49.74147 -0.3022,50.54287 16.0567,53.02227 2.8605,0.43354 3.75,1.032 3.75,2.52304 0,1.89686 -0.9023,1.95469 -30.5,1.95469 -29.2037,0 -30.5,-0.08 -30.5,-1.88337 z"
     id="path14038"
     inkscape:connector-curvature="0" />
</svg>
