<?xml version="1.0" encoding="UTF-8" standalone="no"?>
<!-- Created with Inkscape (http://www.inkscape.org/) -->

<svg
   xmlns:dc="http://purl.org/dc/elements/1.1/"
   xmlns:cc="http://creativecommons.org/ns#"
   xmlns:rdf="http://www.w3.org/1999/02/22-rdf-syntax-ns#"
   xmlns:svg="http://www.w3.org/2000/svg"
   xmlns="http://www.w3.org/2000/svg"
   xmlns:sodipodi="http://sodipodi.sourceforge.net/DTD/sodipodi-0.dtd"
   xmlns:inkscape="http://www.inkscape.org/namespaces/inkscape"
   id="svg3374"
   version="1.1"
   inkscape:version="0.92.2 5c3e80d, 2017-08-06"
   xml:space="preserve"
   width="35"
   height="35"
   viewBox="0 0 31.499999 31.499999"
   sodipodi:docname="logo.svg"><metadata
     id="metadata3380"><rdf:RDF><cc:Work
         rdf:about=""><dc:format>image/svg+xml</dc:format><dc:type
           rdf:resource="http://purl.org/dc/dcmitype/StillImage" /><dc:title></dc:title></cc:Work></rdf:RDF></metadata><defs
     id="defs3378"><clipPath
       clipPathUnits="userSpaceOnUse"
       id="clipPath3390"><path
         d="M 0,0 H 1191 V 842 H 0 Z"
         id="path3392"
         inkscape:connector-curvature="0" /></clipPath><clipPath
       clipPathUnits="userSpaceOnUse"
       id="clipPath3400"><path
         d="m 153.764,465.6209 h 37.01695 V 751.8894 H 153.764 Z"
         id="path3402"
         inkscape:connector-curvature="0" /></clipPath><clipPath
       clipPathUnits="userSpaceOnUse"
       id="clipPath3410"><path
         d="M 113.7,604.0933 H 229.6492 V 720.0425 H 113.7 Z"
         id="path3412"
         inkscape:connector-curvature="0" /></clipPath><clipPath
       clipPathUnits="userSpaceOnUse"
       id="clipPath3424"><path
         d="m 166.8953,717.9749 61.4489,-51.5617 -24.1138,-28.7378 -61.4489,51.5618 z"
         id="path3426"
         inkscape:connector-curvature="0" /></clipPath><clipPath
       clipPathUnits="userSpaceOnUse"
       id="clipPath3430"><path
         d="M 0,0 H 1191 V 842 H 0 Z"
         id="path3432"
         inkscape:connector-curvature="0" /></clipPath><clipPath
       clipPathUnits="userSpaceOnUse"
       id="clipPath3440"><path
         d="m 513.6177,151.4109 h 29.83367 V 376.032 H 513.6177 Z"
         id="path3442"
         inkscape:connector-curvature="0" /></clipPath><clipPath
       clipPathUnits="userSpaceOnUse"
       id="clipPath3450"><path
         d="m 486.7577,265.9428 h 83.55355 v 83.55355 H 486.7577 Z"
         id="path3452"
         inkscape:connector-curvature="0" /></clipPath><clipPath
       clipPathUnits="userSpaceOnUse"
       id="clipPath3464"><path
         d="m 525.0593,348.362 44.6665,-37.4797 -17.7197,-21.1176 -44.6666,37.4797 z"
         id="path3466"
         inkscape:connector-curvature="0" /></clipPath><clipPath
       clipPathUnits="userSpaceOnUse"
       id="clipPath3470"><path
         d="M 0,0 H 1191 V 842 H 0 Z"
         id="path3472"
         inkscape:connector-curvature="0" /></clipPath><clipPath
       clipPathUnits="userSpaceOnUse"
       id="clipPath3480"><path
         d="M 300.1469,77.51705 H 620.034 v 127.506 H 300.1469 Z"
         id="path3482"
         inkscape:connector-curvature="0" /></clipPath><clipPath
       clipPathUnits="userSpaceOnUse"
       id="clipPath3500"><path
         d="m 1003.112,149.9578 h 27.2089 V 376.032 h -27.2089 z"
         id="path3502"
         inkscape:connector-curvature="0" /></clipPath><clipPath
       clipPathUnits="userSpaceOnUse"
       id="clipPath3510"><path
         d="m 974.9396,268.122 h 83.5536 v 83.55355 h -83.5536 z"
         id="path3512"
         inkscape:connector-curvature="0" /></clipPath><clipPath
       clipPathUnits="userSpaceOnUse"
       id="clipPath3524"><path
         d="m 1013.241,350.5412 44.667,-37.4796 -17.72,-21.1177 -44.6665,37.4797 z"
         id="path3526"
         inkscape:connector-curvature="0" /></clipPath><clipPath
       clipPathUnits="userSpaceOnUse"
       id="clipPath3530"><path
         d="M 0,0 H 1191 V 842 H 0 Z"
         id="path3532"
         inkscape:connector-curvature="0" /></clipPath><clipPath
       clipPathUnits="userSpaceOnUse"
       id="clipPath3540"><path
         d="m 747.9933,62.77952 h 397.3558 v 150.084 H 747.9933 Z"
         id="path3542"
         inkscape:connector-curvature="0" /></clipPath></defs><sodipodi:namedview
     pagecolor="#ffffff"
     bordercolor="#666666"
     borderopacity="1"
     objecttolerance="10"
     gridtolerance="10"
     guidetolerance="10"
     inkscape:pageopacity="0"
     inkscape:pageshadow="2"
     inkscape:window-width="1916"
     inkscape:window-height="1032"
     id="namedview3376"
     showgrid="false"
     inkscape:snap-nodes="false"
     inkscape:snap-page="true"
     inkscape:zoom="4.2773724"
     inkscape:cx="19.929705"
     inkscape:cy="74.118405"
     inkscape:window-x="0"
     inkscape:window-y="22"
     inkscape:window-maximized="0"
     inkscape:current-layer="g3382"
     borderlayer="true"
     fit-margin-top="0"
     fit-margin-left="0"
     fit-margin-right="0"
     fit-margin-bottom="0"
     scale-x="1.5"
     height="35px" /><g
     id="g3382"
     inkscape:groupmode="layer"
     inkscape:label="logo"
     transform="matrix(1.25,0,0,-1.25,-169.3648,45.475445)"><g
       id="g3384"
       transform="matrix(0.06901874,0,0,0.06901874,126.14036,10.408701)"
       style="stroke-width:14.48881721" /><path
       style="fill:#e6e6e6;fill-opacity:1;fill-rule:evenodd;stroke:none;stroke-width:0.85110259px;stroke-linecap:butt;stroke-linejoin:miter;stroke-opacity:1"
       d="m 148.11574,35.738184 c -0.29804,0.0056 -0.53846,-0.136549 -0.59158,-0.493538 0,0 -0.0739,-1.411265 -0.1219,-2.322787 0.22921,0.02291 0.45985,0.0354 0.69083,0.03739 0.24784,-0.0015 0.49535,-0.01487 0.74114,-0.04034 l -0.11788,2.325737 c -0.0375,0.380486 -0.30258,0.487864 -0.60061,0.493538 z m 1.20576,-12.426091 c -0.40395,-0.06826 -0.81553,-0.10356 -1.22841,-0.105356 -0.40317,2.01e-4 -0.80532,0.03225 -1.20057,0.09584 -0.3221,-6.054502 -0.64573,-12.12222 -0.64573,-12.12222 h 3.69009 z"
       id="path3714"
       inkscape:connector-curvature="0"
       sodipodi:nodetypes="ssccccscccccc" /><path
       style="fill:#e6e6e6;fill-opacity:1;stroke:none;stroke-width:0.99999994"
       d="m 148.09183,32.237046 a 4.2428939,4.12967 0 0 1 -4.24287,-4.129654 4.2428939,4.12967 0 0 1 4.24287,-4.129654 4.2428939,4.12967 0 0 1 4.24288,4.129654 4.2428939,4.12967 0 0 1 -4.24288,4.129654 z m -0.0811,-0.712023 c 1.76281,0.02323 3.29469,-1.222534 3.56972,-2.915382 0.13746,-0.846038 -0.0823,-1.70453 -0.60939,-2.38029 l -5.26142,4.335672 c 0.6019,0.603599 1.42869,0.948495 2.30109,0.96 z"
       id="path4557"
       inkscape:connector-curvature="0" /><g
       id="g3420"
       transform="matrix(0.06901874,0,0,0.06901874,126.15561,10.573001)"
       style="stroke-width:14.48881721"><g
         id="g3422"
         clip-path="url(#clipPath3424)"
         style="stroke-width:14.48881721"><g
           id="g3428"
           clip-path="url(#clipPath3430)"
           style="stroke-width:14.48881721" /></g></g></g></svg>